{
classes = (
{
automatic = 1;
code = "A B C D E F G H I J K L M N O P Q R S T U V W X Y Z Agrave Aacute Acircumflex Atilde Adieresis Aring AE Ccedilla Egrave Eacute Ecircumflex Edieresis Igrave Iacute Icircumflex Idieresis Eth Ntilde Ograve Oacute Ocircumflex Otilde Odieresis Oslash Ugrave Uacute Ucircumflex Udieresis Yacute Thorn Cacute Ccaron Gbreve Idotaccent Lslash OE Scedilla Scaron Ydieresis Zcaron Omega Delta Abreve Abreveacute Abrevedotbelow Abrevegrave Abrevehookabove Abrevetilde Acaron Acircumflexacute Acircumflexdotbelow Acircumflexgrave Acircumflexhookabove Acircumflextilde Adieresismacron Adotbelow Ahookabove Amacron Aogonek Bdotbelow Cdotaccent Dcaron Dcircumflexbelow Dcroat Ddotbelow Dlinebelow Ecaron Ecedilla Ecircumflexacute Ecircumflexdotbelow Ecircumflexgrave Ecircumflexhookabove Ecircumflextilde Edotaccent Edotbelow Ehookabove Emacron Eogonek Etilde Gcaron Gcommaaccent Gdotaccent Hbar Hdotbelow IJ Icaron Idieresisacute Idotbelow Ihookabove Imacron Iogonek Itilde Kcommaaccent Lacute Lcaron Lcircumflexbelow Lcommaaccent Ldot Ldotbelow Macute Nacute Ncaron Ncircumflexbelow Ncommaaccent Ndotaccent Ndotbelow Eng Ocaron Ocircumflexacute Ocircumflexdotbelow Ocircumflexgrave Ocircumflexhookabove Ocircumflextilde Odiaeresismacron Odotbelow Ohookabove Ohorn Ohornacute Ohorndotbelow Ohorngrave Ohornhookabove Ohorntilde Ohungarumlaut Omacron Omacronacute Omacrongrave Oslashacute Otildeacute Racute Rcaron Rcommaaccent Sacute Scommaaccent Sdotbelow Tbar Tcaron Tcedilla Tcircumflexbelow Tcommaaccent Tdotbelow Tlinebelow Ucaron Udieresisacute Udieresiscaron Udieresisgrave Udieresismacron Udotbelow Uhookabove Uhorn Uhornacute Uhorndotbelow Uhorngrave Uhornhookabove Uhorntilde Uhungarumlaut Umacron Uogonek Uring Utilde Wacute Wcircumflex Wdieresis Wgrave Ycircumflex Ydotbelow Ygrave Yhookabove Ytilde Zacute Zdotaccent Zdotbelow";
name = Uppercase;
}
);

glyphs = (
{
glyphname = .notdef;
lastChange = "2013-06-12 15:10:19 -0400";
layers = (
{
associatedMasterId = "6B6936E6-7670-4A82-900D-EAF583C971AF";
layerId = "8653827A-FA6E-47E7-A71B-C601C42A6CF2";
name = "Regular Jun 13 13, 18:56";
paths = (
{
closed = 1;
nodes = (
"238 -362 LINE",
"238 1444 LINE",
"1262 1444 LINE",
"1262 -362 LINE"
);
},
{
closed = 1;
nodes = (
"353 -68 LINE",
"1148 -68 LINE",
"1148 1329 LINE",
"353 1329 LINE"
);
}
);
width = 1500;
},
{
layerId = "6B6936E6-7670-4A82-900D-EAF583C971AF";
name = Regular;
paths = (
{
closed = 1;
nodes = (
"238 -362 LINE",
"238 1444 LINE",
"1262 1444 LINE",
"1262 -362 LINE"
);
},
{
closed = 1;
nodes = (
"353 -68 LINE",
"1148 -68 LINE",
"1148 1329 LINE",
"353 1329 LINE"
);
}
);
width = 1500;
}
);
},
{
glyphname = exclam;
lastChange = "2013-06-12 15:10:19 -0400";
layers = (
{
layerId = "6B6936E6-7670-4A82-900D-EAF583C971AF";
name = Regular;
paths = (
{
closed = 1;
nodes = (
"640 206 LINE SMOOTH",
"643 238 OFFCURVE",
"660 254 OFFCURVE",
"692 254 CURVE SMOOTH",
"809 254 LINE SMOOTH",
"841 254 OFFCURVE",
"858 238 OFFCURVE",
"861 206 CURVE SMOOTH",
"873 52 LINE SMOOTH",
"876 19 OFFCURVE",
"858 0 OFFCURVE",
"825 0 CURVE SMOOTH",
"676 0 LINE SMOOTH",
"643 0 OFFCURVE",
"625 19 OFFCURVE",
"628 52 CURVE SMOOTH"
);
},
{
closed = 1;
nodes = (
"652 1444 LINE SMOOTH",
"653 1476 OFFCURVE",
"671 1493 OFFCURVE",
"703 1493 CURVE SMOOTH",
"797 1493 LINE SMOOTH",
"830 1493 OFFCURVE",
"847 1476 OFFCURVE",
"848 1443 CURVE SMOOTH",
"857 838 LINE",
"883 533 LINE SMOOTH",
"885 500 OFFCURVE",
"868 481 OFFCURVE",
"835 481 CURVE SMOOTH",
"666 481 LINE SMOOTH",
"633 481 OFFCURVE",
"616 499 OFFCURVE",
"618 532 CURVE SMOOTH",
"634 838 LINE"
);
}
);
width = 1500;
}
);
unicode = 0021;
},
{
glyphname = quotedbl;
lastChange = "2013-06-12 15:10:19 -0400";
layers = (
{
layerId = "6B6936E6-7670-4A82-900D-EAF583C971AF";
name = Regular;
paths = (
{
closed = 1;
nodes = (
"590 1493 LINE SMOOTH",
"623 1493 OFFCURVE",
"640 1476 OFFCURVE",
"641 1443 CURVE SMOOTH",
"650 956 LINE SMOOTH",
"651 924 OFFCURVE",
"633 906 OFFCURVE",
"601 906 CURVE SMOOTH",
"500 906 LINE SMOOTH",
"468 906 OFFCURVE",
"450 924 OFFCURVE",
"451 956 CURVE SMOOTH",
"460 1443 LINE SMOOTH",
"461 1476 OFFCURVE",
"478 1493 OFFCURVE",
"511 1493 CURVE SMOOTH"
);
},
{
closed = 1;
nodes = (
"990 1493 LINE SMOOTH",
"1023 1493 OFFCURVE",
"1040 1476 OFFCURVE",
"1041 1443 CURVE SMOOTH",
"1050 956 LINE SMOOTH",
"1051 924 OFFCURVE",
"1033 906 OFFCURVE",
"1001 906 CURVE SMOOTH",
"900 906 LINE SMOOTH",
"868 906 OFFCURVE",
"850 924 OFFCURVE",
"851 956 CURVE SMOOTH",
"859 1443 LINE SMOOTH",
"860 1476 OFFCURVE",
"877 1493 OFFCURVE",
"910 1493 CURVE SMOOTH"
);
}
);
width = 1500;
}
);
unicode = 0022;
},
{
glyphname = numbersign;
lastChange = "2013-06-12 15:10:19 -0400";
layers = (
{
layerId = "6B6936E6-7670-4A82-900D-EAF583C971AF";
name = Regular;
paths = (
{
closed = 1;
nodes = (
"950 846 LINE SMOOTH",
"959 880 OFFCURVE",
"942 901 OFFCURVE",
"907 901 CURVE SMOOTH",
"667 901 LINE SMOOTH",
"638 901 OFFCURVE",
"619 887 OFFCURVE",
"612 858 CURVE SMOOTH",
"553 623 LINE SMOOTH",
"544 588 OFFCURVE",
"561 567 OFFCURVE",
"596 567 CURVE SMOOTH",
"837 567 LINE SMOOTH",
"867 567 OFFCURVE",
"885 581 OFFCURVE",
"893 610 CURVE SMOOTH"
);
},
{
closed = 1;
nodes = (
"707 1470 LINE SMOOTH",
"742 1470 OFFCURVE",
"759 1449 OFFCURVE",
"750 1414 CURVE SMOOTH",
"674 1111 LINE SMOOTH",
"665 1076 OFFCURVE",
"682 1055 OFFCURVE",
"717 1055 CURVE SMOOTH",
"958 1055 LINE SMOOTH",
"987 1055 OFFCURVE",
"1006 1069 OFFCURVE",
"1013 1098 CURVE SMOOTH",
"1096 1427 LINE SMOOTH",
"1103 1456 OFFCURVE",
"1122 1470 OFFCURVE",
"1151 1470 CURVE SMOOTH",
"1210 1470 LINE SMOOTH",
"1245 1470 OFFCURVE",
"1262 1449 OFFCURVE",
"1253 1414 CURVE SMOOTH",
"1178 1111 LINE SMOOTH",
"1169 1076 OFFCURVE",
"1186 1055 OFFCURVE",
"1221 1055 CURVE SMOOTH",
"1476 1055 LINE SMOOTH",
"1509 1055 OFFCURVE",
"1526 1038 OFFCURVE",
"1526 1005 CURVE SMOOTH",
"1526 951 LINE SMOOTH",
"1526 919 OFFCURVE",
"1508 901 OFFCURVE",
"1476 901 CURVE SMOOTH",
"1170 901 LINE SMOOTH",
"1140 901 OFFCURVE",
"1122 887 OFFCURVE",
"1114 858 CURVE SMOOTH",
"1057 622 LINE SMOOTH",
"1048 588 OFFCURVE",
"1065 567 OFFCURVE",
"1100 567 CURVE SMOOTH",
"1361 567 LINE SMOOTH",
"1394 567 OFFCURVE",
"1411 550 OFFCURVE",
"1411 517 CURVE SMOOTH",
"1411 464 LINE SMOOTH",
"1411 432 OFFCURVE",
"1393 414 OFFCURVE",
"1361 414 CURVE SMOOTH",
"1049 414 LINE SMOOTH",
"1019 414 OFFCURVE",
"1000 400 OFFCURVE",
"993 371 CURVE SMOOTH",
"911 43 LINE SMOOTH",
"904 14 OFFCURVE",
"885 0 OFFCURVE",
"855 0 CURVE SMOOTH",
"797 0 LINE SMOOTH",
"762 0 OFFCURVE",
"745 21 OFFCURVE",
"754 56 CURVE SMOOTH",
"829 358 LINE SMOOTH",
"838 393 OFFCURVE",
"821 414 OFFCURVE",
"786 414 CURVE SMOOTH",
"545 414 LINE SMOOTH",
"515 414 OFFCURVE",
"496 400 OFFCURVE",
"489 371 CURVE SMOOTH",
"408 43 LINE SMOOTH",
"401 14 OFFCURVE",
"382 0 OFFCURVE",
"352 0 CURVE SMOOTH",
"293 0 LINE SMOOTH",
"258 0 OFFCURVE",
"241 21 OFFCURVE",
"250 56 CURVE SMOOTH",
"326 358 LINE SMOOTH",
"335 393 OFFCURVE",
"318 414 OFFCURVE",
"283 414 CURVE SMOOTH",
"24 414 LINE SMOOTH",
"-8 414 OFFCURVE",
"-26 431 OFFCURVE",
"-26 464 CURVE SMOOTH",
"-26 517 LINE SMOOTH",
"-26 550 OFFCURVE",
"-9 567 OFFCURVE",
"24 567 CURVE SMOOTH",
"333 567 LINE SMOOTH",
"362 567 OFFCURVE",
"381 581 OFFCURVE",
"388 610 CURVE SMOOTH",
"447 845 LINE SMOOTH",
"456 880 OFFCURVE",
"439 901 OFFCURVE",
"404 901 CURVE SMOOTH",
"138 901 LINE SMOOTH",
"106 901 OFFCURVE",
"88 918 OFFCURVE",
"88 951 CURVE SMOOTH",
"88 1005 LINE SMOOTH",
"88 1038 OFFCURVE",
"105 1055 OFFCURVE",
"138 1055 CURVE SMOOTH",
"455 1055 LINE SMOOTH",
"485 1055 OFFCURVE",
"503 1069 OFFCURVE",
"511 1098 CURVE SMOOTH",
"591 1427 LINE SMOOTH",
"599 1456 OFFCURVE",
"617 1470 OFFCURVE",
"647 1470 CURVE SMOOTH"
);
}
);
width = 1500;
}
);
unicode = 0023;
},
{
glyphname = dollar;
lastChange = "2013-06-12 15:10:19 -0400";
layers = (
{
layerId = "6B6936E6-7670-4A82-900D-EAF583C971AF";
name = Regular;
paths = (
{
closed = 1;
nodes = (
"828 -242 LINE SMOOTH",
"830 -276 OFFCURVE",
"813 -294 OFFCURVE",
"779 -293 CURVE SMOOTH",
"703 -292 LINE SMOOTH",
"669 -291 OFFCURVE",
"652 -273 OFFCURVE",
"655 -240 CURVE SMOOTH",
"671 -40 LINE SMOOTH",
"674 -8 OFFCURVE",
"657 10 OFFCURVE",
"625 13 CURVE SMOOTH",
"523 22 OFFCURVE",
"414 48 OFFCURVE",
"305 92 CURVE SMOOTH",
"278 103 OFFCURVE",
"266 122 OFFCURVE",
"267 151 CURVE SMOOTH",
"269 280 LINE SMOOTH",
"270 320 OFFCURVE",
"294 333 OFFCURVE",
"329 313 CURVE SMOOTH",
"428 258 OFFCURVE",
"530 225 OFFCURVE",
"629 215 CURVE SMOOTH",
"662 212 OFFCURVE",
"680 230 OFFCURVE",
"681 263 CURVE SMOOTH",
"686 561 LINE SMOOTH",
"687 592 OFFCURVE",
"672 610 OFFCURVE",
"641 617 CURVE SMOOTH",
"393 673 OFFCURVE",
"289 784 OFFCURVE",
"281 973 CURVE",
"285 1177 OFFCURVE",
"419 1301 OFFCURVE",
"660 1326 CURVE SMOOTH",
"692 1330 OFFCURVE",
"709 1346 OFFCURVE",
"710 1378 CURVE SMOOTH",
"712 1515 LINE SMOOTH",
"713 1547 OFFCURVE",
"731 1565 OFFCURVE",
"763 1564 CURVE SMOOTH",
"796 1563 OFFCURVE",
"813 1546 OFFCURVE",
"812 1513 CURVE SMOOTH",
"810 1380 LINE SMOOTH",
"809 1348 OFFCURVE",
"826 1330 OFFCURVE",
"858 1327 CURVE SMOOTH",
"948 1319 OFFCURVE",
"1034 1303 OFFCURVE",
"1117 1277 CURVE SMOOTH",
"1145 1268 OFFCURVE",
"1158 1249 OFFCURVE",
"1157 1220 CURVE SMOOTH",
"1156 1172 LINE SMOOTH",
"1156 1134 OFFCURVE",
"1132 1121 OFFCURVE",
"1097 1137 CURVE SMOOTH",
"1021 1171 OFFCURVE",
"942 1192 OFFCURVE",
"859 1202 CURVE SMOOTH",
"826 1205 OFFCURVE",
"807 1187 OFFCURVE",
"806 1154 CURVE SMOOTH",
"800 786 LINE SMOOTH",
"799 755 OFFCURVE",
"815 738 OFFCURVE",
"846 731 CURVE SMOOTH",
"1115 677 OFFCURVE",
"1225 578 OFFCURVE",
"1234 381 CURVE",
"1230 171 OFFCURVE",
"1085 43 OFFCURVE",
"865 14 CURVE SMOOTH",
"833 10 OFFCURVE",
"817 -8 OFFCURVE",
"818 -40 CURVE SMOOTH"
);
},
{
closed = 1;
nodes = (
"690 1145 LINE SMOOTH",
"691 1180 OFFCURVE",
"670 1199 OFFCURVE",
"636 1191 CURVE SMOOTH",
"501 1161 OFFCURVE",
"423 1076 OFFCURVE",
"423 973 CURVE SMOOTH",
"423 871 OFFCURVE",
"494 797 OFFCURVE",
"626 762 CURVE SMOOTH",
"660 753 OFFCURVE",
"681 771 OFFCURVE",
"682 805 CURVE SMOOTH"
);
},
{
closed = 1;
nodes = (
"800 259 LINE SMOOTH",
"801 225 OFFCURVE",
"821 208 OFFCURVE",
"855 214 CURVE SMOOTH",
"967 234 OFFCURVE",
"1037 258 OFFCURVE",
"1037 362 CURVE SMOOTH",
"1037 464 OFFCURVE",
"974 528 OFFCURVE",
"849 564 CURVE SMOOTH",
"813 574 OFFCURVE",
"792 556 OFFCURVE",
"793 520 CURVE SMOOTH"
);
}
);
width = 1500;
}
);
unicode = 0024;
},
{
glyphname = percent;
lastChange = "2013-06-12 15:10:19 -0400";
layers = (
{
layerId = "6B6936E6-7670-4A82-900D-EAF583C971AF";
name = Regular;
paths = (
{
closed = 1;
nodes = (
"921 576 OFFCURVE",
"851 479 OFFCURVE",
"851 316 CURVE SMOOTH",
"851 155 OFFCURVE",
"921 115 OFFCURVE",
"1037 115 CURVE SMOOTH",
"1150 115 OFFCURVE",
"1221 155 OFFCURVE",
"1221 316 CURVE SMOOTH",
"1221 477 OFFCURVE",
"1150 576 OFFCURVE",
"1037 576 CURVE SMOOTH"
);
},
{
closed = 1;
nodes = (
"1248 703 OFFCURVE",
"1381 545 OFFCURVE",
"1381 296 CURVE SMOOTH",
"1381 47 OFFCURVE",
"1246 -110 OFFCURVE",
"1037 -110 CURVE SMOOTH",
"824 -110 OFFCURVE",
"691 47 OFFCURVE",
"691 296 CURVE SMOOTH",
"691 547 OFFCURVE",
"825 703 OFFCURVE",
"1037 703 CURVE SMOOTH"
);
},
{
closed = 1;
nodes = (
"349 1631 OFFCURVE",
"279 1527 OFFCURVE",
"279 1358 CURVE SMOOTH",
"279 1186 OFFCURVE",
"348 1143 OFFCURVE",
"464 1143 CURVE SMOOTH",
"580 1143 OFFCURVE",
"650 1186 OFFCURVE",
"650 1358 CURVE SMOOTH",
"650 1526 OFFCURVE",
"579 1631 OFFCURVE",
"464 1631 CURVE SMOOTH"
);
},
{
closed = 1;
nodes = (
"1075 1486 LINE SMOOTH",
"1089 1510 OFFCURVE",
"1107 1520 OFFCURVE",
"1134 1520 CURVE SMOOTH",
"1186 1520 LINE SMOOTH",
"1226 1520 OFFCURVE",
"1240 1494 OFFCURVE",
"1219 1460 CURVE SMOOTH",
"333 5 LINE SMOOTH",
"319 -19 OFFCURVE",
"301 -29 OFFCURVE",
"274 -29 CURVE SMOOTH",
"221 -29 LINE SMOOTH",
"181 -29 OFFCURVE",
"167 -3 OFFCURVE",
"188 31 CURVE SMOOTH"
);
},
{
closed = 1;
nodes = (
"675 1758 OFFCURVE",
"810 1601 OFFCURVE",
"810 1352 CURVE SMOOTH",
"810 1100 OFFCURVE",
"676 945 OFFCURVE",
"464 945 CURVE SMOOTH",
"252 945 OFFCURVE",
"119 1101 OFFCURVE",
"119 1352 CURVE SMOOTH",
"119 1600 OFFCURVE",
"253 1758 OFFCURVE",
"464 1758 CURVE SMOOTH"
);
}
);
width = 1500;
}
);
unicode = 0025;
},
{
glyphname = ampersand;
lastChange = "2013-06-12 15:10:19 -0400";
layers = (
{
layerId = "6B6936E6-7670-4A82-900D-EAF583C971AF";
name = Regular;
paths = (
{
closed = 1;
nodes = (
"454 804 LINE SMOOTH",
"433 829 OFFCURVE",
"407 831 OFFCURVE",
"383 807 CURVE SMOOTH",
"287 711 OFFCURVE",
"243 616 OFFCURVE",
"243 510 CURVE SMOOTH",
"243 314 OFFCURVE",
"404 189 OFFCURVE",
"618 167 CURVE SMOOTH",
"676 161 OFFCURVE",
"767 192 OFFCURVE",
"854 256 CURVE SMOOTH",
"881 276 OFFCURVE",
"882 302 OFFCURVE",
"861 327 CURVE SMOOTH"
);
},
{
closed = 1;
nodes = (
"987 453 LINE SMOOTH",
"1012 425 OFFCURVE",
"1041 427 OFFCURVE",
"1057 460 CURVE SMOOTH",
"1103 548 OFFCURVE",
"1117 638 OFFCURVE",
"1125 745 CURVE SMOOTH",
"1127 777 OFFCURVE",
"1145 794 OFFCURVE",
"1177 794 CURVE SMOOTH",
"1262 794 LINE SMOOTH",
"1295 794 OFFCURVE",
"1312 775 OFFCURVE",
"1309 742 CURVE SMOOTH",
"1296 597 OFFCURVE",
"1279 455 OFFCURVE",
"1191 316 CURVE SMOOTH",
"1175 290 OFFCURVE",
"1176 267 OFFCURVE",
"1197 245 CURVE SMOOTH",
"1384 55 LINE SMOOTH",
"1415 23 OFFCURVE",
"1402 -7 OFFCURVE",
"1358 -7 CURVE SMOOTH",
"1228 -7 LINE SMOOTH",
"1203 -7 OFFCURVE",
"1185 1 OFFCURVE",
"1167 19 CURVE SMOOTH",
"1082 106 LINE SMOOTH",
"1060 128 OFFCURVE",
"1037 129 OFFCURVE",
"1011 109 CURVE SMOOTH",
"884 11 OFFCURVE",
"751 -35 OFFCURVE",
"647 -29 CURVE SMOOTH",
"323 -9 OFFCURVE",
"100 174 OFFCURVE",
"100 461 CURVE SMOOTH",
"100 619 OFFCURVE",
"176 758 OFFCURVE",
"329 883 CURVE SMOOTH",
"354 903 OFFCURVE",
"357 926 OFFCURVE",
"340 953 CURVE SMOOTH",
"294 1024 OFFCURVE",
"270 1094 OFFCURVE",
"270 1161 CURVE SMOOTH",
"270 1377 OFFCURVE",
"437 1554 OFFCURVE",
"676 1520 CURVE SMOOTH",
"719 1514 OFFCURVE",
"804 1496 OFFCURVE",
"899 1461 CURVE SMOOTH",
"931 1449 OFFCURVE",
"940 1424 OFFCURVE",
"925 1394 CURVE SMOOTH",
"901 1345 LINE SMOOTH",
"886 1315 OFFCURVE",
"861 1308 OFFCURVE",
"832 1325 CURVE SMOOTH",
"748 1373 OFFCURVE",
"704 1402 OFFCURVE",
"626 1402 CURVE SMOOTH",
"486 1402 OFFCURVE",
"390 1320 OFFCURVE",
"390 1203 CURVE SMOOTH",
"390 1169 OFFCURVE",
"400 1135 OFFCURVE",
"420 1101 CURVE SMOOTH",
"439 1066 OFFCURVE",
"481 1022 OFFCURVE",
"540 955 CURVE SMOOTH"
);
}
);
width = 1500;
}
);
unicode = 0026;
},
{
glyphname = quotesingle;
lastChange = "2013-06-12 15:10:19 -0400";
layers = (
{
layerId = "6B6936E6-7670-4A82-900D-EAF583C971AF";
name = Regular;
paths = (
{
closed = 1;
nodes = (
"831 1493 LINE SMOOTH",
"864 1493 OFFCURVE",
"881 1475 OFFCURVE",
"881 1443 CURVE SMOOTH",
"881 988 LINE SMOOTH",
"881 956 OFFCURVE",
"863 938 OFFCURVE",
"831 938 CURVE SMOOTH",
"666 938 LINE SMOOTH",
"631 938 OFFCURVE",
"615 958 OFFCURVE",
"621 992 CURVE SMOOTH",
"703 1448 LINE SMOOTH",
"708 1478 OFFCURVE",
"726 1493 OFFCURVE",
"757 1493 CURVE SMOOTH"
);
}
);
width = 1500;
}
);
unicode = 0027;
},
{
glyphname = parenleft;
lastChange = "2013-06-12 15:10:19 -0400";
layers = (
{
layerId = "6B6936E6-7670-4A82-900D-EAF583C971AF";
name = Regular;
paths = (
{
closed = 1;
nodes = (
"965 1553 LINE SMOOTH",
"1004 1550 OFFCURVE",
"1016 1524 OFFCURVE",
"994 1490 CURVE SMOOTH",
"813 1220 OFFCURVE",
"712 950 OFFCURVE",
"700 663 CURVE",
"712 375 OFFCURVE",
"739 89 OFFCURVE",
"866 -208 CURVE SMOOTH",
"882 -245 OFFCURVE",
"866 -268 OFFCURVE",
"827 -266 CURVE SMOOTH",
"725 -259 LINE SMOOTH",
"697 -257 OFFCURVE",
"679 -244 OFFCURVE",
"669 -218 CURVE SMOOTH",
"548 97 OFFCURVE",
"496 393 OFFCURVE",
"496 680 CURVE",
"520 966 OFFCURVE",
"636 1244 OFFCURVE",
"849 1530 CURVE SMOOTH",
"866 1552 OFFCURVE",
"885 1560 OFFCURVE",
"912 1558 CURVE SMOOTH"
);
}
);
width = 1500;
}
);
unicode = 0028;
},
{
glyphname = parenright;
lastChange = "2013-06-12 15:10:19 -0400";
layers = (
{
layerId = "6B6936E6-7670-4A82-900D-EAF583C971AF";
name = Regular;
paths = (
{
closed = 1;
nodes = (
"746 1576 LINE SMOOTH",
"773 1574 OFFCURVE",
"791 1563 OFFCURVE",
"803 1538 CURVE SMOOTH",
"960 1220 OFFCURVE",
"1003 925 OFFCURVE",
"1004 640 CURVE SMOOTH",
"1004 353 OFFCURVE",
"868 75 OFFCURVE",
"716 -208 CURVE SMOOTH",
"702 -233 OFFCURVE",
"683 -243 OFFCURVE",
"655 -241 CURVE SMOOTH",
"537 -234 LINE SMOOTH",
"497 -232 OFFCURVE",
"484 -206 OFFCURVE",
"506 -172 CURVE SMOOTH",
"685 98 OFFCURVE",
"784 370 OFFCURVE",
"810 657 CURVE",
"810 944 OFFCURVE",
"779 1227 OFFCURVE",
"654 1524 CURVE SMOOTH",
"638 1561 OFFCURVE",
"654 1585 OFFCURVE",
"694 1581 CURVE SMOOTH"
);
}
);
width = 1500;
}
);
unicode = 0029;
},
{
glyphname = asterisk;
lastChange = "2013-06-12 15:10:19 -0400";
layers = (
{
layerId = "6B6936E6-7670-4A82-900D-EAF583C971AF";
name = Regular;
paths = (
{
closed = 1;
nodes = (
"1191 1289 LINE SMOOTH",
"1195 1260 OFFCURVE",
"1185 1241 OFFCURVE",
"1160 1227 CURVE SMOOTH",
"909 1091 LINE SMOOTH",
"871 1071 OFFCURVE",
"873 1040 OFFCURVE",
"913 1024 CURVE SMOOTH",
"1184 919 LINE SMOOTH",
"1217 906 OFFCURVE",
"1224 880 OFFCURVE",
"1204 851 CURVE SMOOTH",
"1167 799 LINE SMOOTH",
"1149 773 OFFCURVE",
"1125 769 OFFCURVE",
"1098 785 CURVE SMOOTH",
"869 923 LINE SMOOTH",
"833 945 OFFCURVE",
"807 928 OFFCURVE",
"812 886 CURVE SMOOTH",
"838 664 LINE SMOOTH",
"841 632 OFFCURVE",
"827 613 OFFCURVE",
"796 607 CURVE SMOOTH",
"743 597 LINE SMOOTH",
"709 590 OFFCURVE",
"689 607 OFFCURVE",
"689 642 CURVE SMOOTH",
"689 884 LINE SMOOTH",
"689 927 OFFCURVE",
"661 940 OFFCURVE",
"628 913 CURVE SMOOTH",
"433 753 LINE SMOOTH",
"407 732 OFFCURVE",
"382 735 OFFCURVE",
"363 762 CURVE SMOOTH",
"326 815 LINE SMOOTH",
"306 842 OFFCURVE",
"312 867 OFFCURVE",
"342 883 CURVE SMOOTH",
"584 1015 LINE SMOOTH",
"622 1035 OFFCURVE",
"620 1067 OFFCURVE",
"580 1082 CURVE SMOOTH",
"317 1187 LINE SMOOTH",
"284 1199 OFFCURVE",
"276 1224 OFFCURVE",
"295 1254 CURVE SMOOTH",
"327 1304 LINE SMOOTH",
"344 1331 OFFCURVE",
"368 1337 OFFCURVE",
"395 1320 CURVE SMOOTH",
"623 1183 LINE SMOOTH",
"659 1161 OFFCURVE",
"685 1178 OFFCURVE",
"680 1220 CURVE SMOOTH",
"655 1434 LINE SMOOTH",
"651 1464 OFFCURVE",
"664 1484 OFFCURVE",
"694 1492 CURVE SMOOTH",
"747 1506 LINE SMOOTH",
"782 1514 OFFCURVE",
"803 1498 OFFCURVE",
"803 1462 CURVE SMOOTH",
"803 1215 LINE SMOOTH",
"803 1174 OFFCURVE",
"829 1160 OFFCURVE",
"863 1182 CURVE SMOOTH",
"1124 1351 LINE SMOOTH",
"1157 1372 OFFCURVE",
"1182 1360 OFFCURVE",
"1187 1321 CURVE SMOOTH"
);
}
);
width = 1500;
}
);
unicode = 002A;
},
{
glyphname = plus;
lastChange = "2013-06-12 15:10:19 -0400";
layers = (
{
layerId = "6B6936E6-7670-4A82-900D-EAF583C971AF";
name = Regular;
paths = (
{
closed = 1;
nodes = (
"784 1284 LINE SMOOTH",
"816 1284 OFFCURVE",
"834 1267 OFFCURVE",
"834 1234 CURVE SMOOTH",
"834 777 LINE SMOOTH",
"834 745 OFFCURVE",
"851 727 OFFCURVE",
"884 727 CURVE SMOOTH",
"1341 727 LINE SMOOTH",
"1373 727 OFFCURVE",
"1391 710 OFFCURVE",
"1391 677 CURVE SMOOTH",
"1391 607 LINE SMOOTH",
"1391 575 OFFCURVE",
"1374 557 OFFCURVE",
"1341 557 CURVE SMOOTH",
"884 557 LINE SMOOTH",
"852 557 OFFCURVE",
"834 540 OFFCURVE",
"834 507 CURVE SMOOTH",
"834 50 LINE SMOOTH",
"834 18 OFFCURVE",
"816 0 OFFCURVE",
"784 0 CURVE SMOOTH",
"716 0 LINE SMOOTH",
"684 0 OFFCURVE",
"666 17 OFFCURVE",
"666 50 CURVE SMOOTH",
"666 507 LINE SMOOTH",
"666 540 OFFCURVE",
"649 557 OFFCURVE",
"616 557 CURVE SMOOTH",
"159 557 LINE SMOOTH",
"127 557 OFFCURVE",
"109 574 OFFCURVE",
"109 607 CURVE SMOOTH",
"109 677 LINE SMOOTH",
"109 710 OFFCURVE",
"126 727 OFFCURVE",
"159 727 CURVE SMOOTH",
"616 727 LINE SMOOTH",
"649 727 OFFCURVE",
"666 744 OFFCURVE",
"666 777 CURVE SMOOTH",
"666 1234 LINE SMOOTH",
"666 1266 OFFCURVE",
"683 1284 OFFCURVE",
"716 1284 CURVE SMOOTH"
);
}
);
width = 1500;
}
);
unicode = 002B;
},
{
glyphname = comma;
lastChange = "2013-06-12 15:10:19 -0400";
layers = (
{
anchors = (
{
name = _comma;
position = "{796, 244}";
}
);
layerId = "6B6936E6-7670-4A82-900D-EAF583C971AF";
name = Regular;
paths = (
{
closed = 1;
nodes = (
"668 194 LINE SMOOTH",
"668 227 OFFCURVE",
"685 244 OFFCURVE",
"718 244 CURVE SMOOTH",
"869 244 LINE SMOOTH",
"902 244 OFFCURVE",
"919 227 OFFCURVE",
"919 194 CURVE SMOOTH",
"919 66 LINE SMOOTH",
"919 42 OFFCURVE",
"914 24 OFFCURVE",
"899 4 CURVE SMOOTH",
"717 -257 LINE SMOOTH",
"702 -279 OFFCURVE",
"683 -288 OFFCURVE",
"657 -288 CURVE SMOOTH",
"626 -288 LINE SMOOTH",
"589 -288 OFFCURVE",
"573 -266 OFFCURVE",
"584 -231 CURVE SMOOTH",
"659 2 LINE SMOOTH",
"665 24 OFFCURVE",
"668 40 OFFCURVE",
"668 63 CURVE SMOOTH"
);
}
);
width = 1500;
}
);
unicode = 002C;
},
{
glyphname = hyphen;
lastChange = "2013-06-12 15:10:19 -0400";
layers = (
{
anchors = (
{
name = _bottom;
position = "{766, 74}";
}
);
layerId = "6B6936E6-7670-4A82-900D-EAF583C971AF";
name = Regular;
paths = (
{
closed = 1;
nodes = (
"470 499 OFFCURVE",
"487 479 OFFCURVE",
"522 480 CURVE SMOOTH",
"960 487 LINE SMOOTH",
"991 488 OFFCURVE",
"1008 503 OFFCURVE",
"1013 534 CURVE SMOOTH",
"1025 609 LINE SMOOTH",
"1030 643 OFFCURVE",
"1013 663 OFFCURVE",
"978 662 CURVE SMOOTH",
"540 654 LINE SMOOTH",
"509 653 OFFCURVE",
"492 638 OFFCURVE",
"487 608 CURVE SMOOTH",
"475 533 LINE SMOOTH"
);
}
);
width = 1500;
}
);
unicode = 002D;
},
{
glyphname = period;
lastChange = "2013-06-12 15:10:19 -0400";
layers = (
{
layerId = "6B6936E6-7670-4A82-900D-EAF583C971AF";
name = Regular;
paths = (
{
closed = 1;
nodes = (
"607 284 LINE SMOOTH",
"609 315 OFFCURVE",
"627 332 OFFCURVE",
"659 332 CURVE SMOOTH",
"857 332 LINE SMOOTH",
"891 332 OFFCURVE",
"908 314 OFFCURVE",
"906 281 CURVE SMOOTH",
"892 48 LINE SMOOTH",
"890 17 OFFCURVE",
"872 0 OFFCURVE",
"840 0 CURVE SMOOTH",
"642 0 LINE SMOOTH",
"608 0 OFFCURVE",
"591 18 OFFCURVE",
"593 51 CURVE SMOOTH"
);
}
);
width = 1500;
}
);
unicode = 002E;
},
{
glyphname = slash;
lastChange = "2013-06-12 15:10:19 -0400";
layers = (
{
layerId = "6B6936E6-7670-4A82-900D-EAF583C971AF";
name = Regular;
paths = (
{
closed = 1;
nodes = (
"949 1433 LINE SMOOTH",
"958 1461 OFFCURVE",
"977 1474 OFFCURVE",
"1006 1473 CURVE SMOOTH",
"1055 1471 LINE SMOOTH",
"1091 1470 OFFCURVE",
"1107 1448 OFFCURVE",
"1097 1414 CURVE SMOOTH",
"628 -156 LINE SMOOTH",
"619 -184 OFFCURVE",
"601 -197 OFFCURVE",
"571 -196 CURVE SMOOTH",
"444 -192 LINE SMOOTH",
"408 -191 OFFCURVE",
"393 -168 OFFCURVE",
"404 -134 CURVE SMOOTH"
);
}
);
width = 1500;
}
);
unicode = 002F;
},
{
color = 6;
glyphname = zero;
lastChange = "2013-06-15 13:23:36 -0400";
layers = (
{
layerId = "6B6936E6-7670-4A82-900D-EAF583C971AF";
name = Regular;
paths = (
{
closed = 1;
nodes = (
"552 1440 OFFCURVE",
"447 1257 OFFCURVE",
"447 890 CURVE SMOOTH",
"447 511 OFFCURVE",
"532 341 OFFCURVE",
"740 341 CURVE SMOOTH",
"949 341 OFFCURVE",
"1047 525 OFFCURVE",
"1074 890 CURVE",
"1074 1257 OFFCURVE",
"969 1440 OFFCURVE",
"760 1440 CURVE SMOOTH"
);
},
{
closed = 1;
nodes = (
"1095 1520 OFFCURVE",
"1266 1249 OFFCURVE",
"1266 745 CURVE SMOOTH",
"1253 242 OFFCURVE",
"1075 -29 OFFCURVE",
"740 -29 CURVE SMOOTH",
"405 -29 OFFCURVE",
"234 242 OFFCURVE",
"234 745 CURVE SMOOTH",
"247 1249 OFFCURVE",
"425 1520 OFFCURVE",
"760 1520 CURVE SMOOTH"
);
},
{
closed = 1;
nodes = (
"835 663 OFFCURVE",
"855 764 OFFCURVE",
"855 839 CURVE SMOOTH",
"855 984 OFFCURVE",
"835 1072 OFFCURVE",
"750 1072 CURVE SMOOTH",
"656 1072 OFFCURVE",
"644 956 OFFCURVE",
"644 839 CURVE SMOOTH",
"644 764 OFFCURVE",
"665 663 OFFCURVE",
"750 663 CURVE SMOOTH"
);
}
);
width = 1500;
}
);
unicode = 0030;
},
{
color = 6;
glyphname = one;
lastChange = "2013-06-12 15:10:19 -0400";
layers = (
{
layerId = "6B6936E6-7670-4A82-900D-EAF583C971AF";
name = Regular;
paths = (
{
closed = 1;
nodes = (
"335 230 LINE SMOOTH",
"335 263 OFFCURVE",
"353 280 OFFCURVE",
"385 280 CURVE SMOOTH",
"615 280 LINE SMOOTH",
"648 280 OFFCURVE",
"665 298 OFFCURVE",
"665 330 CURVE SMOOTH",
"665 1253 LINE SMOOTH",
"665 1288 OFFCURVE",
"645 1305 OFFCURVE",
"610 1298 CURVE SMOOTH",
"361 1248 LINE SMOOTH",
"326 1241 OFFCURVE",
"306 1258 OFFCURVE",
"306 1293 CURVE SMOOTH",
"306 1376 LINE SMOOTH",
"306 1406 OFFCURVE",
"321 1424 OFFCURVE",
"351 1430 CURVE SMOOTH",
"633 1487 LINE SMOOTH",
"655 1491 OFFCURVE",
"671 1493 OFFCURVE",
"693 1493 CURVE SMOOTH",
"815 1493 LINE SMOOTH",
"848 1493 OFFCURVE",
"865 1476 OFFCURVE",
"865 1443 CURVE SMOOTH",
"865 330 LINE SMOOTH",
"865 298 OFFCURVE",
"883 280 OFFCURVE",
"915 280 CURVE SMOOTH",
"1145 280 LINE SMOOTH",
"1178 280 OFFCURVE",
"1195 263 OFFCURVE",
"1195 230 CURVE SMOOTH",
"1195 50 LINE SMOOTH",
"1195 18 OFFCURVE",
"1177 0 OFFCURVE",
"1145 0 CURVE SMOOTH",
"385 0 LINE SMOOTH",
"353 0 OFFCURVE",
"335 18 OFFCURVE",
"335 50 CURVE SMOOTH"
);
}
);
width = 1500;
}
);
unicode = 0031;
},
{
color = 6;
glyphname = two;
lastChange = "2013-06-12 15:10:19 -0400";
layers = (
{
layerId = "6B6936E6-7670-4A82-900D-EAF583C971AF";
name = Regular;
paths = (
{
closed = 1;
nodes = (
"1174 290 LINE SMOOTH",
"1207 290 OFFCURVE",
"1224 273 OFFCURVE",
"1224 240 CURVE SMOOTH",
"1224 50 LINE SMOOTH",
"1224 18 OFFCURVE",
"1206 0 OFFCURVE",
"1174 0 CURVE SMOOTH",
"326 0 LINE SMOOTH",
"294 0 OFFCURVE",
"276 17 OFFCURVE",
"276 50 CURVE SMOOTH",
"276 253 LINE SMOOTH",
"276 279 OFFCURVE",
"284 297 OFFCURVE",
"305 314 CURVE SMOOTH",
"401 393 OFFCURVE",
"503 473 OFFCURVE",
"611 555 CURVE SMOOTH",
"847 735 OFFCURVE",
"923 832 OFFCURVE",
"975 933 CURVE SMOOTH",
"1000 983 OFFCURVE",
"1013 1032 OFFCURVE",
"1013 1081 CURVE SMOOTH",
"1013 1240 OFFCURVE",
"891 1350 OFFCURVE",
"712 1350 CURVE SMOOTH",
"601 1350 OFFCURVE",
"481 1316 OFFCURVE",
"346 1249 CURVE SMOOTH",
"310 1231 OFFCURVE",
"286 1245 OFFCURVE",
"286 1284 CURVE SMOOTH",
"286 1379 LINE SMOOTH",
"286 1408 OFFCURVE",
"299 1426 OFFCURVE",
"326 1436 CURVE SMOOTH",
"472 1491 OFFCURVE",
"601 1520 OFFCURVE",
"708 1520 CURVE SMOOTH",
"1017 1520 OFFCURVE",
"1216 1353 OFFCURVE",
"1216 1094 CURVE SMOOTH",
"1216 971 OFFCURVE",
"1177 874 OFFCURVE",
"1056 725 CURVE",
"1039 706 OFFCURVE",
"986 650 OFFCURVE",
"897 558 CURVE SMOOTH",
"827 485 OFFCURVE",
"778 415 OFFCURVE",
"749 347 CURVE SMOOTH",
"734 313 OFFCURVE",
"753 290 OFFCURVE",
"790 290 CURVE SMOOTH"
);
}
);
width = 1500;
}
);
unicode = 0032;
},
{
color = 6;
glyphname = three;
lastChange = "2013-06-12 15:10:19 -0400";
layers = (
{
layerId = "6B6936E6-7670-4A82-900D-EAF583C971AF";
name = Regular;
paths = (
{
closed = 1;
nodes = (
"1148 763 OFFCURVE",
"1242 628 OFFCURVE",
"1242 454 CURVE SMOOTH",
"1242 133 OFFCURVE",
"1031 -29 OFFCURVE",
"658 -29 CURVE SMOOTH",
"545 -29 OFFCURVE",
"426 -9 OFFCURVE",
"300 31 CURVE SMOOTH",
"272 40 OFFCURVE",
"259 59 OFFCURVE",
"259 88 CURVE SMOOTH",
"259 294 LINE SMOOTH",
"259 333 OFFCURVE",
"282 346 OFFCURVE",
"317 330 CURVE SMOOTH",
"417 285 OFFCURVE",
"531 261 OFFCURVE",
"652 261 CURVE SMOOTH",
"779 261 OFFCURVE",
"875 289 OFFCURVE",
"942 346 CURVE SMOOTH",
"1008 403 OFFCURVE",
"1041 449 OFFCURVE",
"1041 484 CURVE SMOOTH",
"1041 620 OFFCURVE",
"911 735 OFFCURVE",
"691 735 CURVE SMOOTH",
"567 735 LINE SMOOTH",
"535 735 OFFCURVE",
"517 752 OFFCURVE",
"517 785 CURVE SMOOTH",
"517 851 LINE SMOOTH",
"517 884 OFFCURVE",
"535 901 OFFCURVE",
"567 901 CURVE SMOOTH",
"699 901 LINE SMOOTH",
"898 901 OFFCURVE",
"1006 983 OFFCURVE",
"1006 1132 CURVE SMOOTH",
"1006 1285 OFFCURVE",
"894 1370 OFFCURVE",
"691 1370 CURVE SMOOTH",
"594 1370 OFFCURVE",
"488 1353 OFFCURVE",
"361 1314 CURVE SMOOTH",
"326 1304 OFFCURVE",
"304 1319 OFFCURVE",
"304 1355 CURVE SMOOTH",
"304 1412 LINE SMOOTH",
"304 1442 OFFCURVE",
"318 1460 OFFCURVE",
"347 1468 CURVE SMOOTH",
"482 1503 OFFCURVE",
"601 1520 OFFCURVE",
"709 1520 CURVE SMOOTH",
"1016 1520 OFFCURVE",
"1207 1370 OFFCURVE",
"1207 1133 CURVE SMOOTH",
"1207 985 OFFCURVE",
"1128 873 OFFCURVE",
"984 821 CURVE SMOOTH",
"953 809 OFFCURVE",
"953 805 OFFCURVE",
"986 797 CURVE SMOOTH"
);
}
);
width = 1500;
}
);
unicode = 0033;
},
{
color = 6;
glyphname = four;
lastChange = "2013-06-12 15:10:19 -0400";
layers = (
{
layerId = "6B6936E6-7670-4A82-900D-EAF583C971AF";
name = Regular;
paths = (
{
closed = 1;
nodes = (
"879 1272 LINE SMOOTH",
"879 1322 OFFCURVE",
"845 1332 OFFCURVE",
"818 1290 CURVE SMOOTH",
"409 650 LINE SMOOTH",
"387 616 OFFCURVE",
"401 590 OFFCURVE",
"442 590 CURVE SMOOTH",
"820 590 LINE SMOOTH",
"853 590 OFFCURVE",
"870 607 OFFCURVE",
"871 640 CURVE SMOOTH"
);
},
{
closed = 1;
nodes = (
"806 1460 LINE SMOOTH",
"821 1483 OFFCURVE",
"839 1493 OFFCURVE",
"866 1493 CURVE SMOOTH",
"1031 1493 LINE SMOOTH",
"1064 1493 OFFCURVE",
"1081 1476 OFFCURVE",
"1082 1443 CURVE SMOOTH",
"1090 640 LINE SMOOTH",
"1091 607 OFFCURVE",
"1108 590 OFFCURVE",
"1141 590 CURVE SMOOTH",
"1244 590 LINE SMOOTH",
"1277 590 OFFCURVE",
"1294 572 OFFCURVE",
"1294 540 CURVE SMOOTH",
"1294 472 LINE SMOOTH",
"1294 440 OFFCURVE",
"1277 422 OFFCURVE",
"1244 422 CURVE SMOOTH",
"1142 422 LINE SMOOTH",
"1109 422 OFFCURVE",
"1092 404 OFFCURVE",
"1093 371 CURVE SMOOTH",
"1109 51 LINE SMOOTH",
"1110 18 OFFCURVE",
"1093 0 OFFCURVE",
"1060 0 CURVE SMOOTH",
"891 0 LINE SMOOTH",
"858 0 OFFCURVE",
"841 18 OFFCURVE",
"842 51 CURVE SMOOTH",
"858 371 LINE SMOOTH",
"859 404 OFFCURVE",
"842 422 OFFCURVE",
"809 422 CURVE SMOOTH",
"256 422 LINE SMOOTH",
"224 422 OFFCURVE",
"206 440 OFFCURVE",
"206 472 CURVE SMOOTH",
"206 513 LINE SMOOTH",
"206 538 OFFCURVE",
"211 555 OFFCURVE",
"225 575 CURVE SMOOTH"
);
}
);
width = 1500;
}
);
unicode = 0034;
},
{
color = 6;
glyphname = five;
lastChange = "2013-06-12 15:10:19 -0400";
layers = (
{
layerId = "6B6936E6-7670-4A82-900D-EAF583C971AF";
name = Regular;
paths = (
{
closed = 1;
nodes = (
"330 1443 LINE SMOOTH",
"330 1476 OFFCURVE",
"348 1493 OFFCURVE",
"380 1493 CURVE SMOOTH",
"1073 1493 LINE SMOOTH",
"1106 1493 OFFCURVE",
"1123 1476 OFFCURVE",
"1123 1443 CURVE SMOOTH",
"1123 1393 LINE SMOOTH",
"1123 1361 OFFCURVE",
"1106 1343 OFFCURVE",
"1073 1343 CURVE SMOOTH",
"545 1343 LINE SMOOTH",
"513 1343 OFFCURVE",
"495 1325 OFFCURVE",
"495 1293 CURVE SMOOTH",
"495 1013 LINE SMOOTH",
"495 978 OFFCURVE",
"516 962 OFFCURVE",
"551 970 CURVE SMOOTH",
"605 981 OFFCURVE",
"646 987 OFFCURVE",
"691 987 CURVE SMOOTH",
"1024 987 OFFCURVE",
"1233 791 OFFCURVE",
"1233 479 CURVE SMOOTH",
"1233 158 OFFCURVE",
"1024 -29 OFFCURVE",
"660 -29 CURVE SMOOTH",
"548 -29 OFFCURVE",
"432 -12 OFFCURVE",
"309 23 CURVE SMOOTH",
"281 31 OFFCURVE",
"267 49 OFFCURVE",
"267 79 CURVE SMOOTH",
"267 283 LINE SMOOTH",
"267 321 OFFCURVE",
"290 335 OFFCURVE",
"326 319 CURVE SMOOTH",
"428 274 OFFCURVE",
"536 251 OFFCURVE",
"656 251 CURVE SMOOTH",
"887 251 OFFCURVE",
"1021 408 OFFCURVE",
"1021 509 CURVE SMOOTH",
"1021 717 OFFCURVE",
"887 817 OFFCURVE",
"656 817 CURVE SMOOTH",
"567 817 OFFCURVE",
"479 801 OFFCURVE",
"388 767 CURVE SMOOTH",
"353 754 OFFCURVE",
"330 768 OFFCURVE",
"330 806 CURVE SMOOTH"
);
}
);
width = 1500;
}
);
unicode = 0035;
},
{
color = 6;
glyphname = six;
lastChange = "2013-06-12 15:10:19 -0400";
layers = (
{
layerId = "6B6936E6-7670-4A82-900D-EAF583C971AF";
name = Regular;
paths = (
{
closed = 1;
nodes = (
"587 827 OFFCURVE",
"473 695 OFFCURVE",
"473 479 CURVE SMOOTH",
"473 344 OFFCURVE",
"587 261 OFFCURVE",
"768 261 CURVE SMOOTH",
"949 261 OFFCURVE",
"1063 344 OFFCURVE",
"1063 479 CURVE SMOOTH",
"1063 695 OFFCURVE",
"949 827 OFFCURVE",
"768 827 CURVE SMOOTH"
);
},
{
closed = 1;
nodes = (
"1169 1339 LINE SMOOTH",
"1169 1301 OFFCURVE",
"1146 1287 OFFCURVE",
"1111 1301 CURVE SMOOTH",
"1028 1333 OFFCURVE",
"944 1350 OFFCURVE",
"862 1350 CURVE SMOOTH",
"614 1350 OFFCURVE",
"477 1196 OFFCURVE",
"442 883 CURVE SMOOTH",
"438 840 OFFCURVE",
"454 834 OFFCURVE",
"483 864 CURVE SMOOTH",
"560 944 OFFCURVE",
"663 987 OFFCURVE",
"780 987 CURVE SMOOTH",
"1080 987 OFFCURVE",
"1266 792 OFFCURVE",
"1266 479 CURVE SMOOTH",
"1266 172 OFFCURVE",
"1069 -29 OFFCURVE",
"768 -29 CURVE SMOOTH",
"423 -29 OFFCURVE",
"234 242 OFFCURVE",
"234 745 CURVE SMOOTH",
"234 1217 OFFCURVE",
"477 1520 OFFCURVE",
"854 1520 CURVE SMOOTH",
"943 1520 OFFCURVE",
"1032 1505 OFFCURVE",
"1128 1474 CURVE SMOOTH",
"1156 1465 OFFCURVE",
"1169 1446 OFFCURVE",
"1169 1417 CURVE SMOOTH"
);
}
);
width = 1500;
}
);
unicode = 0036;
},
{
color = 6;
glyphname = seven;
lastChange = "2013-06-12 15:10:19 -0400";
layers = (
{
layerId = "6B6936E6-7670-4A82-900D-EAF583C971AF";
name = Regular;
paths = (
{
closed = 1;
nodes = (
"275 1443 LINE SMOOTH",
"275 1476 OFFCURVE",
"293 1493 OFFCURVE",
"325 1493 CURVE SMOOTH",
"1175 1493 LINE SMOOTH",
"1208 1493 OFFCURVE",
"1225 1475 OFFCURVE",
"1225 1443 CURVE SMOOTH",
"1225 1438 LINE SMOOTH",
"1225 1415 OFFCURVE",
"1224 1399 OFFCURVE",
"1217 1377 CURVE SMOOTH",
"804 43 LINE SMOOTH",
"795 14 OFFCURVE",
"779 0 OFFCURVE",
"749 0 CURVE SMOOTH",
"495 0 LINE SMOOTH",
"457 0 OFFCURVE",
"440 23 OFFCURVE",
"456 58 CURVE SMOOTH",
"1018 1285 LINE SMOOTH",
"1034 1320 OFFCURVE",
"1017 1343 OFFCURVE",
"979 1343 CURVE SMOOTH",
"325 1343 LINE SMOOTH",
"293 1343 OFFCURVE",
"275 1361 OFFCURVE",
"275 1393 CURVE SMOOTH"
);
}
);
width = 1500;
}
);
unicode = 0037;
},
{
color = 6;
glyphname = eight;
lastChange = "2013-06-12 15:10:19 -0400";
layers = (
{
layerId = "6B6936E6-7670-4A82-900D-EAF583C971AF";
name = Regular;
paths = (
{
closed = 1;
nodes = (
"558 729 OFFCURVE",
"441 620 OFFCURVE",
"441 440 CURVE SMOOTH",
"441 340 OFFCURVE",
"558 221 OFFCURVE",
"750 221 CURVE SMOOTH",
"942 221 OFFCURVE",
"1060 341 OFFCURVE",
"1060 440 CURVE SMOOTH",
"1060 620 OFFCURVE",
"943 729 OFFCURVE",
"750 729 CURVE SMOOTH"
);
},
{
closed = 1;
nodes = (
"358 866 OFFCURVE",
"293 981 OFFCURVE",
"293 1133 CURVE SMOOTH",
"293 1345 OFFCURVE",
"454 1500 OFFCURVE",
"750 1500 CURVE SMOOTH",
"1047 1500 OFFCURVE",
"1207 1345 OFFCURVE",
"1207 1133 CURVE SMOOTH",
"1207 981 OFFCURVE",
"1142 866 OFFCURVE",
"1006 812 CURVE SMOOTH",
"974 799 OFFCURVE",
"974 791 OFFCURVE",
"1007 780 CURVE SMOOTH",
"1172 723 OFFCURVE",
"1282 593 OFFCURVE",
"1282 420 CURVE SMOOTH",
"1282 131 OFFCURVE",
"1079 -29 OFFCURVE",
"750 -29 CURVE SMOOTH",
"421 -29 OFFCURVE",
"218 131 OFFCURVE",
"218 420 CURVE SMOOTH",
"218 593 OFFCURVE",
"328 723 OFFCURVE",
"494 779 CURVE SMOOTH",
"527 791 OFFCURVE",
"527 799 OFFCURVE",
"494 812 CURVE SMOOTH"
);
},
{
closed = 1;
nodes = (
"474 1019 OFFCURVE",
"575 928 OFFCURVE",
"750 928 CURVE SMOOTH",
"923 928 OFFCURVE",
"1027 1019 OFFCURVE",
"1027 1174 CURVE SMOOTH",
"1027 1302 OFFCURVE",
"923 1400 OFFCURVE",
"750 1400 CURVE SMOOTH",
"575 1400 OFFCURVE",
"474 1302 OFFCURVE",
"474 1174 CURVE SMOOTH"
);
}
);
width = 1500;
}
);
unicode = 0038;
},
{
color = 6;
glyphname = nine;
lastChange = "2013-06-12 15:10:19 -0400";
layers = (
{
layerId = "6B6936E6-7670-4A82-900D-EAF583C971AF";
name = Regular;
paths = (
{
closed = 1;
nodes = (
"364 190 LINE SMOOTH",
"364 228 OFFCURVE",
"386 256 OFFCURVE",
"422 256 CURVE SMOOTH",
"740 256 OFFCURVE",
"1027 398 OFFCURVE",
"1062 704 CURVE SMOOTH",
"1067 747 OFFCURVE",
"1056 749 OFFCURVE",
"1022 723 CURVE SMOOTH",
"946 665 OFFCURVE",
"807 642 OFFCURVE",
"689 642 CURVE SMOOTH",
"452 642 OFFCURVE",
"266 699 OFFCURVE",
"266 1012 CURVE SMOOTH",
"266 1319 OFFCURVE",
"463 1520 OFFCURVE",
"702 1520 CURVE SMOOTH",
"1048 1520 OFFCURVE",
"1234 1253 OFFCURVE",
"1234 745 CURVE SMOOTH",
"1234 207 OFFCURVE",
"905 -34 OFFCURVE",
"405 -34 CURVE",
"377 -25 OFFCURVE",
"364 -6 OFFCURVE",
"364 23 CURVE SMOOTH"
);
},
{
closed = 1;
nodes = (
"905 870 OFFCURVE",
"1044 904 OFFCURVE",
"1044 1044 CURVE SMOOTH",
"1044 1259 OFFCURVE",
"905 1392 OFFCURVE",
"685 1392 CURVE SMOOTH",
"464 1392 OFFCURVE",
"387 1259 OFFCURVE",
"387 1044 CURVE SMOOTH",
"387 917 OFFCURVE",
"464 870 OFFCURVE",
"685 870 CURVE SMOOTH"
);
}
);
width = 1500;
}
);
unicode = 0039;
},
{
glyphname = colon;
lastChange = "2013-06-12 15:10:19 -0400";
layers = (
{
layerId = "6B6936E6-7670-4A82-900D-EAF583C971AF";
name = Regular;
paths = (
{
closed = 1;
nodes = (
"620 256 LINE SMOOTH",
"620 289 OFFCURVE",
"637 306 OFFCURVE",
"670 306 CURVE SMOOTH",
"831 306 LINE SMOOTH",
"864 306 OFFCURVE",
"881 289 OFFCURVE",
"881 256 CURVE SMOOTH",
"881 50 LINE SMOOTH",
"881 18 OFFCURVE",
"864 0 OFFCURVE",
"831 0 CURVE SMOOTH",
"670 0 LINE SMOOTH",
"638 0 OFFCURVE",
"620 18 OFFCURVE",
"620 50 CURVE SMOOTH"
);
},
{
closed = 1;
nodes = (
"620 1051 LINE SMOOTH",
"620 1084 OFFCURVE",
"637 1101 OFFCURVE",
"670 1101 CURVE SMOOTH",
"831 1101 LINE SMOOTH",
"864 1101 OFFCURVE",
"881 1083 OFFCURVE",
"881 1051 CURVE SMOOTH",
"881 866 LINE SMOOTH",
"881 834 OFFCURVE",
"864 816 OFFCURVE",
"831 816 CURVE SMOOTH",
"670 816 LINE SMOOTH",
"638 816 OFFCURVE",
"620 834 OFFCURVE",
"620 866 CURVE SMOOTH"
);
}
);
width = 1500;
}
);
unicode = 003A;
},
{
glyphname = semicolon;
lastChange = "2013-06-12 15:10:19 -0400";
layers = (
{
layerId = "6B6936E6-7670-4A82-900D-EAF583C971AF";
name = Regular;
paths = (
{
closed = 1;
nodes = (
"666 1046 LINE SMOOTH",
"666 1079 OFFCURVE",
"683 1096 OFFCURVE",
"716 1096 CURVE SMOOTH",
"859 1096 LINE SMOOTH",
"892 1096 OFFCURVE",
"909 1079 OFFCURVE",
"909 1046 CURVE SMOOTH",
"909 853 LINE SMOOTH",
"909 821 OFFCURVE",
"892 803 OFFCURVE",
"859 803 CURVE SMOOTH",
"716 803 LINE SMOOTH",
"684 803 OFFCURVE",
"666 821 OFFCURVE",
"666 853 CURVE SMOOTH"
);
},
{
closed = 1;
nodes = (
"671 168 LINE SMOOTH",
"671 201 OFFCURVE",
"688 218 OFFCURVE",
"721 218 CURVE SMOOTH",
"855 218 LINE SMOOTH",
"888 218 OFFCURVE",
"905 201 OFFCURVE",
"905 168 CURVE SMOOTH",
"905 60 LINE SMOOTH",
"905 36 OFFCURVE",
"901 19 OFFCURVE",
"890 -2 CURVE SMOOTH",
"741 -292 LINE SMOOTH",
"729 -317 OFFCURVE",
"710 -328 OFFCURVE",
"683 -328 CURVE SMOOTH",
"637 -328 LINE SMOOTH",
"602 -328 OFFCURVE",
"585 -307 OFFCURVE",
"594 -272 CURVE SMOOTH",
"663 -3 LINE SMOOTH",
"669 19 OFFCURVE",
"671 35 OFFCURVE",
"671 58 CURVE SMOOTH"
);
}
);
width = 1500;
}
);
unicode = 003B;
},
{
glyphname = less;
lastChange = "2013-06-12 15:10:19 -0400";
layers = (
{
layerId = "6B6936E6-7670-4A82-900D-EAF583C971AF";
name = Regular;
paths = (
{
closed = 1;
nodes = (
"1407 1029 LINE SMOOTH",
"1404 1001 OFFCURVE",
"1390 984 OFFCURVE",
"1362 976 CURVE SMOOTH",
"437 736 LINE SMOOTH",
"392 724 OFFCURVE",
"389 690 OFFCURVE",
"432 671 CURVE SMOOTH",
"1301 276 LINE SMOOTH",
"1328 264 OFFCURVE",
"1339 244 OFFCURVE",
"1336 215 CURVE SMOOTH",
"1324 78 LINE SMOOTH",
"1321 41 OFFCURVE",
"1297 27 OFFCURVE",
"1264 43 CURVE SMOOTH",
"121 573 LINE SMOOTH",
"94 585 OFFCURVE",
"83 605 OFFCURVE",
"86 633 CURVE SMOOTH",
"98 775 LINE SMOOTH",
"101 803 OFFCURVE",
"115 820 OFFCURVE",
"143 828 CURVE SMOOTH",
"1360 1152 LINE SMOOTH",
"1396 1162 OFFCURVE",
"1417 1144 OFFCURVE",
"1414 1107 CURVE SMOOTH"
);
}
);
width = 1500;
}
);
unicode = 003C;
},
{
glyphname = equal;
lastChange = "2013-06-12 15:10:19 -0400";
layers = (
{
layerId = "6B6936E6-7670-4A82-900D-EAF583C971AF";
name = Regular;
paths = (
{
closed = 1;
nodes = (
"109 880 LINE SMOOTH",
"109 912 OFFCURVE",
"126 930 OFFCURVE",
"159 930 CURVE SMOOTH",
"1341 930 LINE SMOOTH",
"1374 930 OFFCURVE",
"1391 912 OFFCURVE",
"1391 880 CURVE SMOOTH",
"1391 812 LINE SMOOTH",
"1391 780 OFFCURVE",
"1374 762 OFFCURVE",
"1341 762 CURVE SMOOTH",
"159 762 LINE SMOOTH",
"127 762 OFFCURVE",
"109 779 OFFCURVE",
"109 812 CURVE SMOOTH"
);
},
{
closed = 1;
nodes = (
"109 502 LINE SMOOTH",
"109 535 OFFCURVE",
"126 552 OFFCURVE",
"159 552 CURVE SMOOTH",
"1341 552 LINE SMOOTH",
"1374 552 OFFCURVE",
"1391 534 OFFCURVE",
"1391 502 CURVE SMOOTH",
"1391 402 LINE SMOOTH",
"1391 370 OFFCURVE",
"1374 352 OFFCURVE",
"1341 352 CURVE SMOOTH",
"159 352 LINE SMOOTH",
"127 352 OFFCURVE",
"109 370 OFFCURVE",
"109 402 CURVE SMOOTH"
);
}
);
width = 1500;
}
);
unicode = 003D;
},
{
glyphname = greater;
lastChange = "2013-06-12 15:10:19 -0400";
layers = (
{
layerId = "6B6936E6-7670-4A82-900D-EAF583C971AF";
name = Regular;
paths = (
{
closed = 1;
nodes = (
"205 1089 LINE SMOOTH",
"178 1101 OFFCURVE",
"167 1121 OFFCURVE",
"170 1150 CURVE SMOOTH",
"177 1228 LINE SMOOTH",
"180 1265 OFFCURVE",
"204 1279 OFFCURVE",
"237 1263 CURVE SMOOTH",
"1379 732 LINE SMOOTH",
"1406 720 OFFCURVE",
"1417 701 OFFCURVE",
"1415 672 CURVE SMOOTH",
"1403 531 LINE SMOOTH",
"1400 502 OFFCURVE",
"1386 485 OFFCURVE",
"1358 477 CURVE SMOOTH",
"140 153 LINE SMOOTH",
"104 143 OFFCURVE",
"83 161 OFFCURVE",
"86 198 CURVE SMOOTH",
"98 335 LINE SMOOTH",
"101 364 OFFCURVE",
"115 381 OFFCURVE",
"143 389 CURVE SMOOTH",
"1066 628 LINE SMOOTH",
"1111 639 OFFCURVE",
"1114 673 OFFCURVE",
"1071 693 CURVE SMOOTH"
);
}
);
width = 1500;
}
);
unicode = 003E;
},
{
glyphname = question;
lastChange = "2013-06-12 15:10:19 -0400";
layers = (
{
layerId = "6B6936E6-7670-4A82-900D-EAF583C971AF";
name = Regular;
paths = (
{
closed = 1;
nodes = (
"541 224 LINE SMOOTH",
"541 257 OFFCURVE",
"558 274 OFFCURVE",
"591 274 CURVE SMOOTH",
"754 274 LINE SMOOTH",
"787 274 OFFCURVE",
"804 256 OFFCURVE",
"804 224 CURVE SMOOTH",
"804 40 LINE SMOOTH",
"804 8 OFFCURVE",
"787 -10 OFFCURVE",
"754 -10 CURVE SMOOTH",
"591 -10 LINE SMOOTH",
"559 -10 OFFCURVE",
"541 8 OFFCURVE",
"541 40 CURVE SMOOTH"
);
},
{
closed = 1;
nodes = (
"808 451 LINE SMOOTH",
"808 419 OFFCURVE",
"791 401 OFFCURVE",
"758 401 CURVE SMOOTH",
"597 401 LINE SMOOTH",
"565 401 OFFCURVE",
"547 418 OFFCURVE",
"547 451 CURVE SMOOTH",
"547 555 LINE SMOOTH",
"547 690 OFFCURVE",
"573 767 OFFCURVE",
"693 882 CURVE",
"793 971 LINE",
"880 1042 OFFCURVE",
"923 1079 OFFCURVE",
"943 1128 CURVE SMOOTH",
"951 1149 OFFCURVE",
"952 1165 OFFCURVE",
"949 1187 CURVE SMOOTH",
"934 1294 OFFCURVE",
"844 1386 OFFCURVE",
"712 1386 CURVE SMOOTH",
"624 1386 OFFCURVE",
"524 1352 OFFCURVE",
"418 1288 CURVE SMOOTH",
"382 1267 OFFCURVE",
"357 1280 OFFCURVE",
"357 1320 CURVE SMOOTH",
"357 1367 LINE SMOOTH",
"357 1395 OFFCURVE",
"367 1413 OFFCURVE",
"391 1427 CURVE SMOOTH",
"506 1489 OFFCURVE",
"623 1520 OFFCURVE",
"747 1520 CURVE SMOOTH",
"992 1520 OFFCURVE",
"1144 1379 OFFCURVE",
"1144 1167 CURVE SMOOTH",
"1144 1066 OFFCURVE",
"1079 983 OFFCURVE",
"972 868 CURVE SMOOTH",
"914 804 LINE SMOOTH",
"899 788 OFFCURVE",
"890 775 OFFCURVE",
"878 755 CURVE SMOOTH",
"867 737 OFFCURVE",
"857 721 OFFCURVE",
"848 709 CURVE SMOOTH",
"822 673 OFFCURVE",
"815 646 OFFCURVE",
"811 606 CURVE SMOOTH",
"809 586 OFFCURVE",
"808 559 OFFCURVE",
"808 524 CURVE SMOOTH"
);
}
);
width = 1500;
}
);
unicode = 003F;
},
{
glyphname = at;
lastChange = "2013-06-12 15:10:19 -0400";
layers = (
{
layerId = "6B6936E6-7670-4A82-900D-EAF583C971AF";
name = Regular;
paths = (
{
closed = 1;
nodes = (
"462 448 OFFCURVE",
"563 345 OFFCURVE",
"728 345 CURVE SMOOTH",
"892 345 OFFCURVE",
"992 450 OFFCURVE",
"992 619 CURVE SMOOTH",
"992 786 OFFCURVE",
"889 892 OFFCURVE",
"726 892 CURVE SMOOTH",
"565 892 OFFCURVE",
"462 787 OFFCURVE",
"462 619 CURVE SMOOTH"
);
},
{
closed = 1;
nodes = (
"1037 155 LINE SMOOTH",
"1037 199 OFFCURVE",
"1013 207 OFFCURVE",
"980 177 CURVE SMOOTH",
"910 116 OFFCURVE",
"825 88 OFFCURVE",
"719 88 CURVE SMOOTH",
"490 88 OFFCURVE",
"332 270 OFFCURVE",
"332 537 CURVE SMOOTH",
"332 804 OFFCURVE",
"491 987 OFFCURVE",
"719 987 CURVE SMOOTH",
"825 987 OFFCURVE",
"910 957 OFFCURVE",
"980 896 CURVE SMOOTH",
"1013 867 OFFCURVE",
"1037 875 OFFCURVE",
"1037 919 CURVE SMOOTH",
"1037 943 LINE SMOOTH",
"1037 959 OFFCURVE",
"1055 967 OFFCURVE",
"1087 967 CURVE SMOOTH",
"1130 967 LINE SMOOTH",
"1163 967 OFFCURVE",
"1180 949 OFFCURVE",
"1180 917 CURVE SMOOTH",
"1180 287 LINE SMOOTH",
"1180 252 OFFCURVE",
"1201 233 OFFCURVE",
"1235 243 CURVE SMOOTH",
"1397 292 OFFCURVE",
"1491 440 OFFCURVE",
"1491 653 CURVE SMOOTH",
"1491 796 OFFCURVE",
"1449 921 OFFCURVE",
"1364 1028 CURVE SMOOTH",
"1225 1203 OFFCURVE",
"1020 1298 OFFCURVE",
"785 1298 CURVE SMOOTH",
"621 1298 OFFCURVE",
"468 1254 OFFCURVE",
"340 1169 CURVE SMOOTH",
"131 1033 OFFCURVE",
"6 800 OFFCURVE",
"6 543 CURVE SMOOTH",
"6 331 OFFCURVE",
"78 231 OFFCURVE",
"250 50 CURVE SMOOTH",
"390 -89 OFFCURVE",
"559 -133 OFFCURVE",
"768 -133 CURVE SMOOTH",
"922 -133 OFFCURVE",
"1076 -93 OFFCURVE",
"1206 -7 CURVE SMOOTH",
"1235 13 OFFCURVE",
"1259 7 OFFCURVE",
"1274 -24 CURVE SMOOTH",
"1320 -115 LINE SMOOTH",
"1333 -142 OFFCURVE",
"1328 -165 OFFCURVE",
"1303 -183 CURVE SMOOTH",
"1144 -295 OFFCURVE",
"956 -356 OFFCURVE",
"768 -356 CURVE SMOOTH",
"521 -356 OFFCURVE",
"298 -267 OFFCURVE",
"127 -100 CURVE SMOOTH",
"-44 67 OFFCURVE",
"-135 291 OFFCURVE",
"-135 543 CURVE SMOOTH",
"-135 786 OFFCURVE",
"-41 1013 OFFCURVE",
"127 1180 CURVE SMOOTH",
"299 1349 OFFCURVE",
"531 1442 OFFCURVE",
"783 1442 CURVE SMOOTH",
"1066 1442 OFFCURVE",
"1317 1321 OFFCURVE",
"1481 1108 CURVE SMOOTH",
"1581 977 OFFCURVE",
"1635 821 OFFCURVE",
"1635 657 CURVE SMOOTH",
"1635 323 OFFCURVE",
"1431 112 OFFCURVE",
"1089 87 CURVE SMOOTH",
"1055 84 OFFCURVE",
"1037 97 OFFCURVE",
"1037 120 CURVE SMOOTH"
);
}
);
width = 1500;
}
);
unicode = 0040;
},
{
color = 6;
glyphname = A;
lastChange = "2013-06-12 15:10:19 -0400";
layers = (
{
anchors = (
{
name = dotbelowcomb;
position = "{763, 15}";
},
{
name = ogonek;
position = "{1219, 0}";
},
{
name = top;
position = "{761, 1395}";
}
);
layerId = "6B6936E6-7670-4A82-900D-EAF583C971AF";
name = Regular;
paths = (
{
closed = 1;
nodes = (
"782 1212 LINE SMOOTH",
"767 1257 OFFCURVE",
"733 1257 OFFCURVE",
"718 1212 CURVE SMOOTH",
"495 538 LINE SMOOTH",
"483 503 OFFCURVE",
"499 481 OFFCURVE",
"536 481 CURVE SMOOTH",
"965 481 LINE SMOOTH",
"1002 481 OFFCURVE",
"1018 503 OFFCURVE",
"1006 538 CURVE SMOOTH"
);
},
{
closed = 1;
nodes = (
"641 1454 LINE SMOOTH",
"651 1481 OFFCURVE",
"669 1493 OFFCURVE",
"698 1493 CURVE SMOOTH",
"803 1493 LINE SMOOTH",
"832 1493 OFFCURVE",
"850 1481 OFFCURVE",
"860 1454 CURVE SMOOTH",
"1411 58 LINE SMOOTH",
"1425 23 OFFCURVE",
"1409 0 OFFCURVE",
"1372 0 CURVE SMOOTH",
"1189 0 LINE SMOOTH",
"1159 0 OFFCURVE",
"1141 14 OFFCURVE",
"1134 44 CURVE SMOOTH",
"1098 199 LINE SMOOTH",
"1091 229 OFFCURVE",
"1073 243 OFFCURVE",
"1043 243 CURVE SMOOTH",
"458 243 LINE SMOOTH",
"429 243 OFFCURVE",
"411 230 OFFCURVE",
"402 202 CURVE SMOOTH",
"352 41 LINE SMOOTH",
"343 13 OFFCURVE",
"325 0 OFFCURVE",
"296 0 CURVE SMOOTH",
"128 0 LINE SMOOTH",
"91 0 OFFCURVE",
"75 23 OFFCURVE",
"89 58 CURVE SMOOTH"
);
}
);
width = 1500;
}
);
unicode = 0041;
},
{
color = 6;
glyphname = B;
lastChange = "2013-06-12 15:10:19 -0400";
layers = (
{
anchors = (
{
name = bottom;
position = "{695, -65}";
}
);
layerId = "6B6936E6-7670-4A82-900D-EAF583C971AF";
name = Regular;
paths = (
{
closed = 1;
nodes = (
"463 713 LINE SMOOTH",
"431 713 OFFCURVE",
"413 696 OFFCURVE",
"413 663 CURVE SMOOTH",
"413 346 LINE SMOOTH",
"413 314 OFFCURVE",
"430 296 OFFCURVE",
"463 296 CURVE SMOOTH",
"737 296 LINE SMOOTH",
"954 296 OFFCURVE",
"1057 345 OFFCURVE",
"1057 530 CURVE SMOOTH",
"1057 563 OFFCURVE",
"1031 602 OFFCURVE",
"979 647 CURVE SMOOTH",
"926 691 OFFCURVE",
"846 713 OFFCURVE",
"737 713 CURVE SMOOTH"
);
},
{
closed = 1;
nodes = (
"463 1357 LINE SMOOTH",
"431 1357 OFFCURVE",
"413 1339 OFFCURVE",
"413 1307 CURVE SMOOTH",
"413 927 LINE SMOOTH",
"413 895 OFFCURVE",
"430 877 OFFCURVE",
"463 877 CURVE SMOOTH",
"712 877 LINE SMOOTH",
"909 877 OFFCURVE",
"1005 950 OFFCURVE",
"1005 1102 CURVE SMOOTH",
"1005 1253 OFFCURVE",
"909 1357 OFFCURVE",
"712 1357 CURVE SMOOTH"
);
},
{
closed = 1;
nodes = (
"210 1443 LINE SMOOTH",
"210 1476 OFFCURVE",
"228 1493 OFFCURVE",
"261 1493 CURVE SMOOTH",
"677 1493 LINE SMOOTH",
"985 1493 OFFCURVE",
"1158 1360 OFFCURVE",
"1158 1124 CURVE SMOOTH",
"1158 961 OFFCURVE",
"1089 857 OFFCURVE",
"958 817 CURVE SMOOTH",
"926 807 OFFCURVE",
"926 802 OFFCURVE",
"959 795 CURVE SMOOTH",
"1187 742 OFFCURVE",
"1290 607 OFFCURVE",
"1290 418 CURVE SMOOTH",
"1290 151 OFFCURVE",
"1082 0 OFFCURVE",
"747 0 CURVE SMOOTH",
"261 0 LINE SMOOTH",
"228 0 OFFCURVE",
"210 18 OFFCURVE",
"210 50 CURVE SMOOTH"
);
}
);
width = 1500;
}
);
unicode = 0042;
},
{
color = 6;
glyphname = C;
lastChange = "2013-06-12 15:10:19 -0400";
layers = (
{
anchors = (
{
name = bottom;
position = "{781, 0}";
},
{
name = top;
position = "{781, 1493}";
}
);
layerId = "6B6936E6-7670-4A82-900D-EAF583C971AF";
name = Regular;
paths = (
{
closed = 1;
nodes = (
"1352 1244 LINE SMOOTH",
"1352 1201 OFFCURVE",
"1326 1190 OFFCURVE",
"1292 1216 CURVE SMOOTH",
"1171 1309 OFFCURVE",
"1037 1354 OFFCURVE",
"889 1354 CURVE SMOOTH",
"548 1354 OFFCURVE",
"361 1140 OFFCURVE",
"361 745 CURVE SMOOTH",
"366 396 OFFCURVE",
"548 277 OFFCURVE",
"889 277 CURVE SMOOTH",
"1037 277 OFFCURVE",
"1171 322 OFFCURVE",
"1292 415 CURVE SMOOTH",
"1326 441 OFFCURVE",
"1352 430 OFFCURVE",
"1352 387 CURVE SMOOTH",
"1352 154 LINE SMOOTH",
"1352 127 OFFCURVE",
"1342 108 OFFCURVE",
"1319 94 CURVE SMOOTH",
"1187 12 OFFCURVE",
"1040 -29 OFFCURVE",
"877 -29 CURVE SMOOTH",
"425 -29 OFFCURVE",
"148 266 OFFCURVE",
"148 745 CURVE SMOOTH",
"148 1225 OFFCURVE",
"425 1520 OFFCURVE",
"877 1520 CURVE SMOOTH",
"1042 1520 OFFCURVE",
"1189 1480 OFFCURVE",
"1319 1399 CURVE SMOOTH",
"1343 1385 OFFCURVE",
"1352 1366 OFFCURVE",
"1352 1339 CURVE SMOOTH"
);
}
);
width = 1500;
}
);
unicode = 0043;
},
{
color = 6;
glyphname = D;
lastChange = "2013-06-12 15:10:19 -0400";
layers = (
{
anchors = (
{
name = bottom;
position = "{671, -70}";
},
{
name = center;
position = "{749, 747}";
},
{
name = dotbelowcomb;
position = "{757, -86}";
},
{
name = top;
position = "{749, 1493}";
}
);
layerId = "6B6936E6-7670-4A82-900D-EAF583C971AF";
name = Regular;
paths = (
{
closed = 1;
nodes = (
"437 1327 LINE SMOOTH",
"405 1327 OFFCURVE",
"387 1310 OFFCURVE",
"387 1277 CURVE SMOOTH",
"387 426 LINE SMOOTH",
"387 394 OFFCURVE",
"404 376 OFFCURVE",
"437 376 CURVE SMOOTH",
"631 376 LINE SMOOTH",
"926 376 OFFCURVE",
"1048 457 OFFCURVE",
"1117 738 CURVE SMOOTH",
"1122 760 OFFCURVE",
"1124 776 OFFCURVE",
"1124 799 CURVE SMOOTH",
"1114 1151 OFFCURVE",
"929 1327 OFFCURVE",
"631 1327 CURVE SMOOTH"
);
},
{
closed = 1;
nodes = (
"174 1443 LINE SMOOTH",
"174 1476 OFFCURVE",
"192 1493 OFFCURVE",
"224 1493 CURVE SMOOTH",
"590 1493 LINE SMOOTH",
"1066 1493 OFFCURVE",
"1327 1260 OFFCURVE",
"1327 748 CURVE SMOOTH",
"1327 233 OFFCURVE",
"1063 0 OFFCURVE",
"590 0 CURVE SMOOTH",
"224 0 LINE SMOOTH",
"192 0 OFFCURVE",
"174 18 OFFCURVE",
"174 50 CURVE SMOOTH"
);
}
);
width = 1500;
}
);
unicode = 0044;
},
{
color = 6;
glyphname = E;
lastChange = "2013-06-12 15:10:19 -0400";
layers = (
{
anchors = (
{
name = bottom;
position = "{798, -35}";
},
{
name = ogonek;
position = "{797, 0}";
},
{
name = top;
position = "{718, 1443}";
}
);
layerId = "6B6936E6-7670-4A82-900D-EAF583C971AF";
name = Regular;
paths = (
{
closed = 1;
nodes = (
"269 1443 LINE SMOOTH",
"269 1476 OFFCURVE",
"287 1493 OFFCURVE",
"319 1493 CURVE SMOOTH",
"1163 1493 LINE SMOOTH",
"1196 1493 OFFCURVE",
"1213 1476 OFFCURVE",
"1213 1443 CURVE SMOOTH",
"1213 1373 LINE SMOOTH",
"1213 1341 OFFCURVE",
"1195 1323 OFFCURVE",
"1163 1323 CURVE SMOOTH",
"521 1323 LINE SMOOTH",
"489 1323 OFFCURVE",
"471 1306 OFFCURVE",
"471 1273 CURVE SMOOTH",
"471 931 LINE SMOOTH",
"471 899 OFFCURVE",
"489 881 OFFCURVE",
"521 881 CURVE SMOOTH",
"1132 881 LINE SMOOTH",
"1165 881 OFFCURVE",
"1182 864 OFFCURVE",
"1182 831 CURVE SMOOTH",
"1182 761 LINE SMOOTH",
"1182 729 OFFCURVE",
"1164 711 OFFCURVE",
"1132 711 CURVE SMOOTH",
"521 711 LINE SMOOTH",
"489 711 OFFCURVE",
"471 694 OFFCURVE",
"471 661 CURVE SMOOTH",
"471 360 LINE SMOOTH",
"471 328 OFFCURVE",
"489 310 OFFCURVE",
"521 310 CURVE SMOOTH",
"1181 310 LINE SMOOTH",
"1214 310 OFFCURVE",
"1231 292 OFFCURVE",
"1231 260 CURVE SMOOTH",
"1231 50 LINE SMOOTH",
"1231 18 OFFCURVE",
"1214 0 OFFCURVE",
"1181 0 CURVE SMOOTH",
"319 0 LINE SMOOTH",
"287 0 OFFCURVE",
"269 18 OFFCURVE",
"269 50 CURVE SMOOTH"
);
}
);
width = 1500;
}
);
unicode = 0045;
},
{
color = 6;
glyphname = F;
lastChange = "2013-06-12 15:10:19 -0400";
layers = (
{
layerId = "6B6936E6-7670-4A82-900D-EAF583C971AF";
name = Regular;
paths = (
{
closed = 1;
nodes = (
"360 1444 LINE SMOOTH",
"361 1476 OFFCURVE",
"378 1493 OFFCURVE",
"410 1493 CURVE SMOOTH",
"1129 1493 LINE SMOOTH",
"1162 1493 OFFCURVE",
"1179 1475 OFFCURVE",
"1179 1443 CURVE SMOOTH",
"1179 1363 LINE SMOOTH",
"1179 1331 OFFCURVE",
"1162 1313 OFFCURVE",
"1129 1313 CURVE SMOOTH",
"612 1313 LINE SMOOTH",
"580 1313 OFFCURVE",
"562 1296 OFFCURVE",
"561 1264 CURVE SMOOTH",
"545 934 LINE SMOOTH",
"544 901 OFFCURVE",
"561 883 OFFCURVE",
"594 883 CURVE SMOOTH",
"1075 883 LINE SMOOTH",
"1108 883 OFFCURVE",
"1125 866 OFFCURVE",
"1125 833 CURVE SMOOTH",
"1125 723 LINE SMOOTH",
"1125 691 OFFCURVE",
"1108 673 OFFCURVE",
"1075 673 CURVE SMOOTH",
"604 673 LINE SMOOTH",
"571 673 OFFCURVE",
"554 655 OFFCURVE",
"555 622 CURVE SMOOTH",
"572 51 LINE SMOOTH",
"572 18 OFFCURVE",
"555 0 OFFCURVE",
"522 0 CURVE SMOOTH",
"372 0 LINE SMOOTH",
"339 0 OFFCURVE",
"321 18 OFFCURVE",
"322 51 CURVE SMOOTH"
);
}
);
width = 1500;
}
);
unicode = 0046;
},
{
color = 6;
glyphname = G;
lastChange = "2013-06-12 17:14:15 -0400";
layers = (
{
anchors = (
{
name = bottom;
position = "{725, 0}";
},
{
name = top;
position = "{725, 1493}";
}
);
layerId = "6B6936E6-7670-4A82-900D-EAF583C971AF";
name = Regular;
paths = (
{
closed = 1;
nodes = (
"1122 484 LINE SMOOTH",
"1122 517 OFFCURVE",
"1105 534 OFFCURVE",
"1072 534 CURVE SMOOTH",
"822 534 LINE SMOOTH",
"790 534 OFFCURVE",
"772 552 OFFCURVE",
"772 584 CURVE SMOOTH",
"772 700 LINE SMOOTH",
"772 733 OFFCURVE",
"790 750 OFFCURVE",
"822 750 CURVE SMOOTH",
"1302 750 LINE SMOOTH",
"1335 750 OFFCURVE",
"1352 732 OFFCURVE",
"1352 700 CURVE SMOOTH",
"1352 178 LINE SMOOTH",
"1352 151 OFFCURVE",
"1343 132 OFFCURVE",
"1320 117 CURVE SMOOTH",
"1170 21 OFFCURVE",
"992 -40 OFFCURVE",
"793 -29 CURVE SMOOTH",
"283 0 OFFCURVE",
"148 258 OFFCURVE",
"148 745 CURVE SMOOTH",
"148 1233 OFFCURVE",
"436 1520 OFFCURVE",
"793 1520 CURVE SMOOTH",
"973 1520 OFFCURVE",
"1138 1478 OFFCURVE",
"1279 1398 CURVE SMOOTH",
"1303 1384 OFFCURVE",
"1313 1366 OFFCURVE",
"1313 1339 CURVE SMOOTH",
"1313 1259 LINE SMOOTH",
"1313 1217 OFFCURVE",
"1287 1205 OFFCURVE",
"1253 1230 CURVE SMOOTH",
"1119 1326 OFFCURVE",
"970 1374 OFFCURVE",
"810 1374 CURVE SMOOTH",
"555 1374 OFFCURVE",
"361 1169 OFFCURVE",
"361 765 CURVE",
"374 397 OFFCURVE",
"505 297 OFFCURVE",
"810 297 CURVE SMOOTH",
"930 297 OFFCURVE",
"1035 314 OFFCURVE",
"1094 350 CURVE SMOOTH",
"1116 364 OFFCURVE",
"1122 384 OFFCURVE",
"1122 410 CURVE SMOOTH"
);
}
);
width = 1500;
}
);
unicode = 0047;
},
{
color = 6;
glyphname = H;
lastChange = "2013-06-12 15:10:19 -0400";
layers = (
{
anchors = (
{
name = center;
position = "{750, 747}";
},
{
name = top;
position = "{750, 1493}";
}
);
layerId = "6B6936E6-7670-4A82-900D-EAF583C971AF";
name = Regular;
paths = (
{
closed = 1;
nodes = (
"190 1443 LINE SMOOTH",
"191 1476 OFFCURVE",
"208 1493 OFFCURVE",
"241 1493 CURVE SMOOTH",
"353 1493 LINE SMOOTH",
"386 1493 OFFCURVE",
"403 1475 OFFCURVE",
"403 1443 CURVE SMOOTH",
"403 831 LINE SMOOTH",
"403 799 OFFCURVE",
"420 781 OFFCURVE",
"453 781 CURVE SMOOTH",
"1047 781 LINE SMOOTH",
"1080 781 OFFCURVE",
"1097 798 OFFCURVE",
"1097 831 CURVE SMOOTH",
"1097 1443 LINE SMOOTH",
"1097 1475 OFFCURVE",
"1114 1493 OFFCURVE",
"1147 1493 CURVE SMOOTH",
"1259 1493 LINE SMOOTH",
"1292 1493 OFFCURVE",
"1309 1476 OFFCURVE",
"1310 1443 CURVE SMOOTH",
"1328 50 LINE SMOOTH",
"1329 18 OFFCURVE",
"1311 0 OFFCURVE",
"1279 0 CURVE SMOOTH",
"1147 0 LINE SMOOTH",
"1115 0 OFFCURVE",
"1097 17 OFFCURVE",
"1097 50 CURVE SMOOTH",
"1097 451 LINE SMOOTH",
"1097 484 OFFCURVE",
"1080 501 OFFCURVE",
"1047 501 CURVE SMOOTH",
"453 501 LINE SMOOTH",
"421 501 OFFCURVE",
"403 483 OFFCURVE",
"403 451 CURVE SMOOTH",
"403 50 LINE SMOOTH",
"403 17 OFFCURVE",
"385 0 OFFCURVE",
"353 0 CURVE SMOOTH",
"221 0 LINE SMOOTH",
"189 0 OFFCURVE",
"171 18 OFFCURVE",
"172 50 CURVE SMOOTH"
);
}
);
width = 1500;
}
);
unicode = 0048;
},
{
color = 6;
glyphname = I;
lastChange = "2013-06-12 15:10:19 -0400";
layers = (
{
anchors = (
{
name = ogonek;
position = "{752, 0}";
},
{
name = top;
position = "{760, 1493}";
}
);
layerId = "6B6936E6-7670-4A82-900D-EAF583C971AF";
name = Regular;
paths = (
{
closed = 1;
nodes = (
"658 516 OFFCURVE",
"659 979 OFFCURVE",
"668 1444 CURVE SMOOTH",
"669 1476 OFFCURVE",
"686 1493 OFFCURVE",
"718 1493 CURVE SMOOTH",
"791 1493 LINE SMOOTH",
"824 1493 OFFCURVE",
"841 1476 OFFCURVE",
"842 1443 CURVE SMOOTH",
"848 979 OFFCURVE",
"845 515 OFFCURVE",
"868 51 CURVE SMOOTH",
"870 18 OFFCURVE",
"853 0 OFFCURVE",
"820 0 CURVE SMOOTH",
"681 0 LINE SMOOTH",
"647 0 OFFCURVE",
"630 18 OFFCURVE",
"632 51 CURVE SMOOTH"
);
}
);
width = 1500;
}
);
unicode = 0049;
},
{
color = 6;
glyphname = J;
lastChange = "2013-06-13 20:06:12 -0400";
layers = (
{
anchors = (
{
name = top;
position = "{836, 1493}";
}
);
layerId = "6B6936E6-7670-4A82-900D-EAF583C971AF";
name = Regular;
paths = (
{
closed = 1;
nodes = (
"679 1444 LINE SMOOTH",
"681 1477 OFFCURVE",
"699 1494 OFFCURVE",
"732 1492 CURVE SMOOTH",
"844 1484 LINE SMOOTH",
"876 1482 OFFCURVE",
"892 1464 OFFCURVE",
"891 1432 CURVE SMOOTH",
"829 63 LINE SMOOTH",
"813 -297 OFFCURVE",
"674 -427 OFFCURVE",
"358 -432 CURVE",
"288 -425 LINE SMOOTH",
"257 -422 OFFCURVE",
"241 -404 OFFCURVE",
"240 -373 CURVE SMOOTH",
"238 -147 LINE SMOOTH",
"237 -111 OFFCURVE",
"258 -95 OFFCURVE",
"292 -102 CURVE SMOOTH",
"309 -106 LINE SMOOTH",
"331 -110 OFFCURVE",
"347 -112 OFFCURVE",
"371 -110 CURVE SMOOTH",
"527 -92 OFFCURVE",
"592 -4 OFFCURVE",
"597 76 CURVE SMOOTH"
);
}
);
width = 1500;
}
);
unicode = 004A;
},
{
color = 6;
glyphname = K;
lastChange = "2013-06-12 15:10:19 -0400";
layers = (
{
anchors = (
{
name = bottom;
position = "{714, 0}";
},
{
name = top;
position = "{714, 1493}";
}
);
layerId = "6B6936E6-7670-4A82-900D-EAF583C971AF";
name = Regular;
paths = (
{
closed = 1;
nodes = (
"208 1444 LINE SMOOTH",
"209 1476 OFFCURVE",
"226 1493 OFFCURVE",
"258 1493 CURVE SMOOTH",
"360 1493 LINE SMOOTH",
"393 1493 OFFCURVE",
"410 1475 OFFCURVE",
"409 1442 CURVE SMOOTH",
"394 949 LINE SMOOTH",
"392 904 OFFCURVE",
"422 891 OFFCURVE",
"454 922 CURVE SMOOTH",
"1035 1468 LINE SMOOTH",
"1054 1486 OFFCURVE",
"1071 1493 OFFCURVE",
"1097 1493 CURVE SMOOTH",
"1231 1493 LINE SMOOTH",
"1277 1493 OFFCURVE",
"1289 1463 OFFCURVE",
"1255 1431 CURVE SMOOTH",
"617 832 LINE SMOOTH",
"593 809 OFFCURVE",
"593 784 OFFCURVE",
"616 761 CURVE SMOOTH",
"1313 62 LINE SMOOTH",
"1344 30 OFFCURVE",
"1332 0 OFFCURVE",
"1287 0 CURVE SMOOTH",
"936 0 LINE SMOOTH",
"910 0 OFFCURVE",
"891 9 OFFCURVE",
"876 31 CURVE SMOOTH",
"457 626 LINE SMOOTH",
"428 666 OFFCURVE",
"395 654 OFFCURVE",
"397 605 CURVE SMOOTH",
"428 51 LINE SMOOTH",
"430 18 OFFCURVE",
"413 0 OFFCURVE",
"380 0 CURVE SMOOTH",
"220 0 LINE SMOOTH",
"187 0 OFFCURVE",
"169 18 OFFCURVE",
"170 51 CURVE SMOOTH"
);
}
);
width = 1500;
}
);
unicode = 004B;
},
{
color = 6;
glyphname = L;
lastChange = "2013-06-12 15:10:19 -0400";
layers = (
{
anchors = (
{
name = "_ circumflexbelowcomb";
position = "{725, 0}";
},
{
name = top;
position = "{438, 1493}";
}
);
layerId = "6B6936E6-7670-4A82-900D-EAF583C971AF";
name = Regular;
paths = (
{
closed = 1;
nodes = (
"300 1443 LINE SMOOTH",
"301 1476 OFFCURVE",
"318 1493 OFFCURVE",
"351 1493 CURVE SMOOTH",
"453 1493 LINE SMOOTH",
"485 1493 OFFCURVE",
"503 1475 OFFCURVE",
"503 1443 CURVE SMOOTH",
"493 360 LINE SMOOTH",
"493 328 OFFCURVE",
"511 310 OFFCURVE",
"543 310 CURVE SMOOTH",
"1168 310 LINE SMOOTH",
"1202 310 OFFCURVE",
"1219 292 OFFCURVE",
"1217 258 CURVE SMOOTH",
"1203 48 LINE SMOOTH",
"1201 17 OFFCURVE",
"1183 0 OFFCURVE",
"1152 0 CURVE SMOOTH",
"331 0 LINE SMOOTH",
"299 0 OFFCURVE",
"281 18 OFFCURVE",
"282 50 CURVE SMOOTH"
);
}
);
width = 1500;
}
);
unicode = 004C;
},
{
color = 6;
glyphname = M;
lastChange = "2013-06-15 09:14:23 -0400";
layers = (
{
anchors = (
{
name = _top;
position = "{765, 1413}";
}
);
layerId = "6B6936E6-7670-4A82-900D-EAF583C971AF";
name = Regular;
paths = (
{
closed = 1;
nodes = (
"126 1444 LINE SMOOTH",
"127 1476 OFFCURVE",
"144 1493 OFFCURVE",
"176 1493 CURVE SMOOTH",
"386 1493 LINE SMOOTH",
"415 1493 OFFCURVE",
"434 1481 OFFCURVE",
"444 1454 CURVE SMOOTH",
"716 685 LINE SMOOTH",
"731 644 OFFCURVE",
"768 644 OFFCURVE",
"783 684 CURVE SMOOTH",
"1075 1455 LINE SMOOTH",
"1085 1481 OFFCURVE",
"1105 1493 OFFCURVE",
"1133 1493 CURVE SMOOTH",
"1324 1493 LINE SMOOTH",
"1356 1493 OFFCURVE",
"1373 1476 OFFCURVE",
"1374 1444 CURVE SMOOTH",
"1402 51 LINE SMOOTH",
"1403 18 OFFCURVE",
"1385 0 OFFCURVE",
"1352 0 CURVE SMOOTH",
"1177 0 LINE SMOOTH",
"1144 0 OFFCURVE",
"1127 18 OFFCURVE",
"1128 51 CURVE SMOOTH",
"1160 1122 LINE SMOOTH",
"1162 1166 OFFCURVE",
"1116 1174 OFFCURVE",
"1105 1132 CURVE SMOOTH",
"885 258 LINE SMOOTH",
"878 230 OFFCURVE",
"857 217 OFFCURVE",
"828 217 CURVE SMOOTH",
"671 217 LINE SMOOTH",
"642 217 OFFCURVE",
"621 230 OFFCURVE",
"614 258 CURVE SMOOTH",
"394 1132 LINE SMOOTH",
"383 1174 OFFCURVE",
"337 1166 OFFCURVE",
"339 1122 CURVE SMOOTH",
"371 51 LINE SMOOTH",
"372 18 OFFCURVE",
"355 0 OFFCURVE",
"322 0 CURVE SMOOTH",
"148 0 LINE SMOOTH",
"115 0 OFFCURVE",
"97 18 OFFCURVE",
"98 51 CURVE SMOOTH"
);
}
);
width = 1500;
}
);
unicode = 004D;
},
{
color = 6;
glyphname = N;
lastChange = "2013-06-12 15:10:19 -0400";
layers = (
{
anchors = (
{
name = _;
position = "{762, 0}";
},
{
name = top;
position = "{762, 1493}";
}
);
layerId = "6B6936E6-7670-4A82-900D-EAF583C971AF";
name = Regular;
paths = (
{
closed = 1;
nodes = (
"214 1414 LINE SMOOTH",
"215 1446 OFFCURVE",
"232 1463 OFFCURVE",
"264 1463 CURVE SMOOTH",
"427 1463 LINE SMOOTH",
"455 1463 OFFCURVE",
"473 1452 OFFCURVE",
"486 1428 CURVE SMOOTH",
"1051 390 LINE SMOOTH",
"1075 346 OFFCURVE",
"1111 355 OFFCURVE",
"1112 404 CURVE SMOOTH",
"1138 1444 LINE SMOOTH",
"1139 1476 OFFCURVE",
"1156 1493 OFFCURVE",
"1188 1493 CURVE SMOOTH",
"1275 1493 LINE SMOOTH",
"1308 1493 OFFCURVE",
"1325 1475 OFFCURVE",
"1325 1443 CURVE SMOOTH",
"1325 50 LINE SMOOTH",
"1325 18 OFFCURVE",
"1307 0 OFFCURVE",
"1275 0 CURVE SMOOTH",
"1073 0 LINE SMOOTH",
"1045 0 OFFCURVE",
"1027 11 OFFCURVE",
"1014 36 CURVE SMOOTH",
"436 1127 LINE SMOOTH",
"412 1171 OFFCURVE",
"375 1161 OFFCURVE",
"378 1111 CURVE SMOOTH",
"429 51 LINE SMOOTH",
"430 18 OFFCURVE",
"413 0 OFFCURVE",
"380 0 CURVE SMOOTH",
"226 0 LINE SMOOTH",
"193 0 OFFCURVE",
"175 18 OFFCURVE",
"176 51 CURVE SMOOTH"
);
}
);
width = 1500;
}
);
unicode = 004E;
},
{
color = 6;
glyphname = O;
lastChange = "2013-06-12 17:53:52 -0400";
layers = (
{
anchors = (
{
name = horn;
position = "{1306, 1120}";
},
{
name = top;
position = "{750, 1493}";
}
);
layerId = "6B6936E6-7670-4A82-900D-EAF583C971AF";
name = Regular;
paths = (
{
closed = 1;
nodes = (
"498 1356 OFFCURVE",
"322 1122 OFFCURVE",
"322 745 CURVE SMOOTH",
"322 436 OFFCURVE",
"498 355 OFFCURVE",
"751 355 CURVE SMOOTH",
"1004 355 OFFCURVE",
"1178 436 OFFCURVE",
"1178 745 CURVE SMOOTH",
"1178 1122 OFFCURVE",
"1004 1356 OFFCURVE",
"751 1356 CURVE SMOOTH"
);
},
{
closed = 1;
nodes = (
"1130 1520 OFFCURVE",
"1391 1217 OFFCURVE",
"1391 745 CURVE SMOOTH",
"1391 274 OFFCURVE",
"1130 -29 OFFCURVE",
"751 -29 CURVE SMOOTH",
"371 -29 OFFCURVE",
"109 273 OFFCURVE",
"109 745 CURVE SMOOTH",
"109 1217 OFFCURVE",
"371 1520 OFFCURVE",
"751 1520 CURVE SMOOTH"
);
}
);
width = 1500;
}
);
unicode = 004F;
},
{
color = 6;
glyphname = P;
lastChange = "2013-06-12 15:10:19 -0400";
layers = (
{
layerId = "6B6936E6-7670-4A82-900D-EAF583C971AF";
name = Regular;
paths = (
{
closed = 1;
nodes = (
"563 1407 LINE SMOOTH",
"531 1407 OFFCURVE",
"513 1390 OFFCURVE",
"512 1358 CURVE SMOOTH",
"496 897 LINE SMOOTH",
"495 864 OFFCURVE",
"512 846 OFFCURVE",
"545 846 CURVE SMOOTH",
"767 846 LINE SMOOTH",
"968 846 OFFCURVE",
"1083 947 OFFCURVE",
"1083 1127 CURVE SMOOTH",
"1083 1306 OFFCURVE",
"968 1407 OFFCURVE",
"767 1407 CURVE SMOOTH"
);
},
{
closed = 1;
nodes = (
"300 1444 LINE SMOOTH",
"301 1476 OFFCURVE",
"319 1493 OFFCURVE",
"351 1493 CURVE SMOOTH",
"748 1493 LINE SMOOTH",
"1083 1493 OFFCURVE",
"1256 1339 OFFCURVE",
"1256 1047 CURVE SMOOTH",
"1256 752 OFFCURVE",
"1083 580 OFFCURVE",
"748 580 CURVE SMOOTH",
"553 580 LINE SMOOTH",
"521 580 OFFCURVE",
"503 563 OFFCURVE",
"502 531 CURVE SMOOTH",
"486 49 LINE SMOOTH",
"485 17 OFFCURVE",
"467 0 OFFCURVE",
"435 0 CURVE SMOOTH",
"293 0 LINE SMOOTH",
"260 0 OFFCURVE",
"243 18 OFFCURVE",
"244 51 CURVE SMOOTH"
);
}
);
width = 1500;
}
);
unicode = 0050;
},
{
color = 6;
glyphname = Q;
lastChange = "2013-06-12 17:18:25 -0400";
layers = (
{
layerId = "6B6936E6-7670-4A82-900D-EAF583C971AF";
name = Regular;
paths = (
{
closed = 1;
nodes = (
"463 1356 OFFCURVE",
"287 1122 OFFCURVE",
"287 745 CURVE SMOOTH",
"287 436 OFFCURVE",
"458 401 OFFCURVE",
"578 388 CURVE",
"631 380 LINE SMOOTH",
"701 369 OFFCURVE",
"671 377 OFFCURVE",
"757 506 CURVE SMOOTH",
"774 532 OFFCURVE",
"797 539 OFFCURVE",
"825 525 CURVE SMOOTH",
"905 483 OFFCURVE",
"971 413 OFFCURVE",
"1055 469 CURVE SMOOTH",
"1159 539 OFFCURVE",
"1183 603 OFFCURVE",
"1183 745 CURVE SMOOTH",
"1183 1122 OFFCURVE",
"1009 1356 OFFCURVE",
"736 1356 CURVE SMOOTH"
);
},
{
closed = 1;
nodes = (
"1410 -203 LINE SMOOTH",
"1439 -235 OFFCURVE",
"1426 -264 OFFCURVE",
"1382 -264 CURVE SMOOTH",
"1058 -264 LINE SMOOTH",
"1032 -264 OFFCURVE",
"1014 -256 OFFCURVE",
"997 -236 CURVE SMOOTH",
"835 -53 LINE SMOOTH",
"817 -33 OFFCURVE",
"798 -26 OFFCURVE",
"771 -27 CURVE SMOOTH",
"752 -29 OFFCURVE",
"739 -29 OFFCURVE",
"726 -29 CURVE SMOOTH",
"319 -29 OFFCURVE",
"74 274 OFFCURVE",
"74 745 CURVE SMOOTH",
"74 1217 OFFCURVE",
"336 1520 OFFCURVE",
"736 1520 CURVE SMOOTH",
"1135 1520 OFFCURVE",
"1396 1217 OFFCURVE",
"1396 745 CURVE SMOOTH",
"1396 428 OFFCURVE",
"1287 250 OFFCURVE",
"1179 122 CURVE SMOOTH",
"1160 98 OFFCURVE",
"1160 75 OFFCURVE",
"1181 52 CURVE SMOOTH"
);
}
);
width = 1500;
}
);
unicode = 0051;
},
{
color = 6;
glyphname = R;
lastChange = "2013-06-12 15:10:19 -0400";
layers = (
{
anchors = (
{
name = bottom;
position = "{672, 0}";
},
{
name = top;
position = "{672, 1493}";
}
);
layerId = "6B6936E6-7670-4A82-900D-EAF583C971AF";
name = Regular;
paths = (
{
closed = 1;
nodes = (
"1005 633 OFFCURVE",
"1070 545 OFFCURVE",
"1138 408 CURVE SMOOTH",
"1313 59 LINE SMOOTH",
"1331 24 OFFCURVE",
"1316 0 OFFCURVE",
"1277 0 CURVE SMOOTH",
"1098 0 LINE SMOOTH",
"1069 0 OFFCURVE",
"1051 12 OFFCURVE",
"1041 39 CURVE SMOOTH",
"905 383 LINE",
"806 583 OFFCURVE",
"732 631 OFFCURVE",
"572 631 CURVE SMOOTH",
"472 631 LINE SMOOTH",
"440 631 OFFCURVE",
"422 614 OFFCURVE",
"422 581 CURVE SMOOTH",
"422 50 LINE SMOOTH",
"422 18 OFFCURVE",
"405 0 OFFCURVE",
"372 0 CURVE SMOOTH",
"230 0 LINE SMOOTH",
"198 0 OFFCURVE",
"180 18 OFFCURVE",
"180 50 CURVE SMOOTH",
"180 1443 LINE SMOOTH",
"180 1476 OFFCURVE",
"197 1493 OFFCURVE",
"230 1493 CURVE SMOOTH",
"636 1493 LINE SMOOTH",
"937 1493 OFFCURVE",
"1114 1351 OFFCURVE",
"1114 1063 CURVE SMOOTH",
"1114 898 OFFCURVE",
"1048 780 OFFCURVE",
"938 721 CURVE SMOOTH",
"907 705 OFFCURVE",
"907 695 OFFCURVE",
"936 677 CURVE SMOOTH"
);
},
{
closed = 1;
nodes = (
"452 1387 LINE SMOOTH",
"420 1387 OFFCURVE",
"402 1369 OFFCURVE",
"402 1337 CURVE SMOOTH",
"402 887 LINE SMOOTH",
"402 855 OFFCURVE",
"419 837 OFFCURVE",
"452 837 CURVE SMOOTH",
"656 837 LINE SMOOTH",
"811 837 OFFCURVE",
"971 942 OFFCURVE",
"971 1063 CURVE SMOOTH",
"971 1318 OFFCURVE",
"811 1387 OFFCURVE",
"656 1387 CURVE SMOOTH"
);
}
);
width = 1500;
}
);
unicode = 0052;
},
{
color = 6;
glyphname = S;
lastChange = "2013-06-12 15:10:19 -0400";
layers = (
{
anchors = (
{
name = bottom;
position = "{732, 0}";
},
{
name = top;
position = "{732, 1493}";
}
);
layerId = "6B6936E6-7670-4A82-900D-EAF583C971AF";
name = Regular;
paths = (
{
closed = 1;
nodes = (
"1186 1311 LINE SMOOTH",
"1186 1273 OFFCURVE",
"1162 1258 OFFCURVE",
"1127 1274 CURVE SMOOTH",
"998 1329 OFFCURVE",
"882 1356 OFFCURVE",
"772 1356 CURVE SMOOTH",
"552 1356 OFFCURVE",
"428 1267 OFFCURVE",
"428 1110 CURVE SMOOTH",
"428 978 OFFCURVE",
"492 920 OFFCURVE",
"713 879 CURVE SMOOTH",
"835 854 LINE SMOOTH",
"1136 797 OFFCURVE",
"1276 655 OFFCURVE",
"1276 412 CURVE SMOOTH",
"1276 123 OFFCURVE",
"1079 -29 OFFCURVE",
"704 -29 CURVE SMOOTH",
"574 -29 OFFCURVE",
"427 -2 OFFCURVE",
"272 52 CURVE SMOOTH",
"244 61 OFFCURVE",
"230 80 OFFCURVE",
"230 109 CURVE SMOOTH",
"230 317 LINE SMOOTH",
"230 356 OFFCURVE",
"255 370 OFFCURVE",
"291 352 CURVE SMOOTH",
"433 281 OFFCURVE",
"571 245 OFFCURVE",
"704 245 CURVE SMOOTH",
"935 245 OFFCURVE",
"1065 359 OFFCURVE",
"1065 447 CURVE SMOOTH",
"1065 527 OFFCURVE",
"981 621 OFFCURVE",
"776 662 CURVE SMOOTH",
"653 686 LINE SMOOTH",
"352 746 OFFCURVE",
"224 866 OFFCURVE",
"224 1094 CURVE SMOOTH",
"224 1358 OFFCURVE",
"422 1520 OFFCURVE",
"749 1520 CURVE SMOOTH",
"876 1520 OFFCURVE",
"1008 1499 OFFCURVE",
"1145 1457 CURVE SMOOTH",
"1173 1449 OFFCURVE",
"1186 1430 OFFCURVE",
"1186 1401 CURVE SMOOTH"
);
}
);
width = 1500;
}
);
unicode = 0053;
},
{
color = 6;
glyphname = T;
lastChange = "2013-06-12 15:10:19 -0400";
layers = (
{
anchors = (
{
name = bottom;
position = "{750, 0}";
},
{
name = center;
position = "{750, 747}";
},
{
name = top;
position = "{750, 1493}";
}
);
layerId = "6B6936E6-7670-4A82-900D-EAF583C971AF";
name = Regular;
paths = (
{
closed = 1;
nodes = (
"118 1443 LINE SMOOTH",
"118 1476 OFFCURVE",
"135 1493 OFFCURVE",
"168 1493 CURVE SMOOTH",
"1332 1493 LINE SMOOTH",
"1365 1493 OFFCURVE",
"1382 1475 OFFCURVE",
"1382 1443 CURVE SMOOTH",
"1382 1374 LINE SMOOTH",
"1382 1341 OFFCURVE",
"1364 1324 OFFCURVE",
"1331 1325 CURVE SMOOTH",
"904 1341 LINE SMOOTH",
"870 1342 OFFCURVE",
"853 1325 OFFCURVE",
"854 1291 CURVE SMOOTH",
"900 51 LINE SMOOTH",
"901 18 OFFCURVE",
"884 0 OFFCURVE",
"851 0 CURVE SMOOTH",
"650 0 LINE SMOOTH",
"617 0 OFFCURVE",
"600 18 OFFCURVE",
"601 51 CURVE SMOOTH",
"647 1291 LINE SMOOTH",
"648 1325 OFFCURVE",
"631 1342 OFFCURVE",
"597 1341 CURVE SMOOTH",
"169 1325 LINE SMOOTH",
"136 1324 OFFCURVE",
"118 1341 OFFCURVE",
"118 1374 CURVE SMOOTH"
);
}
);
width = 1500;
}
);
unicode = 0054;
},
{
color = 6;
glyphname = U;
lastChange = "2013-06-12 15:10:19 -0400";
layers = (
{
anchors = (
{
name = horn;
position = "{1274, 1257}";
},
{
name = ogonek;
position = "{767, 0}";
},
{
name = top;
position = "{750, 1493}";
}
);
layerId = "6B6936E6-7670-4A82-900D-EAF583C971AF";
name = Regular;
paths = (
{
closed = 1;
nodes = (
"168 1443 LINE SMOOTH",
"168 1476 OFFCURVE",
"185 1493 OFFCURVE",
"218 1493 CURVE SMOOTH",
"331 1493 LINE SMOOTH",
"364 1493 OFFCURVE",
"381 1475 OFFCURVE",
"381 1442 CURVE SMOOTH",
"372 726 LINE SMOOTH",
"368 406 OFFCURVE",
"491 275 OFFCURVE",
"751 275 CURVE SMOOTH",
"1010 275 OFFCURVE",
"1132 406 OFFCURVE",
"1128 726 CURVE SMOOTH",
"1120 1442 LINE SMOOTH",
"1120 1475 OFFCURVE",
"1137 1493 OFFCURVE",
"1170 1493 CURVE SMOOTH",
"1282 1493 LINE SMOOTH",
"1315 1493 OFFCURVE",
"1332 1475 OFFCURVE",
"1332 1443 CURVE SMOOTH",
"1322 561 LINE SMOOTH",
"1318 172 OFFCURVE",
"1127 -29 OFFCURVE",
"751 -29 CURVE SMOOTH",
"374 -29 OFFCURVE",
"182 172 OFFCURVE",
"178 561 CURVE SMOOTH"
);
}
);
width = 1500;
}
);
unicode = 0055;
},
{
color = 6;
glyphname = V;
lastChange = "2013-06-12 17:56:33 -0400";
layers = (
{
layerId = "6B6936E6-7670-4A82-900D-EAF583C971AF";
name = Regular;
paths = (
{
closed = 1;
nodes = (
"629 0 LINE SMOOTH",
"600 0 OFFCURVE",
"580 13 OFFCURVE",
"572 40 CURVE SMOOTH",
"156 1436 LINE SMOOTH",
"146 1471 OFFCURVE",
"160 1493 OFFCURVE",
"197 1493 CURVE SMOOTH",
"305 1493 LINE SMOOTH",
"334 1493 OFFCURVE",
"354 1481 OFFCURVE",
"363 1455 CURVE SMOOTH",
"717 455 LINE SMOOTH",
"731 414 OFFCURVE",
"768 414 OFFCURVE",
"783 455 CURVE SMOOTH",
"1138 1455 LINE SMOOTH",
"1147 1481 OFFCURVE",
"1167 1493 OFFCURVE",
"1196 1493 CURVE SMOOTH",
"1303 1493 LINE SMOOTH",
"1340 1493 OFFCURVE",
"1354 1471 OFFCURVE",
"1344 1436 CURVE SMOOTH",
"929 40 LINE SMOOTH",
"921 13 OFFCURVE",
"901 0 OFFCURVE",
"872 0 CURVE SMOOTH"
);
}
);
width = 1500;
}
);
unicode = 0056;
},
{
color = 6;
glyphname = W;
lastChange = "2013-06-12 17:56:46 -0400";
layers = (
{
anchors = (
{
name = top;
position = "{740, 1493}";
}
);
layerId = "6B6936E6-7670-4A82-900D-EAF583C971AF";
name = Regular;
paths = (
{
closed = 1;
nodes = (
"101 1438 LINE SMOOTH",
"99 1473 OFFCURVE",
"111 1493 OFFCURVE",
"146 1493 CURVE SMOOTH",
"239 1493 LINE SMOOTH",
"269 1493 OFFCURVE",
"294 1479 OFFCURVE",
"295 1450 CURVE SMOOTH",
"343 498 LINE SMOOTH",
"345 454 OFFCURVE",
"386 449 OFFCURVE",
"409 492 CURVE SMOOTH",
"631 908 LINE SMOOTH",
"644 932 OFFCURVE",
"663 943 OFFCURVE",
"691 943 CURVE SMOOTH",
"787 943 LINE SMOOTH",
"815 943 OFFCURVE",
"834 932 OFFCURVE",
"846 907 CURVE SMOOTH",
"1044 485 LINE SMOOTH",
"1064 442 OFFCURVE",
"1105 445 OFFCURVE",
"1110 489 CURVE SMOOTH",
"1213 1450 LINE SMOOTH",
"1216 1479 OFFCURVE",
"1239 1493 OFFCURVE",
"1269 1493 CURVE SMOOTH",
"1364 1493 LINE SMOOTH",
"1399 1493 OFFCURVE",
"1411 1472 OFFCURVE",
"1408 1438 CURVE SMOOTH",
"1275 44 LINE SMOOTH",
"1272 14 OFFCURVE",
"1250 0 OFFCURVE",
"1220 0 CURVE SMOOTH",
"1012 0 LINE SMOOTH",
"984 0 OFFCURVE",
"966 12 OFFCURVE",
"954 38 CURVE SMOOTH",
"777 434 LINE SMOOTH",
"757 479 OFFCURVE",
"733 480 OFFCURVE",
"712 435 CURVE SMOOTH",
"526 37 LINE SMOOTH",
"514 11 OFFCURVE",
"495 0 OFFCURVE",
"467 0 CURVE SMOOTH",
"240 0 LINE SMOOTH",
"209 0 OFFCURVE",
"187 15 OFFCURVE",
"185 45 CURVE SMOOTH"
);
}
);
width = 1500;
}
);
unicode = 0057;
},
{
color = 6;
glyphname = X;
lastChange = "2013-06-12 15:10:19 -0400";
layers = (
{
layerId = "6B6936E6-7670-4A82-900D-EAF583C971AF";
name = Regular;
paths = (
{
closed = 1;
nodes = (
"211 1433 LINE SMOOTH",
"192 1468 OFFCURVE",
"207 1493 OFFCURVE",
"246 1493 CURVE SMOOTH",
"355 1493 LINE SMOOTH",
"383 1493 OFFCURVE",
"401 1483 OFFCURVE",
"415 1459 CURVE SMOOTH",
"731 917 LINE SMOOTH",
"751 883 OFFCURVE",
"781 883 OFFCURVE",
"801 917 CURVE SMOOTH",
"1119 1459 LINE SMOOTH",
"1133 1483 OFFCURVE",
"1151 1493 OFFCURVE",
"1179 1493 CURVE SMOOTH",
"1287 1493 LINE SMOOTH",
"1327 1493 OFFCURVE",
"1341 1468 OFFCURVE",
"1321 1433 CURVE SMOOTH",
"917 732 LINE SMOOTH",
"902 707 OFFCURVE",
"903 686 OFFCURVE",
"920 662 CURVE SMOOTH",
"1345 61 LINE SMOOTH",
"1369 27 OFFCURVE",
"1355 0 OFFCURVE",
"1314 0 CURVE SMOOTH",
"1101 0 LINE SMOOTH",
"1073 0 OFFCURVE",
"1055 10 OFFCURVE",
"1041 34 CURVE SMOOTH",
"785 475 LINE SMOOTH",
"766 510 OFFCURVE",
"736 510 OFFCURVE",
"716 476 CURVE SMOOTH",
"458 34 LINE SMOOTH",
"444 10 OFFCURVE",
"426 0 OFFCURVE",
"398 0 CURVE SMOOTH",
"186 0 LINE SMOOTH",
"144 0 OFFCURVE",
"130 27 OFFCURVE",
"155 61 CURVE SMOOTH",
"599 664 LINE SMOOTH",
"615 687 OFFCURVE",
"617 708 OFFCURVE",
"603 733 CURVE SMOOTH"
);
}
);
width = 1500;
}
);
unicode = 0058;
},
{
color = 6;
glyphname = Y;
lastChange = "2013-06-12 15:10:19 -0400";
layers = (
{
anchors = (
{
name = top;
position = "{749, 1493}";
}
);
layerId = "6B6936E6-7670-4A82-900D-EAF583C971AF";
name = Regular;
paths = (
{
closed = 1;
nodes = (
"150 1434 LINE SMOOTH",
"133 1469 OFFCURVE",
"148 1493 OFFCURVE",
"187 1493 CURVE SMOOTH",
"298 1493 LINE SMOOTH",
"326 1493 OFFCURVE",
"344 1482 OFFCURVE",
"357 1458 CURVE SMOOTH",
"718 793 LINE SMOOTH",
"737 757 OFFCURVE",
"767 757 OFFCURVE",
"786 793 CURVE SMOOTH",
"1144 1458 LINE SMOOTH",
"1157 1482 OFFCURVE",
"1175 1493 OFFCURVE",
"1203 1493 CURVE SMOOTH",
"1314 1493 LINE SMOOTH",
"1353 1493 OFFCURVE",
"1368 1469 OFFCURVE",
"1350 1434 CURVE SMOOTH",
"897 540 LINE SMOOTH",
"886 519 OFFCURVE",
"882 502 OFFCURVE",
"882 478 CURVE SMOOTH",
"882 50 LINE SMOOTH",
"882 18 OFFCURVE",
"865 0 OFFCURVE",
"832 0 CURVE SMOOTH",
"659 0 LINE SMOOTH",
"627 0 OFFCURVE",
"609 17 OFFCURVE",
"609 50 CURVE SMOOTH",
"609 478 LINE SMOOTH",
"609 502 OFFCURVE",
"605 519 OFFCURVE",
"594 540 CURVE SMOOTH"
);
}
);
width = 1500;
}
);
unicode = 0059;
},
{
color = 6;
glyphname = Z;
lastChange = "2013-06-12 17:57:28 -0400";
layers = (
{
anchors = (
{
name = top;
position = "{760, 1493}";
}
);
layerId = "6B6936E6-7670-4A82-900D-EAF583C971AF";
name = Regular;
paths = (
{
closed = 1;
nodes = (
"128 1443 LINE SMOOTH",
"128 1476 OFFCURVE",
"145 1493 OFFCURVE",
"178 1493 CURVE SMOOTH",
"1252 1493 LINE SMOOTH",
"1285 1493 OFFCURVE",
"1302 1475 OFFCURVE",
"1302 1443 CURVE SMOOTH",
"1302 1375 LINE SMOOTH",
"1302 1349 OFFCURVE",
"1294 1332 OFFCURVE",
"1278 1313 CURVE SMOOTH",
"434 361 LINE SMOOTH",
"405 329 OFFCURVE",
"417 300 OFFCURVE",
"461 300 CURVE SMOOTH",
"1305 300 LINE SMOOTH",
"1338 300 OFFCURVE",
"1355 282 OFFCURVE",
"1355 250 CURVE SMOOTH",
"1355 50 LINE SMOOTH",
"1355 18 OFFCURVE",
"1337 0 OFFCURVE",
"1305 0 CURVE SMOOTH",
"175 0 LINE SMOOTH",
"143 0 OFFCURVE",
"125 18 OFFCURVE",
"125 50 CURVE SMOOTH",
"125 248 LINE SMOOTH",
"125 274 OFFCURVE",
"133 291 OFFCURVE",
"149 310 CURVE SMOOTH",
"994 1262 LINE SMOOTH",
"1023 1294 OFFCURVE",
"1011 1323 OFFCURVE",
"967 1323 CURVE SMOOTH",
"178 1323 LINE SMOOTH",
"146 1323 OFFCURVE",
"128 1341 OFFCURVE",
"128 1373 CURVE SMOOTH"
);
}
);
width = 1500;
}
);
unicode = 005A;
},
{
glyphname = bracketleft;
lastChange = "2013-06-12 15:10:19 -0400";
layers = (
{
layerId = "6B6936E6-7670-4A82-900D-EAF583C971AF";
name = Regular;
paths = (
{
closed = 1;
nodes = (
"565 1507 LINE SMOOTH",
"566 1539 OFFCURVE",
"584 1556 OFFCURVE",
"616 1556 CURVE SMOOTH",
"941 1556 LINE SMOOTH",
"974 1556 OFFCURVE",
"991 1538 OFFCURVE",
"991 1506 CURVE SMOOTH",
"991 1463 LINE SMOOTH",
"991 1431 OFFCURVE",
"973 1413 OFFCURVE",
"941 1413 CURVE SMOOTH",
"801 1413 LINE SMOOTH",
"769 1413 OFFCURVE",
"752 1395 OFFCURVE",
"751 1363 CURVE SMOOTH",
"711 3 LINE SMOOTH",
"710 -30 OFFCURVE",
"728 -47 OFFCURVE",
"761 -47 CURVE SMOOTH",
"901 -47 LINE SMOOTH",
"934 -47 OFFCURVE",
"951 -65 OFFCURVE",
"951 -97 CURVE SMOOTH",
"951 -220 LINE SMOOTH",
"951 -253 OFFCURVE",
"934 -270 OFFCURVE",
"901 -270 CURVE SMOOTH",
"558 -270 LINE SMOOTH",
"525 -270 OFFCURVE",
"508 -252 OFFCURVE",
"509 -219 CURVE SMOOTH"
);
}
);
width = 1500;
}
);
unicode = 005B;
},
{
glyphname = backslash;
lastChange = "2013-06-12 15:10:19 -0400";
layers = (
{
layerId = "6B6936E6-7670-4A82-900D-EAF583C971AF";
name = Regular;
paths = (
{
closed = 1;
nodes = (
"375 1489 LINE SMOOTH",
"404 1488 OFFCURVE",
"416 1474 OFFCURVE",
"430 1446 CURVE SMOOTH",
"1237 -159 LINE SMOOTH",
"1254 -194 OFFCURVE",
"1231 -216 OFFCURVE",
"1194 -215 CURVE SMOOTH",
"1058 -210 LINE SMOOTH",
"1028 -209 OFFCURVE",
"1016 -194 OFFCURVE",
"1003 -166 CURVE SMOOTH",
"262 1436 LINE SMOOTH",
"246 1470 OFFCURVE",
"270 1492 OFFCURVE",
"306 1491 CURVE SMOOTH"
);
}
);
width = 1500;
}
);
unicode = 005C;
},
{
glyphname = bracketright;
lastChange = "2013-06-12 15:10:19 -0400";
layers = (
{
layerId = "6B6936E6-7670-4A82-900D-EAF583C971AF";
name = Regular;
paths = (
{
closed = 1;
nodes = (
"857 1556 LINE SMOOTH",
"888 1556 OFFCURVE",
"906 1539 OFFCURVE",
"908 1508 CURVE SMOOTH",
"1018 -218 LINE SMOOTH",
"1020 -252 OFFCURVE",
"1003 -270 OFFCURVE",
"969 -270 CURVE SMOOTH",
"597 -270 LINE SMOOTH",
"565 -270 OFFCURVE",
"547 -252 OFFCURVE",
"547 -220 CURVE SMOOTH",
"547 -107 LINE SMOOTH",
"547 -75 OFFCURVE",
"565 -57 OFFCURVE",
"597 -57 CURVE SMOOTH",
"736 -57 LINE SMOOTH",
"769 -57 OFFCURVE",
"839 -39 OFFCURVE",
"836 -7 CURVE SMOOTH",
"720 1363 LINE SMOOTH",
"717 1396 OFFCURVE",
"703 1413 OFFCURVE",
"670 1413 CURVE SMOOTH",
"531 1413 LINE SMOOTH",
"499 1413 OFFCURVE",
"481 1431 OFFCURVE",
"481 1463 CURVE SMOOTH",
"481 1506 LINE SMOOTH",
"481 1539 OFFCURVE",
"498 1556 OFFCURVE",
"531 1556 CURVE SMOOTH"
);
}
);
width = 1500;
}
);
unicode = 005D;
},
{
glyphname = asciicircum;
lastChange = "2013-06-12 15:10:19 -0400";
layers = (
{
layerId = "6B6936E6-7670-4A82-900D-EAF583C971AF";
name = Regular;
paths = (
{
closed = 1;
nodes = (
"792 1493 LINE SMOOTH",
"818 1493 OFFCURVE",
"835 1486 OFFCURVE",
"854 1468 CURVE SMOOTH",
"1329 998 LINE SMOOTH",
"1361 966 OFFCURVE",
"1348 936 OFFCURVE",
"1303 936 CURVE SMOOTH",
"1118 936 LINE SMOOTH",
"1091 936 OFFCURVE",
"1073 945 OFFCURVE",
"1058 967 CURVE SMOOTH",
"785 1343 LINE SMOOTH",
"764 1372 OFFCURVE",
"736 1372 OFFCURVE",
"715 1343 CURVE SMOOTH",
"442 967 LINE SMOOTH",
"427 945 OFFCURVE",
"409 936 OFFCURVE",
"382 936 CURVE SMOOTH",
"196 936 LINE SMOOTH",
"152 936 OFFCURVE",
"139 966 OFFCURVE",
"171 998 CURVE SMOOTH",
"646 1468 LINE SMOOTH",
"665 1486 OFFCURVE",
"682 1493 OFFCURVE",
"708 1493 CURVE SMOOTH"
);
}
);
width = 1500;
}
);
unicode = 005E;
},
{
glyphname = underscore;
lastChange = "2013-06-12 15:10:19 -0400";
layers = (
{
hints = (
{
horizontal = 1;
place = "{-443.000000, 180.000000}";
}
);
layerId = "6B6936E6-7670-4A82-900D-EAF583C971AF";
name = Regular;
paths = (
{
closed = 1;
nodes = (
"1232 -264 LINE SMOOTH",
"1264 -264 OFFCURVE",
"1282 -282 OFFCURVE",
"1282 -314 CURVE SMOOTH",
"1282 -393 LINE SMOOTH",
"1282 -426 OFFCURVE",
"1265 -443 OFFCURVE",
"1232 -443 CURVE SMOOTH",
"268 -443 LINE SMOOTH",
"236 -443 OFFCURVE",
"218 -425 OFFCURVE",
"218 -393 CURVE SMOOTH",
"218 -314 LINE SMOOTH",
"218 -282 OFFCURVE",
"235 -264 OFFCURVE",
"268 -264 CURVE SMOOTH"
);
}
);
width = 1500;
}
);
unicode = 005F;
},
{
glyphname = grave;
lastChange = "2013-06-12 15:10:19 -0400";
layers = (
{
anchors = (
{
name = _top;
position = "{845, 815}";
}
);
layerId = "6B6936E6-7670-4A82-900D-EAF583C971AF";
name = Regular;
paths = (
{
closed = 1;
nodes = (
"674 1718 LINE SMOOTH",
"701 1718 OFFCURVE",
"719 1709 OFFCURVE",
"735 1688 CURVE SMOOTH",
"948 1405 LINE SMOOTH",
"973 1371 OFFCURVE",
"960 1344 OFFCURVE",
"918 1344 CURVE SMOOTH",
"761 1344 LINE SMOOTH",
"733 1344 OFFCURVE",
"715 1355 OFFCURVE",
"702 1379 CURVE SMOOTH",
"548 1658 LINE SMOOTH",
"529 1693 OFFCURVE",
"544 1718 OFFCURVE",
"583 1718 CURVE SMOOTH"
);
}
);
width = 1500;
}
);
unicode = 0060;
},
{
color = 7;
glyphname = a;
lastChange = "2013-06-12 15:10:19 -0400";
layers = (
{
anchors = (
{
name = ogonek;
position = "{672, 0}";
},
{
name = top;
position = "{778, 1120}";
}
);
layerId = "6B6936E6-7670-4A82-900D-EAF583C971AF";
name = Regular;
paths = (
{
closed = 1;
nodes = (
"770 572 LINE SMOOTH",
"521 572 OFFCURVE",
"443 523 OFFCURVE",
"432 406 CURVE SMOOTH",
"430 384 OFFCURVE",
"431 368 OFFCURVE",
"439 347 CURVE SMOOTH",
"469 261 OFFCURVE",
"560 251 OFFCURVE",
"680 251 CURVE SMOOTH",
"865 251 OFFCURVE",
"936 291 OFFCURVE",
"936 531 CURVE SMOOTH",
"936 522 LINE SMOOTH",
"936 555 OFFCURVE",
"918 572 OFFCURVE",
"886 572 CURVE SMOOTH"
);
},
{
closed = 1;
nodes = (
"1223 50 LINE SMOOTH",
"1223 18 OFFCURVE",
"1206 0 OFFCURVE",
"1173 0 CURVE SMOOTH",
"1089 0 LINE SMOOTH",
"1057 0 OFFCURVE",
"1039 17 OFFCURVE",
"1039 50 CURVE SMOOTH",
"1039 72 LINE SMOOTH",
"1039 117 OFFCURVE",
"1015 125 OFFCURVE",
"983 93 CURVE SMOOTH",
"903 13 OFFCURVE",
"796 -29 OFFCURVE",
"652 -29 CURVE SMOOTH",
"423 -29 OFFCURVE",
"277 110 OFFCURVE",
"277 326 CURVE SMOOTH",
"277 578 OFFCURVE",
"446 707 OFFCURVE",
"781 707 CURVE SMOOTH",
"989 707 LINE SMOOTH",
"1022 707 OFFCURVE",
"1039 713 OFFCURVE",
"1039 725 CURVE SMOOTH",
"1039 894 OFFCURVE",
"936 998 OFFCURVE",
"721 1011 CURVE",
"615 1011 OFFCURVE",
"513 990 OFFCURVE",
"418 948 CURVE SMOOTH",
"382 932 OFFCURVE",
"359 946 OFFCURVE",
"359 984 CURVE SMOOTH",
"359 1027 LINE SMOOTH",
"359 1055 OFFCURVE",
"372 1074 OFFCURVE",
"399 1084 CURVE SMOOTH",
"519 1126 OFFCURVE",
"632 1147 OFFCURVE",
"740 1147 CURVE SMOOTH",
"1064 1147 OFFCURVE",
"1223 980 OFFCURVE",
"1223 639 CURVE SMOOTH"
);
}
);
width = 1500;
}
);
leftKerningGroup = Round;
unicode = 0061;
},
{
color = 7;
glyphname = b;
lastChange = "2013-06-12 15:10:19 -0400";
layers = (
{
anchors = (
{
name = "new anchor";
position = "{277, 307}";
}
);
hints = (
{
place = "{203.000000, 133.000000}";
}
);
layerId = "6B6936E6-7670-4A82-900D-EAF583C971AF";
name = Regular;
paths = (
{
closed = 1;
nodes = (
"1082 364 OFFCURVE",
"981 310 OFFCURVE",
"824 299 CURVE",
"556 299 OFFCURVE",
"538 385 OFFCURVE",
"511 592 CURVE",
"511 863 OFFCURVE",
"629 1016 OFFCURVE",
"824 1016 CURVE SMOOTH",
"1011 1016 OFFCURVE",
"1107 872 OFFCURVE",
"1122 632 CURVE SMOOTH",
"1123 609 OFFCURVE",
"1122 593 OFFCURVE",
"1118 570 CURVE SMOOTH"
);
},
{
closed = 1;
nodes = (
"400 56 OFFCURVE",
"488 -29 OFFCURVE",
"781 -29 CURVE SMOOTH",
"1053 -29 OFFCURVE",
"1240 207 OFFCURVE",
"1240 559 CURVE SMOOTH",
"1240 911 OFFCURVE",
"1053 1147 OFFCURVE",
"781 1147 CURVE SMOOTH",
"651 1147 OFFCURVE",
"550 1119 OFFCURVE",
"475 1041 CURVE SMOOTH",
"444 1008 OFFCURVE",
"424 1013 OFFCURVE",
"426 1058 CURVE SMOOTH",
"441 1505 LINE SMOOTH",
"442 1538 OFFCURVE",
"425 1556 OFFCURVE",
"392 1556 CURVE SMOOTH",
"310 1556 LINE SMOOTH",
"276 1556 OFFCURVE",
"259 1537 OFFCURVE",
"261 1503 CURVE SMOOTH",
"297 877 OFFCURVE",
"307 287 OFFCURVE",
"347 203 CURVE"
);
}
);
width = 1500;
}
);
rightKerningGroup = RoundRight;
unicode = 0062;
},
{
color = 7;
glyphname = c;
lastChange = "2013-06-14 15:25:06 -0400";
layers = (
{
anchors = (
{
name = bottom;
position = "{792, 0}";
},
{
name = top;
position = "{792, 1120}";
}
);
layerId = "6B6936E6-7670-4A82-900D-EAF583C971AF";
name = Regular;
paths = (
{
closed = 1;
nodes = (
"1193 982 LINE SMOOTH",
"1193 944 OFFCURVE",
"1170 930 OFFCURVE",
"1134 946 CURVE SMOOTH",
"1050 984 OFFCURVE",
"965 1001 OFFCURVE",
"878 1001 CURVE SMOOTH",
"639 1001 OFFCURVE",
"511 832 OFFCURVE",
"511 559 CURVE",
"530 367 OFFCURVE",
"631 301 OFFCURVE",
"870 288 CURVE",
"958 288 OFFCURVE",
"1046 279 OFFCURVE",
"1132 307 CURVE SMOOTH",
"1168 319 OFFCURVE",
"1189 308 OFFCURVE",
"1190 270 CURVE SMOOTH",
"1192 85 LINE SMOOTH",
"1193 56 OFFCURVE",
"1181 37 OFFCURVE",
"1155 26 CURVE SMOOTH",
"1063 -11 OFFCURVE",
"967 -29 OFFCURVE",
"858 -29 CURVE SMOOTH",
"521 -29 OFFCURVE",
"307 199 OFFCURVE",
"307 559 CURVE SMOOTH",
"307 924 OFFCURVE",
"521 1147 OFFCURVE",
"870 1147 CURVE SMOOTH",
"969 1147 OFFCURVE",
"1065 1131 OFFCURVE",
"1155 1095 CURVE SMOOTH",
"1181 1085 OFFCURVE",
"1193 1066 OFFCURVE",
"1193 1038 CURVE SMOOTH"
);
}
);
width = 1500;
}
);
leftKerningGroup = Round;
unicode = 0063;
},
{
color = 7;
glyphname = d;
lastChange = "2013-06-12 15:10:19 -0400";
layers = (
{
anchors = (
{
name = center;
position = "{844, 560}";
},
{
name = top;
position = "{698, 1147}";
}
);
layerId = "6B6936E6-7670-4A82-900D-EAF583C971AF";
name = Regular;
paths = (
{
closed = 1;
nodes = (
"1126 1556 LINE SMOOTH",
"1094 1556 OFFCURVE",
"1076 1539 OFFCURVE",
"1075 1507 CURVE SMOOTH",
"1060 1039 LINE SMOOTH",
"1058 994 OFFCURVE",
"1035 988 OFFCURVE",
"1005 1023 CURVE SMOOTH",
"931 1106 OFFCURVE",
"830 1147 OFFCURVE",
"698 1147 CURVE SMOOTH",
"427 1147 OFFCURVE",
"240 911 OFFCURVE",
"240 559 CURVE SMOOTH",
"240 207 OFFCURVE",
"427 -29 OFFCURVE",
"698 -29 CURVE SMOOTH",
"829 -29 OFFCURVE",
"930 11 OFFCURVE",
"1004 94 CURVE SMOOTH",
"1035 129 OFFCURVE",
"1057 123 OFFCURVE",
"1057 77 CURVE SMOOTH",
"1057 50 LINE SMOOTH",
"1057 18 OFFCURVE",
"1074 0 OFFCURVE",
"1107 0 CURVE SMOOTH",
"1191 0 LINE SMOOTH",
"1224 0 OFFCURVE",
"1241 17 OFFCURVE",
"1242 50 CURVE SMOOTH",
"1260 1506 LINE SMOOTH",
"1261 1538 OFFCURVE",
"1243 1556 OFFCURVE",
"1211 1556 CURVE SMOOTH"
);
},
{
closed = 1;
nodes = (
"880 1013 OFFCURVE",
"968 864 OFFCURVE",
"975 593 CURVE SMOOTH",
"968 346 OFFCURVE",
"875 306 OFFCURVE",
"680 306 CURVE SMOOTH",
"495 306 OFFCURVE",
"412 376 OFFCURVE",
"377 549 CURVE SMOOTH",
"373 571 OFFCURVE",
"372 587 OFFCURVE",
"373 610 CURVE SMOOTH",
"381 862 OFFCURVE",
"497 1013 OFFCURVE",
"685 1013 CURVE SMOOTH"
);
}
);
width = 1500;
}
);
leftKerningGroup = Round;
unicode = 0064;
},
{
color = 7;
glyphname = e;
lastChange = "2013-06-14 15:25:44 -0400";
layers = (
{
anchors = (
{
name = _hook;
position = "{787, 1104}";
},
{
name = bottom;
position = "{751, 0}";
},
{
name = ogonek;
position = "{809, 33}";
},
{
name = top;
position = "{751, 1120}";
}
);
layerId = "6B6936E6-7670-4A82-900D-EAF583C971AF";
name = Regular;
paths = (
{
closed = 1;
nodes = (
"1264 634 LINE SMOOTH",
"1264 602 OFFCURVE",
"1246 584 OFFCURVE",
"1214 584 CURVE SMOOTH",
"479 584 LINE SMOOTH",
"446 584 OFFCURVE",
"428 565 OFFCURVE",
"430 532 CURVE SMOOTH",
"451 279 OFFCURVE",
"587 256 OFFCURVE",
"816 244 CURVE",
"936 244 OFFCURVE",
"1050 244 OFFCURVE",
"1163 276 CURVE SMOOTH",
"1198 286 OFFCURVE",
"1220 277 OFFCURVE",
"1221 239 CURVE SMOOTH",
"1223 90 LINE SMOOTH",
"1224 61 OFFCURVE",
"1212 40 OFFCURVE",
"1185 32 CURVE SMOOTH",
"1064 -4 OFFCURVE",
"939 -29 OFFCURVE",
"809 -29 CURVE",
"453 -16 OFFCURVE",
"236 172 OFFCURVE",
"236 527 CURVE",
"249 894 OFFCURVE",
"449 1147 OFFCURVE",
"786 1147 CURVE",
"1086 1134 OFFCURVE",
"1239 974 OFFCURVE",
"1264 654 CURVE"
);
},
{
closed = 1;
nodes = (
"1046 735 LINE SMOOTH",
"1082 735 OFFCURVE",
"1101 757 OFFCURVE",
"1089 790 CURVE SMOOTH",
"1049 902 OFFCURVE",
"942 1050 OFFCURVE",
"787 1050 CURVE SMOOTH",
"608 1050 OFFCURVE",
"483 905 OFFCURVE",
"454 786 CURVE SMOOTH",
"446 753 OFFCURVE",
"467 734 OFFCURVE",
"501 734 CURVE SMOOTH"
);
}
);
width = 1500;
}
);
leftKerningGroup = Round;
unicode = 0065;
},
{
color = 7;
glyphname = f;
lastChange = "2013-06-14 15:26:03 -0400";
layers = (
{
layerId = "6B6936E6-7670-4A82-900D-EAF583C971AF";
name = Regular;
paths = (
{
closed = 1;
nodes = (
"1071 1717 LINE SMOOTH",
"1102 1713 OFFCURVE",
"1118 1695 OFFCURVE",
"1118 1664 CURVE SMOOTH",
"1118 1611 LINE SMOOTH",
"1118 1577 OFFCURVE",
"1099 1560 OFFCURVE",
"1065 1564 CURVE SMOOTH",
"952 1578 LINE",
"860 1578 OFFCURVE",
"826 1553 OFFCURVE",
"822 1219 CURVE",
"827 1167 LINE SMOOTH",
"830 1136 OFFCURVE",
"848 1120 OFFCURVE",
"880 1120 CURVE SMOOTH",
"1132 1120 LINE SMOOTH",
"1165 1120 OFFCURVE",
"1182 1103 OFFCURVE",
"1182 1070 CURVE SMOOTH",
"1182 987 LINE SMOOTH",
"1182 955 OFFCURVE",
"1164 937 OFFCURVE",
"1132 937 CURVE SMOOTH",
"883 937 LINE SMOOTH",
"850 937 OFFCURVE",
"833 919 OFFCURVE",
"834 886 CURVE SMOOTH",
"860 51 LINE SMOOTH",
"861 18 OFFCURVE",
"844 0 OFFCURVE",
"811 0 CURVE SMOOTH",
"603 0 LINE SMOOTH",
"570 0 OFFCURVE",
"551 18 OFFCURVE",
"554 51 CURVE SMOOTH",
"625 886 LINE SMOOTH",
"628 919 OFFCURVE",
"609 937 OFFCURVE",
"576 937 CURVE SMOOTH",
"368 937 LINE SMOOTH",
"336 937 OFFCURVE",
"318 954 OFFCURVE",
"318 987 CURVE SMOOTH",
"318 1070 LINE SMOOTH",
"318 1103 OFFCURVE",
"336 1120 OFFCURVE",
"368 1120 CURVE SMOOTH",
"580 1120 LINE SMOOTH",
"611 1120 OFFCURVE",
"629 1136 OFFCURVE",
"633 1167 CURVE SMOOTH",
"637 1198 LINE",
"641 1642 OFFCURVE",
"782 1731 OFFCURVE",
"954 1731 CURVE"
);
}
);
width = 1500;
}
);
unicode = 0066;
},
{
color = 7;
glyphname = g;
lastChange = "2013-06-14 23:34:51 -0400";
layers = (
{
anchors = (
{
name = comma;
position = "{705, -536}";
},
{
name = top;
position = "{772, 1120}";
}
);
layerId = "6B6936E6-7670-4A82-900D-EAF583C971AF";
name = Regular;
paths = (
{
closed = 1;
nodes = (
"977 851 OFFCURVE",
"862 1004 OFFCURVE",
"663 1004 CURVE SMOOTH",
"466 1004 OFFCURVE",
"350 851 OFFCURVE",
"350 584 CURVE",
"377 319 OFFCURVE",
"452 298 OFFCURVE",
"649 298 CURVE SMOOTH",
"848 298 OFFCURVE",
"977 319 OFFCURVE",
"977 584 CURVE SMOOTH"
);
},
{
closed = 1;
nodes = (
"1231 139 LINE SMOOTH",
"1210 -567 OFFCURVE",
"1054 -728 OFFCURVE",
"705 -728 CURVE SMOOTH",
"592 -728 OFFCURVE",
"491 -713 OFFCURVE",
"395 -683 CURVE SMOOTH",
"368 -674 OFFCURVE",
"355 -655 OFFCURVE",
"355 -626 CURVE SMOOTH",
"355 -406 LINE SMOOTH",
"355 -368 OFFCURVE",
"378 -354 OFFCURVE",
"414 -370 CURVE SMOOTH",
"501 -409 OFFCURVE",
"587 -427 OFFCURVE",
"676 -427 CURVE SMOOTH",
"869 -427 OFFCURVE",
"974 -293 OFFCURVE",
"1022 21 CURVE SMOOTH",
"1034 99 OFFCURVE",
"1050 158 OFFCURVE",
"992 105 CURVE SMOOTH",
"924 44 OFFCURVE",
"824 0 OFFCURVE",
"698 0 CURVE SMOOTH",
"423 0 OFFCURVE",
"240 228 OFFCURVE",
"240 573 CURVE SMOOTH",
"240 920 OFFCURVE",
"423 1147 OFFCURVE",
"698 1147 CURVE SMOOTH",
"831 1147 OFFCURVE",
"934 1105 OFFCURVE",
"1008 1019 CURVE SMOOTH",
"1037 985 OFFCURVE",
"1062 990 OFFCURVE",
"1067 1034 CURVE SMOOTH",
"1072 1077 LINE SMOOTH",
"1075 1105 OFFCURVE",
"1093 1120 OFFCURVE",
"1124 1120 CURVE SMOOTH",
"1210 1120 LINE SMOOTH",
"1243 1120 OFFCURVE",
"1260 1102 OFFCURVE",
"1259 1069 CURVE SMOOTH"
);
}
);
width = 1500;
}
);
unicode = 0067;
},
{
color = 7;
glyphname = h;
lastChange = "2013-06-12 15:10:19 -0400";
layers = (
{
anchors = (
{
name = center;
position = "{680, 560}";
},
{
name = top;
position = "{680, 1120}";
}
);
layerId = "6B6936E6-7670-4A82-900D-EAF583C971AF";
name = Regular;
paths = (
{
closed = 1;
nodes = (
"1258 51 LINE SMOOTH",
"1259 18 OFFCURVE",
"1242 0 OFFCURVE",
"1209 0 CURVE SMOOTH",
"1077 0 LINE SMOOTH",
"1044 0 OFFCURVE",
"1027 18 OFFCURVE",
"1028 51 CURVE SMOOTH",
"1056 670 LINE SMOOTH",
"1067 925 OFFCURVE",
"973 1007 OFFCURVE",
"808 1007 CURVE SMOOTH",
"609 1007 OFFCURVE",
"487 852 OFFCURVE",
"487 633 CURVE SMOOTH",
"505 51 LINE SMOOTH",
"506 18 OFFCURVE",
"489 0 OFFCURVE",
"456 0 CURVE SMOOTH",
"293 0 LINE SMOOTH",
"260 0 OFFCURVE",
"241 18 OFFCURVE",
"243 51 CURVE SMOOTH",
"322 1712 LINE SMOOTH",
"324 1744 OFFCURVE",
"340 1761 OFFCURVE",
"372 1761 CURVE SMOOTH",
"457 1761 LINE SMOOTH",
"490 1761 OFFCURVE",
"507 1743 OFFCURVE",
"506 1710 CURVE SMOOTH",
"490 1039 LINE SMOOTH",
"489 993 OFFCURVE",
"513 986 OFFCURVE",
"545 1020 CURVE SMOOTH",
"625 1105 OFFCURVE",
"725 1147 OFFCURVE",
"849 1147 CURVE SMOOTH",
"1106 1147 OFFCURVE",
"1240 985 OFFCURVE",
"1240 676 CURVE SMOOTH"
);
}
);
width = 1500;
}
);
unicode = 0068;
},
{
color = 7;
glyphname = i;
lastChange = "2013-06-14 15:26:56 -0400";
layers = (
{
layerId = "6B6936E6-7670-4A82-900D-EAF583C971AF";
name = Regular;
paths = (
{
closed = 1;
nodes = (
"673 522 OFFCURVE",
"759 648 OFFCURVE",
"614 1064 CURVE SMOOTH",
"605 1091 OFFCURVE",
"632 1109 OFFCURVE",
"665 1109 CURVE SMOOTH",
"834 1109 LINE SMOOTH",
"866 1109 OFFCURVE",
"888 1091 OFFCURVE",
"883 1059 CURVE SMOOTH",
"832 703 OFFCURVE",
"824 281 OFFCURVE",
"920 42 CURVE SMOOTH",
"933 9 OFFCURVE",
"905 -11 OFFCURVE",
"872 -11 CURVE SMOOTH",
"600 -11 LINE SMOOTH",
"566 -11 OFFCURVE",
"542 7 OFFCURVE",
"551 41 CURVE SMOOTH"
);
},
{
closed = 1;
nodes = (
"652 1517 LINE SMOOTH",
"653 1549 OFFCURVE",
"671 1566 OFFCURVE",
"703 1566 CURVE SMOOTH",
"789 1566 LINE SMOOTH",
"821 1566 OFFCURVE",
"839 1549 OFFCURVE",
"840 1517 CURVE SMOOTH",
"846 1384 LINE SMOOTH",
"847 1351 OFFCURVE",
"830 1333 OFFCURVE",
"797 1333 CURVE SMOOTH",
"695 1333 LINE SMOOTH",
"662 1333 OFFCURVE",
"645 1351 OFFCURVE",
"646 1384 CURVE SMOOTH"
);
}
);
width = 1500;
}
);
unicode = 0069;
},
{
color = 7;
glyphname = j;
lastChange = "2013-06-15 04:08:23 -0400";
layers = (
{
layerId = "6B6936E6-7670-4A82-900D-EAF583C971AF";
name = Regular;
paths = (
{
closed = 1;
nodes = (
"626 1068 LINE SMOOTH",
"626 1100 OFFCURVE",
"645 1117 OFFCURVE",
"677 1116 CURVE SMOOTH",
"835 1113 LINE SMOOTH",
"867 1112 OFFCURVE",
"885 1094 OFFCURVE",
"883 1062 CURVE SMOOTH",
"795 -148 LINE SMOOTH",
"774 -435 OFFCURVE",
"523 -710 OFFCURVE",
"282 -719 CURVE",
"232 -718 LINE SMOOTH",
"199 -717 OFFCURVE",
"183 -700 OFFCURVE",
"183 -667 CURVE SMOOTH",
"186 -411 LINE SMOOTH",
"186 -378 OFFCURVE",
"204 -361 OFFCURVE",
"237 -362 CURVE SMOOTH",
"266 -362 LINE",
"406 -351 OFFCURVE",
"608 -272 OFFCURVE",
"613 95 CURVE SMOOTH"
);
},
{
closed = 1;
nodes = (
"677 1507 LINE SMOOTH",
"678 1539 OFFCURVE",
"696 1556 OFFCURVE",
"728 1556 CURVE SMOOTH",
"794 1556 LINE SMOOTH",
"826 1556 OFFCURVE",
"844 1539 OFFCURVE",
"845 1507 CURVE SMOOTH",
"851 1374 LINE SMOOTH",
"852 1341 OFFCURVE",
"835 1323 OFFCURVE",
"802 1323 CURVE SMOOTH",
"720 1323 LINE SMOOTH",
"687 1323 OFFCURVE",
"670 1341 OFFCURVE",
"671 1374 CURVE SMOOTH"
);
}
);
width = 1500;
}
);
unicode = 006A;
},
{
color = 7;
glyphname = k;
lastChange = "2013-06-12 15:10:19 -0400";
layers = (
{
anchors = (
{
name = bottom;
position = "{647, 0}";
}
);
layerId = "6B6936E6-7670-4A82-900D-EAF583C971AF";
name = Regular;
paths = (
{
closed = 1;
nodes = (
"299 1507 LINE SMOOTH",
"300 1539 OFFCURVE",
"317 1556 OFFCURVE",
"349 1556 CURVE SMOOTH",
"435 1556 LINE SMOOTH",
"467 1556 OFFCURVE",
"485 1538 OFFCURVE",
"484 1506 CURVE SMOOTH",
"476 773 LINE SMOOTH",
"476 726 OFFCURVE",
"507 714 OFFCURVE",
"537 750 CURVE SMOOTH",
"830 1092 LINE SMOOTH",
"847 1112 OFFCURVE",
"865 1120 OFFCURVE",
"891 1120 CURVE SMOOTH",
"1010 1120 LINE SMOOTH",
"1053 1120 OFFCURVE",
"1066 1092 OFFCURVE",
"1039 1059 CURVE SMOOTH",
"695 633 LINE SMOOTH",
"675 609 OFFCURVE",
"677 585 OFFCURVE",
"700 563 CURVE SMOOTH",
"1220 62 LINE SMOOTH",
"1253 30 OFFCURVE",
"1241 0 OFFCURVE",
"1195 0 CURVE SMOOTH",
"941 0 LINE SMOOTH",
"915 0 OFFCURVE",
"897 9 OFFCURVE",
"880 29 CURVE SMOOTH",
"541 446 LINE SMOOTH",
"511 483 OFFCURVE",
"478 471 OFFCURVE",
"481 423 CURVE SMOOTH",
"502 51 LINE SMOOTH",
"504 18 OFFCURVE",
"487 0 OFFCURVE",
"454 0 CURVE SMOOTH",
"311 0 LINE SMOOTH",
"278 0 OFFCURVE",
"260 18 OFFCURVE",
"261 51 CURVE SMOOTH"
);
}
);
width = 1500;
}
);
unicode = 006B;
},
{
color = 7;
glyphname = l;
lastChange = "2013-06-15 04:09:32 -0400";
layers = (
{
anchors = (
{
name = bottom;
position = "{756, -124}";
},
{
name = dot;
position = "{868, 831}";
},
{
name = top;
position = "{523, 1453}";
},
{
name = topright;
position = "{733, 1477}";
}
);
layerId = "6B6936E6-7670-4A82-900D-EAF583C971AF";
name = Regular;
paths = (
{
closed = 1;
nodes = (
"371 563 OFFCURVE",
"472 865 OFFCURVE",
"377 1462 CURVE SMOOTH",
"372 1495 OFFCURVE",
"397 1511 OFFCURVE",
"429 1511 CURVE SMOOTH",
"581 1511 LINE SMOOTH",
"614 1511 OFFCURVE",
"629 1493 OFFCURVE",
"629 1460 CURVE SMOOTH",
"629 955 OFFCURVE",
"609 624 OFFCURVE",
"675 278 CURVE SMOOTH",
"681 246 OFFCURVE",
"693 228 OFFCURVE",
"725 228 CURVE SMOOTH",
"939 227 LINE SMOOTH",
"972 227 OFFCURVE",
"989 210 OFFCURVE",
"989 177 CURVE SMOOTH",
"989 50 LINE SMOOTH",
"989 18 OFFCURVE",
"971 0 OFFCURVE",
"939 0 CURVE SMOOTH",
"464 0 LINE SMOOTH",
"432 0 OFFCURVE",
"418 18 OFFCURVE",
"415 51 CURVE SMOOTH"
);
}
);
width = 1500;
}
);
unicode = 006C;
},
{
color = 7;
glyphname = m;
lastChange = "2013-06-12 18:21:24 -0400";
layers = (
{
layerId = "6B6936E6-7670-4A82-900D-EAF583C971AF";
name = Regular;
paths = (
{
closed = 1;
nodes = (
"886 1057 OFFCURVE",
"971 1147 OFFCURVE",
"1089 1147 CURVE SMOOTH",
"1282 1147 OFFCURVE",
"1377 977 OFFCURVE",
"1376 676 CURVE SMOOTH",
"1374 51 LINE SMOOTH",
"1374 18 OFFCURVE",
"1358 0 OFFCURVE",
"1325 0 CURVE SMOOTH",
"1192 0 LINE SMOOTH",
"1158 0 OFFCURVE",
"1161 19 OFFCURVE",
"1164 52 CURVE SMOOTH",
"1229 700 LINE",
"1229 915 OFFCURVE",
"1184 1017 OFFCURVE",
"1068 1017 CURVE SMOOTH",
"966 1017 OFFCURVE",
"891 782 OFFCURVE",
"890 633 CURVE SMOOTH",
"888 49 LINE SMOOTH",
"888 17 OFFCURVE",
"871 0 OFFCURVE",
"837 0 CURVE SMOOTH",
"689 0 LINE SMOOTH",
"655 0 OFFCURVE",
"639 19 OFFCURVE",
"643 53 CURVE SMOOTH",
"726 710 LINE",
"764 924 OFFCURVE",
"679 1013 OFFCURVE",
"598 1013 CURVE SMOOTH",
"465 1013 OFFCURVE",
"363 850 OFFCURVE",
"370 633 CURVE SMOOTH",
"388 51 LINE SMOOTH",
"389 18 OFFCURVE",
"372 0 OFFCURVE",
"339 0 CURVE SMOOTH",
"173 0 LINE SMOOTH",
"140 0 OFFCURVE",
"121 18 OFFCURVE",
"124 51 CURVE SMOOTH",
"208 1071 LINE SMOOTH",
"211 1103 OFFCURVE",
"227 1120 OFFCURVE",
"259 1120 CURVE SMOOTH",
"317 1120 LINE SMOOTH",
"351 1120 OFFCURVE",
"368 1101 OFFCURVE",
"364 1067 CURVE SMOOTH",
"361 1043 LINE SMOOTH",
"356 996 OFFCURVE",
"384 999 OFFCURVE",
"409 1040 CURVE SMOOTH",
"436 1084 OFFCURVE",
"469 1147 OFFCURVE",
"596 1147 CURVE SMOOTH",
"693 1147 OFFCURVE",
"728 1083 OFFCURVE",
"794 962 CURVE SMOOTH",
"812 929 OFFCURVE",
"840 924 OFFCURVE",
"852 959 CURVE SMOOTH"
);
}
);
width = 1500;
}
);
unicode = 006D;
},
{
color = 7;
glyphname = n;
lastChange = "2013-06-12 15:10:19 -0400";
layers = (
{
anchors = (
{
name = bottom;
position = "{731, 0}";
},
{
name = top;
position = "{731, 1120}";
}
);
layerId = "6B6936E6-7670-4A82-900D-EAF583C971AF";
name = Regular;
paths = (
{
closed = 1;
nodes = (
"1252 51 LINE SMOOTH",
"1253 18 OFFCURVE",
"1236 0 OFFCURVE",
"1203 0 CURVE SMOOTH",
"1042 0 LINE SMOOTH",
"1008 0 OFFCURVE",
"991 18 OFFCURVE",
"993 51 CURVE SMOOTH",
"1030 680 LINE",
"1030 892 OFFCURVE",
"967 997 OFFCURVE",
"802 997 CURVE SMOOTH",
"577 997 OFFCURVE",
"471 862 OFFCURVE",
"471 643 CURVE",
"499 51 LINE SMOOTH",
"500 18 OFFCURVE",
"483 0 OFFCURVE",
"450 0 CURVE SMOOTH",
"297 0 LINE SMOOTH",
"264 0 OFFCURVE",
"246 18 OFFCURVE",
"247 51 CURVE SMOOTH",
"275 1081 LINE SMOOTH",
"276 1113 OFFCURVE",
"293 1130 OFFCURVE",
"325 1130 CURVE SMOOTH",
"411 1130 LINE SMOOTH",
"444 1130 OFFCURVE",
"461 1112 OFFCURVE",
"461 1080 CURVE SMOOTH",
"461 1071 LINE SMOOTH",
"461 1029 OFFCURVE",
"487 1016 OFFCURVE",
"521 1040 CURVE SMOOTH",
"601 1095 OFFCURVE",
"700 1147 OFFCURVE",
"823 1147 CURVE SMOOTH",
"1080 1147 OFFCURVE",
"1211 985 OFFCURVE",
"1224 676 CURVE SMOOTH"
);
}
);
width = 1500;
}
);
unicode = 006E;
},
{
color = 7;
glyphname = o;
lastChange = "2013-06-12 18:18:55 -0400";
layers = (
{
anchors = (
{
name = _;
position = "{704, 1120}";
},
{
name = horn;
position = "{1081, 803}";
},
{
name = top;
position = "{690, 1120}";
}
);
layerId = "6B6936E6-7670-4A82-900D-EAF583C971AF";
name = Regular;
paths = (
{
closed = 1;
nodes = (
"553 1011 OFFCURVE",
"430 851 OFFCURVE",
"430 591 CURVE SMOOTH",
"430 330 OFFCURVE",
"551 289 OFFCURVE",
"750 289 CURVE SMOOTH",
"946 289 OFFCURVE",
"1069 331 OFFCURVE",
"1069 591 CURVE SMOOTH",
"1069 848 OFFCURVE",
"946 1011 OFFCURVE",
"750 1011 CURVE SMOOTH"
);
},
{
closed = 1;
nodes = (
"1070 1147 OFFCURVE",
"1264 927 OFFCURVE",
"1264 559 CURVE SMOOTH",
"1264 192 OFFCURVE",
"1070 -29 OFFCURVE",
"750 -29 CURVE SMOOTH",
"429 -29 OFFCURVE",
"236 192 OFFCURVE",
"236 559 CURVE SMOOTH",
"236 927 OFFCURVE",
"429 1147 OFFCURVE",
"750 1147 CURVE SMOOTH"
);
}
);
width = 1500;
}
);
leftKerningGroup = Round;
rightKerningGroup = RoundRight;
unicode = 006F;
},
{
color = 7;
glyphname = p;
lastChange = "2013-06-12 15:10:19 -0400";
layers = (
{
hints = (
{
place = "{289.000000, 235.000000}";
},
{
horizontal = 1;
place = "{1018.000000, 128.000000}";
},
{
horizontal = 1;
place = "{-6.707031, 286.000000}";
},
{
place = "{1150.000000, 129.000000}";
}
);
layerId = "6B6936E6-7670-4A82-900D-EAF583C971AF";
name = Regular;
paths = (
{
closed = 1;
nodes = (
"453 -376 LINE SMOOTH",
"452 -409 OFFCURVE",
"435 -426 OFFCURVE",
"402 -426 CURVE SMOOTH",
"271 -426 LINE SMOOTH",
"237 -426 OFFCURVE",
"220 -407 OFFCURVE",
"224 -373 CURVE SMOOTH",
"306 260 LINE",
"306 1053 LINE SMOOTH",
"306 1086 OFFCURVE",
"324 1103 OFFCURVE",
"356 1103 CURVE SMOOTH",
"435 1103 LINE SMOOTH",
"470 1103 OFFCURVE",
"487 1083 OFFCURVE",
"480 1048 CURVE SMOOTH",
"479 1043 LINE SMOOTH",
"470 997 OFFCURVE",
"484 992 OFFCURVE",
"516 1027 CURVE SMOOTH",
"590 1108 OFFCURVE",
"689 1147 OFFCURVE",
"818 1147 CURVE SMOOTH",
"1090 1147 OFFCURVE",
"1277 911 OFFCURVE",
"1277 559 CURVE SMOOTH",
"1277 207 OFFCURVE",
"1090 -29 OFFCURVE",
"818 -29 CURVE SMOOTH",
"688 -29 OFFCURVE",
"587 11 OFFCURVE",
"513 95 CURVE SMOOTH",
"482 129 OFFCURVE",
"459 123 OFFCURVE",
"459 78 CURVE SMOOTH"
);
},
{
closed = 1;
nodes = (
"1159 862 OFFCURVE",
"1041 1025 OFFCURVE",
"846 1025 CURVE SMOOTH",
"651 1025 OFFCURVE",
"533 862 OFFCURVE",
"533 591 CURVE SMOOTH",
"533 320 OFFCURVE",
"661 274 OFFCURVE",
"856 274 CURVE SMOOTH",
"1051 274 OFFCURVE",
"1159 320 OFFCURVE",
"1159 591 CURVE SMOOTH"
);
}
);
width = 1500;
}
);
rightKerningGroup = RoundRight;
unicode = 0070;
},
{
color = 7;
glyphname = q;
lastChange = "2013-06-12 15:10:19 -0400";
layers = (
{
associatedMasterId = "6B6936E6-7670-4A82-900D-EAF583C971AF";
layerId = "550EFC85-22CC-4D43-B167-1DAEAAA2FB65";
name = "Regular May 31 12, 16:28";
paths = (
{
closed = 1;
nodes = (
"322 314 OFFCURVE",
"435 278 OFFCURVE",
"630 278 CURVE SMOOTH",
"825 278 OFFCURVE",
"949 314 OFFCURVE",
"949 585 CURVE SMOOTH",
"949 856 OFFCURVE",
"830 1019 OFFCURVE",
"635 1019 CURVE SMOOTH",
"440 1019 OFFCURVE",
"322 856 OFFCURVE",
"322 585 CURVE SMOOTH"
);
},
{
closed = 1;
nodes = (
"1017 168 LINE",
"940 35 OFFCURVE",
"823 -29 OFFCURVE",
"658 -29 CURVE SMOOTH",
"387 -29 OFFCURVE",
"200 207 OFFCURVE",
"200 559 CURVE SMOOTH",
"200 911 OFFCURVE",
"387 1147 OFFCURVE",
"658 1147 CURVE SMOOTH",
"823 1147 OFFCURVE",
"940 1083 OFFCURVE",
"1017 950 CURVE",
"1047 1120 LINE",
"1225 1120 LINE",
"1148 -242 LINE SMOOTH",
"1141 -426 LINE",
"971 -426 LINE"
);
}
);
width = 1470;
},
{
layerId = "6B6936E6-7670-4A82-900D-EAF583C971AF";
name = Regular;
paths = (
{
closed = 1;
nodes = (
"306 314 OFFCURVE",
"419 278 OFFCURVE",
"614 278 CURVE SMOOTH",
"809 278 OFFCURVE",
"933 314 OFFCURVE",
"933 585 CURVE SMOOTH",
"933 856 OFFCURVE",
"814 1019 OFFCURVE",
"619 1019 CURVE SMOOTH",
"424 1019 OFFCURVE",
"306 856 OFFCURVE",
"306 585 CURVE SMOOTH"
);
},
{
closed = 1;
nodes = (
"992 74 LINE SMOOTH",
"997 120 OFFCURVE",
"977 126 OFFCURVE",
"946 92 CURVE SMOOTH",
"871 10 OFFCURVE",
"771 -29 OFFCURVE",
"642 -29 CURVE SMOOTH",
"371 -29 OFFCURVE",
"184 207 OFFCURVE",
"184 559 CURVE SMOOTH",
"184 911 OFFCURVE",
"371 1147 OFFCURVE",
"642 1147 CURVE SMOOTH",
"777 1147 OFFCURVE",
"879 1104 OFFCURVE",
"954 1017 CURVE SMOOTH",
"983 983 OFFCURVE",
"1008 987 OFFCURVE",
"1015 1030 CURVE SMOOTH",
"1023 1075 LINE SMOOTH",
"1028 1105 OFFCURVE",
"1046 1120 OFFCURVE",
"1077 1120 CURVE SMOOTH",
"1158 1120 LINE SMOOTH",
"1191 1120 OFFCURVE",
"1208 1102 OFFCURVE",
"1206 1069 CURVE SMOOTH",
"1113 -234 LINE SMOOTH",
"1111 -260 OFFCURVE",
"1119 -279 OFFCURVE",
"1138 -297 CURVE SMOOTH",
"1299 -450 LINE SMOOTH",
"1323 -474 OFFCURVE",
"1322 -499 OFFCURVE",
"1297 -521 CURVE SMOOTH",
"1197 -605 LINE SMOOTH",
"1178 -622 OFFCURVE",
"1160 -628 OFFCURVE",
"1135 -628 CURVE SMOOTH",
"963 -630 LINE SMOOTH",
"929 -631 OFFCURVE",
"911 -612 OFFCURVE",
"915 -578 CURVE SMOOTH"
);
}
);
width = 1500;
}
);
leftKerningGroup = Round;
unicode = 0071;
},
{
color = 7;
glyphname = r;
lastChange = "2013-06-12 15:10:19 -0400";
layers = (
{
anchors = (
{
name = bottom;
position = "{658, 0}";
},
{
name = top;
position = "{658, 1120}";
}
);
layerId = "6B6936E6-7670-4A82-900D-EAF583C971AF";
name = Regular;
paths = (
{
closed = 1;
nodes = (
"1085 987 LINE SMOOTH",
"1085 951 OFFCURVE",
"1066 942 OFFCURVE",
"1031 948 CURVE SMOOTH",
"1006 953 OFFCURVE",
"980 953 OFFCURVE",
"947 953 CURVE SMOOTH",
"739 953 OFFCURVE",
"654 800 OFFCURVE",
"654 560 CURVE",
"690 52 LINE SMOOTH",
"693 19 OFFCURVE",
"675 0 OFFCURVE",
"642 0 CURVE SMOOTH",
"461 0 LINE SMOOTH",
"426 0 OFFCURVE",
"410 20 OFFCURVE",
"416 55 CURVE SMOOTH",
"488 461 OFFCURVE",
"497 637 OFFCURVE",
"486 1058 CURVE SMOOTH",
"485 1092 OFFCURVE",
"502 1110 OFFCURVE",
"535 1110 CURVE SMOOTH",
"604 1110 LINE SMOOTH",
"637 1110 OFFCURVE",
"654 1096 OFFCURVE",
"654 1069 CURVE SMOOTH",
"654 1028 OFFCURVE",
"679 1016 OFFCURVE",
"713 1038 CURVE SMOOTH",
"776 1078 OFFCURVE",
"878 1127 OFFCURVE",
"1001 1127 CURVE SMOOTH",
"1015 1127 OFFCURVE",
"1027 1126 OFFCURVE",
"1042 1124 CURVE SMOOTH",
"1070 1120 OFFCURVE",
"1084 1102 OFFCURVE",
"1084 1071 CURVE SMOOTH"
);
}
);
width = 1500;
}
);
unicode = 0072;
},
{
color = 7;
glyphname = s;
lastChange = "2013-06-12 15:10:19 -0400";
layers = (
{
anchors = (
{
name = bottom;
position = "{733, 0}";
},
{
name = top;
position = "{733, 1120}";
}
);
layerId = "6B6936E6-7670-4A82-900D-EAF583C971AF";
name = Regular;
paths = (
{
closed = 1;
nodes = (
"1118 997 LINE SMOOTH",
"1118 959 OFFCURVE",
"1095 945 OFFCURVE",
"1060 960 CURVE SMOOTH",
"973 995 OFFCURVE",
"880 1013 OFFCURVE",
"782 1013 CURVE SMOOTH",
"599 1013 OFFCURVE",
"498 947 OFFCURVE",
"498 835 CURVE SMOOTH",
"498 736 OFFCURVE",
"557 689 OFFCURVE",
"754 645 CURVE SMOOTH",
"817 631 LINE SMOOTH",
"1078 575 OFFCURVE",
"1178 492 OFFCURVE",
"1178 309 CURVE SMOOTH",
"1178 101 OFFCURVE",
"1003 -29 OFFCURVE",
"715 -29 CURVE SMOOTH",
"607 -29 OFFCURVE",
"491 -10 OFFCURVE",
"364 28 CURVE SMOOTH",
"335 36 OFFCURVE",
"322 55 OFFCURVE",
"322 84 CURVE SMOOTH",
"322 246 LINE SMOOTH",
"322 284 OFFCURVE",
"346 298 OFFCURVE",
"381 282 CURVE SMOOTH",
"496 231 OFFCURVE",
"609 205 OFFCURVE",
"719 205 CURVE SMOOTH",
"871 205 OFFCURVE",
"949 247 OFFCURVE",
"966 322 CURVE SMOOTH",
"971 346 OFFCURVE",
"965 363 OFFCURVE",
"952 384 CURVE SMOOTH",
"937 410 OFFCURVE",
"924 429 OFFCURVE",
"912 443 CURVE SMOOTH",
"896 461 OFFCURVE",
"831 482 OFFCURVE",
"717 507 CURVE SMOOTH",
"653 522 LINE SMOOTH",
"425 570 OFFCURVE",
"330 644 OFFCURVE",
"330 817 CURVE SMOOTH",
"330 1028 OFFCURVE",
"485 1147 OFFCURVE",
"760 1147 CURVE SMOOTH",
"879 1147 OFFCURVE",
"986 1132 OFFCURVE",
"1078 1101 CURVE SMOOTH",
"1106 1092 OFFCURVE",
"1118 1073 OFFCURVE",
"1118 1044 CURVE SMOOTH"
);
}
);
width = 1500;
}
);
unicode = 0073;
},
{
color = 7;
glyphname = t;
lastChange = "2013-06-12 15:10:19 -0400";
layers = (
{
anchors = (
{
name = bottom;
position = "{829, 0}";
},
{
name = center;
position = "{736, 560}";
},
{
name = circumflexbelowcomb;
position = "{846, -51}";
}
);
layerId = "6B6936E6-7670-4A82-900D-EAF583C971AF";
name = Regular;
paths = (
{
closed = 1;
nodes = (
"690 1398 LINE SMOOTH",
"723 1398 OFFCURVE",
"740 1380 OFFCURVE",
"739 1347 CURVE SMOOTH",
"733 1171 LINE SMOOTH",
"732 1138 OFFCURVE",
"749 1120 OFFCURVE",
"782 1120 CURVE SMOOTH",
"940 1120 LINE SMOOTH",
"973 1120 OFFCURVE",
"990 1102 OFFCURVE",
"990 1070 CURVE SMOOTH",
"990 1027 LINE SMOOTH",
"990 995 OFFCURVE",
"972 977 OFFCURVE",
"940 977 CURVE SMOOTH",
"780 977 LINE SMOOTH",
"748 977 OFFCURVE",
"731 960 OFFCURVE",
"730 928 CURVE SMOOTH",
"721 489 LINE SMOOTH",
"721 306 OFFCURVE",
"758 274 OFFCURVE",
"911 274 CURVE SMOOTH",
"1050 274 LINE SMOOTH",
"1083 274 OFFCURVE",
"1100 257 OFFCURVE",
"1100 224 CURVE SMOOTH",
"1100 50 LINE SMOOTH",
"1100 18 OFFCURVE",
"1082 0 OFFCURVE",
"1050 0 CURVE SMOOTH",
"911 0 LINE SMOOTH",
"627 0 OFFCURVE",
"494 89 OFFCURVE",
"508 369 CURVE SMOOTH",
"535 927 LINE SMOOTH",
"537 959 OFFCURVE",
"518 977 OFFCURVE",
"486 977 CURVE SMOOTH",
"444 977 LINE SMOOTH",
"416 977 OFFCURVE",
"401 995 OFFCURVE",
"401 1027 CURVE SMOOTH",
"401 1070 LINE SMOOTH",
"401 1103 OFFCURVE",
"418 1120 OFFCURVE",
"451 1120 CURVE SMOOTH",
"487 1120 LINE SMOOTH",
"518 1120 OFFCURVE",
"537 1137 OFFCURVE",
"538 1169 CURVE SMOOTH",
"544 1349 LINE SMOOTH",
"545 1381 OFFCURVE",
"563 1398 OFFCURVE",
"595 1398 CURVE SMOOTH"
);
}
);
width = 1500;
}
);
unicode = 0074;
},
{
color = 7;
glyphname = u;
lastChange = "2013-06-12 15:10:19 -0400";
layers = (
{
anchors = (
{
name = horn;
position = "{1176, 913}";
},
{
name = ogonek;
position = "{1118, 10}";
},
{
name = top;
position = "{757, 1120}";
}
);
layerId = "6B6936E6-7670-4A82-900D-EAF583C971AF";
name = Regular;
paths = (
{
closed = 1;
nodes = (
"276 1070 LINE SMOOTH",
"276 1103 OFFCURVE",
"293 1120 OFFCURVE",
"326 1120 CURVE SMOOTH",
"380 1120 LINE SMOOTH",
"413 1120 OFFCURVE",
"430 1103 OFFCURVE",
"430 1070 CURVE SMOOTH",
"430 609 LINE",
"443 397 OFFCURVE",
"513 291 OFFCURVE",
"678 291 CURVE SMOOTH",
"877 291 OFFCURVE",
"987 426 OFFCURVE",
"1000 645 CURVE SMOOTH",
"1018 1071 LINE SMOOTH",
"1019 1103 OFFCURVE",
"1037 1119 OFFCURVE",
"1069 1120 CURVE SMOOTH",
"1167 1123 LINE SMOOTH",
"1199 1124 OFFCURVE",
"1217 1105 OFFCURVE",
"1216 1073 CURVE SMOOTH",
"1198 53 LINE SMOOTH",
"1197 20 OFFCURVE",
"1180 4 OFFCURVE",
"1147 3 CURVE SMOOTH",
"1071 0 LINE SMOOTH",
"1038 -1 OFFCURVE",
"1021 18 OFFCURVE",
"1023 51 CURVE SMOOTH",
"1024 77 LINE SMOOTH",
"1027 123 OFFCURVE",
"1003 131 OFFCURVE",
"971 97 CURVE SMOOTH",
"891 12 OFFCURVE",
"793 -29 OFFCURVE",
"669 -29 CURVE SMOOTH",
"412 -29 OFFCURVE",
"276 134 OFFCURVE",
"276 442 CURVE SMOOTH"
);
}
);
width = 1500;
}
);
unicode = 0075;
},
{
color = 7;
glyphname = v;
lastChange = "2013-06-12 15:10:19 -0400";
layers = (
{
layerId = "6B6936E6-7670-4A82-900D-EAF583C971AF";
name = Regular;
paths = (
{
closed = 1;
nodes = (
"226 1063 LINE SMOOTH",
"213 1097 OFFCURVE",
"229 1120 OFFCURVE",
"266 1120 CURVE SMOOTH",
"358 1120 LINE SMOOTH",
"387 1120 OFFCURVE",
"405 1108 OFFCURVE",
"416 1082 CURVE SMOOTH",
"717 378 LINE SMOOTH",
"734 338 OFFCURVE",
"766 338 OFFCURVE",
"783 378 CURVE SMOOTH",
"1084 1082 LINE SMOOTH",
"1095 1108 OFFCURVE",
"1113 1120 OFFCURVE",
"1142 1120 CURVE SMOOTH",
"1234 1120 LINE SMOOTH",
"1271 1120 OFFCURVE",
"1287 1097 OFFCURVE",
"1274 1063 CURVE SMOOTH",
"900 40 LINE SMOOTH",
"890 13 OFFCURVE",
"871 0 OFFCURVE",
"842 0 CURVE SMOOTH",
"658 0 LINE SMOOTH",
"629 0 OFFCURVE",
"610 13 OFFCURVE",
"600 40 CURVE SMOOTH"
);
}
);
width = 1500;
}
);
unicode = 0076;
},
{
color = 7;
glyphname = w;
lastChange = "2013-06-12 18:01:46 -0400";
layers = (
{
anchors = (
{
name = top;
position = "{751, 1120}";
}
);
layerId = "6B6936E6-7670-4A82-900D-EAF583C971AF";
name = Regular;
paths = (
{
closed = 1;
nodes = (
"120 1064 LINE SMOOTH",
"114 1100 OFFCURVE",
"127 1120 OFFCURVE",
"163 1120 CURVE SMOOTH",
"245 1120 LINE SMOOTH",
"275 1120 OFFCURVE",
"296 1107 OFFCURVE",
"301 1078 CURVE SMOOTH",
"408 422 LINE SMOOTH",
"415 378 OFFCURVE",
"452 375 OFFCURVE",
"474 416 CURVE SMOOTH",
"612 675 LINE SMOOTH",
"625 700 OFFCURVE",
"644 710 OFFCURVE",
"672 710 CURVE SMOOTH",
"819 710 LINE SMOOTH",
"847 710 OFFCURVE",
"865 699 OFFCURVE",
"879 676 CURVE SMOOTH",
"1028 416 LINE SMOOTH",
"1050 377 OFFCURVE",
"1087 378 OFFCURVE",
"1094 422 CURVE SMOOTH",
"1198 1078 LINE SMOOTH",
"1203 1107 OFFCURVE",
"1224 1120 OFFCURVE",
"1254 1120 CURVE SMOOTH",
"1336 1120 LINE SMOOTH",
"1372 1120 OFFCURVE",
"1385 1100 OFFCURVE",
"1379 1064 CURVE SMOOTH",
"1200 43 LINE SMOOTH",
"1195 14 OFFCURVE",
"1175 0 OFFCURVE",
"1145 0 CURVE SMOOTH",
"973 0 LINE SMOOTH",
"945 0 OFFCURVE",
"926 12 OFFCURVE",
"915 38 CURVE SMOOTH",
"783 356 LINE SMOOTH",
"765 399 OFFCURVE",
"736 400 OFFCURVE",
"717 357 CURVE SMOOTH",
"576 37 LINE SMOOTH",
"565 12 OFFCURVE",
"546 0 OFFCURVE",
"518 0 CURVE SMOOTH",
"356 0 LINE SMOOTH",
"326 0 OFFCURVE",
"306 14 OFFCURVE",
"301 43 CURVE SMOOTH"
);
}
);
width = 1500;
}
);
unicode = 0077;
},
{
color = 7;
glyphname = x;
lastChange = "2013-06-12 15:10:19 -0400";
layers = (
{
layerId = "6B6936E6-7670-4A82-900D-EAF583C971AF";
name = Regular;
paths = (
{
closed = 1;
nodes = (
"1199 1120 LINE SMOOTH",
"1240 1120 OFFCURVE",
"1254 1094 OFFCURVE",
"1232 1059 CURVE SMOOTH",
"901 561 LINE SMOOTH",
"885 537 OFFCURVE",
"885 513 OFFCURVE",
"905 491 CURVE SMOOTH",
"1282 61 LINE SMOOTH",
"1311 28 OFFCURVE",
"1296 0 OFFCURVE",
"1253 0 CURVE SMOOTH",
"1054 0 LINE SMOOTH",
"1028 0 OFFCURVE",
"1009 9 OFFCURVE",
"994 32 CURVE SMOOTH",
"794 318 LINE SMOOTH",
"773 349 OFFCURVE",
"747 349 OFFCURVE",
"724 319 CURVE SMOOTH",
"507 30 LINE SMOOTH",
"491 9 OFFCURVE",
"473 0 OFFCURVE",
"446 0 CURVE SMOOTH",
"247 0 LINE SMOOTH",
"204 0 OFFCURVE",
"189 28 OFFCURVE",
"218 61 CURVE SMOOTH",
"604 502 LINE SMOOTH",
"624 524 OFFCURVE",
"624 548 OFFCURVE",
"608 572 CURVE SMOOTH",
"284 1059 LINE SMOOTH",
"262 1094 OFFCURVE",
"276 1120 OFFCURVE",
"317 1120 CURVE SMOOTH",
"402 1120 LINE SMOOTH",
"429 1120 OFFCURVE",
"447 1110 OFFCURVE",
"463 1088 CURVE SMOOTH",
"714 712 LINE SMOOTH",
"735 681 OFFCURVE",
"762 680 OFFCURVE",
"784 710 CURVE SMOOTH",
"1062 1089 LINE SMOOTH",
"1078 1111 OFFCURVE",
"1096 1120 OFFCURVE",
"1123 1120 CURVE SMOOTH"
);
}
);
width = 1500;
}
);
leftKerningGroup = Round;
unicode = 0078;
},
{
color = 7;
glyphname = y;
lastChange = "2013-06-12 15:10:19 -0400";
layers = (
{
anchors = (
{
name = top;
position = "{660, 1120}";
}
);
layerId = "6B6936E6-7670-4A82-900D-EAF583C971AF";
name = Regular;
paths = (
{
closed = 1;
nodes = (
"821 -104 LINE",
"690 -397 OFFCURVE",
"540 -547 OFFCURVE",
"375 -547 CURVE SMOOTH",
"258 -547 LINE SMOOTH",
"226 -547 OFFCURVE",
"208 -530 OFFCURVE",
"208 -497 CURVE SMOOTH",
"208 -353 LINE SMOOTH",
"208 -321 OFFCURVE",
"226 -303 OFFCURVE",
"258 -303 CURVE SMOOTH",
"336 -303 LINE SMOOTH",
"427 -303 OFFCURVE",
"526 -161 OFFCURVE",
"584 -90 CURVE SMOOTH",
"598 -72 OFFCURVE",
"607 -59 OFFCURVE",
"617 -39 CURVE SMOOTH",
"665 59 LINE SMOOTH",
"677 83 OFFCURVE",
"677 103 OFFCURVE",
"666 127 CURVE SMOOTH",
"230 1061 LINE SMOOTH",
"214 1096 OFFCURVE",
"229 1120 OFFCURVE",
"268 1120 CURVE SMOOTH",
"359 1120 LINE SMOOTH",
"386 1120 OFFCURVE",
"404 1110 OFFCURVE",
"418 1086 CURVE SMOOTH",
"756 531 LINE SMOOTH",
"778 496 OFFCURVE",
"807 498 OFFCURVE",
"825 535 CURVE SMOOTH",
"1081 1083 LINE SMOOTH",
"1093 1108 OFFCURVE",
"1111 1120 OFFCURVE",
"1139 1120 CURVE SMOOTH",
"1231 1120 LINE SMOOTH",
"1268 1120 OFFCURVE",
"1284 1097 OFFCURVE",
"1271 1062 CURVE SMOOTH"
);
}
);
width = 1500;
}
);
unicode = 0079;
},
{
color = 7;
glyphname = z;
lastChange = "2013-06-12 15:10:19 -0400";
layers = (
{
anchors = (
{
name = top;
position = "{797, 1120}";
}
);
layerId = "6B6936E6-7670-4A82-900D-EAF583C971AF";
name = Regular;
paths = (
{
closed = 1;
nodes = (
"341 1070 LINE SMOOTH",
"341 1102 OFFCURVE",
"358 1120 OFFCURVE",
"391 1120 CURVE SMOOTH",
"1155 1120 LINE SMOOTH",
"1188 1120 OFFCURVE",
"1205 1103 OFFCURVE",
"1205 1070 CURVE SMOOTH",
"1205 988 LINE SMOOTH",
"1205 962 OFFCURVE",
"1198 944 OFFCURVE",
"1181 926 CURVE SMOOTH",
"608 308 LINE SMOOTH",
"579 276 OFFCURVE",
"592 247 OFFCURVE",
"636 247 CURVE SMOOTH",
"1175 247 LINE SMOOTH",
"1208 247 OFFCURVE",
"1225 230 OFFCURVE",
"1225 197 CURVE SMOOTH",
"1225 50 LINE SMOOTH",
"1225 18 OFFCURVE",
"1208 0 OFFCURVE",
"1175 0 CURVE SMOOTH",
"326 0 LINE SMOOTH",
"294 0 OFFCURVE",
"276 17 OFFCURVE",
"276 50 CURVE SMOOTH",
"276 232 LINE SMOOTH",
"276 257 OFFCURVE",
"284 275 OFFCURVE",
"302 293 CURVE SMOOTH",
"947 921 LINE SMOOTH",
"979 952 OFFCURVE",
"966 983 OFFCURVE",
"921 983 CURVE SMOOTH",
"391 983 LINE SMOOTH",
"359 983 OFFCURVE",
"341 1000 OFFCURVE",
"341 1033 CURVE SMOOTH"
);
}
);
width = 1500;
}
);
unicode = 007A;
},
{
glyphname = braceleft;
lastChange = "2013-06-12 15:10:19 -0400";
layers = (
{
layerId = "6B6936E6-7670-4A82-900D-EAF583C971AF";
name = Regular;
paths = (
{
closed = 1;
nodes = (
"1027 -113 LINE SMOOTH",
"1060 -114 OFFCURVE",
"1077 -131 OFFCURVE",
"1076 -164 CURVE SMOOTH",
"1075 -298 LINE SMOOTH",
"1075 -330 OFFCURVE",
"1057 -348 OFFCURVE",
"1025 -347 CURVE SMOOTH",
"1013 -347 LINE SMOOTH",
"681 -340 OFFCURVE",
"609 -265 OFFCURVE",
"601 30 CURVE",
"605 268 LINE",
"616 469 OFFCURVE",
"589 536 OFFCURVE",
"400 540 CURVE SMOOTH",
"370 541 LINE SMOOTH",
"350 541 OFFCURVE",
"341 559 OFFCURVE",
"343 593 CURVE SMOOTH",
"347 636 LINE SMOOTH",
"350 667 OFFCURVE",
"368 684 OFFCURVE",
"399 683 CURVE SMOOTH",
"412 683 LINE",
"603 692 OFFCURVE",
"663 743 OFFCURVE",
"667 942 CURVE SMOOTH",
"671 1182 LINE SMOOTH",
"676 1477 OFFCURVE",
"764 1535 OFFCURVE",
"1096 1543 CURVE",
"1127 1543 LINE SMOOTH",
"1147 1542 OFFCURVE",
"1158 1524 OFFCURVE",
"1157 1492 CURVE SMOOTH",
"1156 1449 LINE SMOOTH",
"1155 1416 OFFCURVE",
"1138 1399 OFFCURVE",
"1105 1400 CURVE SMOOTH",
"1087 1400 LINE",
"886 1391 OFFCURVE",
"860 1363 OFFCURVE",
"856 1175 CURVE SMOOTH",
"852 927 LINE SMOOTH",
"848 742 OFFCURVE",
"777 704 OFFCURVE",
"693 620 CURVE SMOOTH",
"682 609 OFFCURVE",
"682 604 OFFCURVE",
"712 591 CURVE SMOOTH",
"821 546 OFFCURVE",
"802 458 OFFCURVE",
"790 298 CURVE",
"786 80 LINE",
"797 -55 OFFCURVE",
"821 -109 OFFCURVE",
"1009 -113 CURVE SMOOTH"
);
}
);
width = 1500;
}
);
unicode = 007B;
},
{
glyphname = bar;
lastChange = "2013-06-12 15:10:19 -0400";
layers = (
{
layerId = "6B6936E6-7670-4A82-900D-EAF583C971AF";
name = Regular;
paths = (
{
closed = 1;
nodes = (
"840 527 LINE",
"811 -604 LINE SMOOTH",
"810 -636 OFFCURVE",
"793 -653 OFFCURVE",
"761 -653 CURVE SMOOTH",
"671 -653 LINE SMOOTH",
"638 -653 OFFCURVE",
"621 -635 OFFCURVE",
"622 -602 CURVE SMOOTH",
"708 1936 LINE SMOOTH",
"709 1968 OFFCURVE",
"727 1985 OFFCURVE",
"759 1985 CURVE SMOOTH",
"829 1985 LINE SMOOTH",
"862 1985 OFFCURVE",
"880 1967 OFFCURVE",
"879 1934 CURVE SMOOTH"
);
}
);
width = 1500;
}
);
unicode = 007C;
},
{
glyphname = braceright;
lastChange = "2013-06-12 15:10:19 -0400";
layers = (
{
layerId = "6B6936E6-7670-4A82-900D-EAF583C971AF";
name = Regular;
paths = (
{
closed = 1;
nodes = (
"385 -210 LINE SMOOTH",
"385 -178 OFFCURVE",
"403 -160 OFFCURVE",
"435 -160 CURVE SMOOTH",
"455 -160 LINE SMOOTH",
"642 -160 OFFCURVE",
"688 -122 OFFCURVE",
"680 69 CURVE SMOOTH",
"670 297 LINE SMOOTH",
"662 470 OFFCURVE",
"692 556 OFFCURVE",
"804 598 CURVE SMOOTH",
"834 609 OFFCURVE",
"834 615 OFFCURVE",
"804 625 CURVE SMOOTH",
"692 665 OFFCURVE",
"650 751 OFFCURVE",
"650 936 CURVE SMOOTH",
"650 1184 LINE SMOOTH",
"650 1373 OFFCURVE",
"612 1413 OFFCURVE",
"425 1413 CURVE SMOOTH",
"390 1413 LINE SMOOTH",
"367 1413 OFFCURVE",
"355 1431 OFFCURVE",
"355 1463 CURVE SMOOTH",
"355 1506 LINE SMOOTH",
"355 1539 OFFCURVE",
"373 1556 OFFCURVE",
"405 1556 CURVE SMOOTH",
"418 1556 LINE SMOOTH",
"750 1556 OFFCURVE",
"834 1483 OFFCURVE",
"834 1188 CURVE SMOOTH",
"834 948 LINE SMOOTH",
"834 749 OFFCURVE",
"895 684 OFFCURVE",
"1084 684 CURVE SMOOTH",
"1115 684 LINE SMOOTH",
"1135 684 OFFCURVE",
"1146 666 OFFCURVE",
"1146 634 CURVE SMOOTH",
"1146 591 LINE SMOOTH",
"1146 559 OFFCURVE",
"1128 541 OFFCURVE",
"1096 541 CURVE SMOOTH",
"1084 541 LINE SMOOTH",
"895 541 OFFCURVE",
"845 475 OFFCURVE",
"854 274 CURVE SMOOTH",
"864 55 LINE SMOOTH",
"879 -270 OFFCURVE",
"780 -364 OFFCURVE",
"448 -364 CURVE SMOOTH",
"417 -364 LINE SMOOTH",
"396 -364 OFFCURVE",
"385 -347 OFFCURVE",
"385 -314 CURVE SMOOTH"
);
}
);
width = 1500;
}
);
unicode = 007D;
},
{
glyphname = asciitilde;
lastChange = "2013-06-12 15:10:19 -0400";
layers = (
{
layerId = "6B6936E6-7670-4A82-900D-EAF583C971AF";
name = Regular;
paths = (
{
closed = 1;
nodes = (
"1391 697 LINE SMOOTH",
"1391 670 OFFCURVE",
"1382 652 OFFCURVE",
"1360 636 CURVE SMOOTH",
"1234 541 OFFCURVE",
"1129 462 OFFCURVE",
"1010 462 CURVE SMOOTH",
"944 462 OFFCURVE",
"866 487 OFFCURVE",
"780 536 CURVE SMOOTH",
"761 547 OFFCURVE",
"738 557 OFFCURVE",
"738 557 CURVE",
"735 558 OFFCURVE",
"732 560 OFFCURVE",
"727 561 CURVE SMOOTH",
"719 564 OFFCURVE",
"709 569 OFFCURVE",
"689 579 CURVE SMOOTH",
"598 625 OFFCURVE",
"524 647 OFFCURVE",
"467 647 CURVE SMOOTH",
"369 647 OFFCURVE",
"276 577 OFFCURVE",
"171 489 CURVE SMOOTH",
"138 461 OFFCURVE",
"109 474 OFFCURVE",
"109 517 CURVE SMOOTH",
"109 607 LINE SMOOTH",
"109 634 OFFCURVE",
"118 652 OFFCURVE",
"140 668 CURVE SMOOTH",
"266 756 OFFCURVE",
"371 793 OFFCURVE",
"490 793 CURVE SMOOTH",
"563 793 OFFCURVE",
"649 773 OFFCURVE",
"747 733 CURVE SMOOTH",
"784 719 LINE SMOOTH",
"887 678 OFFCURVE",
"970 657 OFFCURVE",
"1033 657 CURVE SMOOTH",
"1130 657 OFFCURVE",
"1221 691 OFFCURVE",
"1329 770 CURVE SMOOTH",
"1364 795 OFFCURVE",
"1391 783 OFFCURVE",
"1391 741 CURVE SMOOTH"
);
}
);
width = 1500;
}
);
unicode = 007E;
},
{
glyphname = exclamdown;
lastChange = "2013-06-12 15:10:19 -0400";
layers = (
{
layerId = "6B6936E6-7670-4A82-900D-EAF583C971AF";
name = Regular;
paths = (
{
closed = 1;
nodes = (
"835 1312 LINE SMOOTH",
"839 1278 OFFCURVE",
"822 1259 OFFCURVE",
"788 1259 CURVE SMOOTH",
"651 1259 LINE SMOOTH",
"617 1259 OFFCURVE",
"600 1278 OFFCURVE",
"604 1312 CURVE SMOOTH",
"623 1486 LINE SMOOTH",
"626 1517 OFFCURVE",
"644 1533 OFFCURVE",
"675 1533 CURVE SMOOTH",
"764 1533 LINE SMOOTH",
"795 1533 OFFCURVE",
"813 1517 OFFCURVE",
"816 1486 CURVE SMOOTH"
);
},
{
closed = 1;
nodes = (
"896 55 LINE SMOOTH",
"898 22 OFFCURVE",
"881 3 OFFCURVE",
"848 3 CURVE SMOOTH",
"686 -2 LINE SMOOTH",
"654 -3 OFFCURVE",
"636 14 OFFCURVE",
"635 46 CURVE SMOOTH",
"622 651 LINE",
"630 959 LINE SMOOTH",
"631 991 OFFCURVE",
"648 1009 OFFCURVE",
"680 1010 CURVE SMOOTH",
"784 1013 LINE SMOOTH",
"816 1014 OFFCURVE",
"834 998 OFFCURVE",
"837 967 CURVE SMOOTH",
"865 659 LINE"
);
}
);
width = 1500;
}
);
unicode = 00A1;
},
{
glyphname = cent;
lastChange = "2013-06-12 15:10:19 -0400";
layers = (
{
layerId = "6B6936E6-7670-4A82-900D-EAF583C971AF";
name = Regular;
paths = (
{
closed = 1;
nodes = (
"816 952 LINE SMOOTH",
"817 987 OFFCURVE",
"796 1007 OFFCURVE",
"763 998 CURVE SMOOTH",
"599 956 OFFCURVE",
"503 801 OFFCURVE",
"498 555 CURVE SMOOTH",
"495 381 OFFCURVE",
"587 255 OFFCURVE",
"749 213 CURVE SMOOTH",
"782 204 OFFCURVE",
"803 222 OFFCURVE",
"804 257 CURVE SMOOTH"
);
},
{
closed = 1;
nodes = (
"1198 985 LINE SMOOTH",
"1197 946 OFFCURVE",
"1173 933 OFFCURVE",
"1138 950 CURVE SMOOTH",
"1081 978 OFFCURVE",
"1027 996 OFFCURVE",
"972 1005 CURVE SMOOTH",
"939 1010 OFFCURVE",
"920 991 OFFCURVE",
"919 958 CURVE SMOOTH",
"906 249 LINE SMOOTH",
"905 215 OFFCURVE",
"924 196 OFFCURVE",
"958 201 CURVE SMOOTH",
"1014 209 OFFCURVE",
"1069 225 OFFCURVE",
"1127 249 CURVE SMOOTH",
"1162 265 OFFCURVE",
"1185 250 OFFCURVE",
"1185 212 CURVE SMOOTH",
"1182 69 LINE SMOOTH",
"1181 40 OFFCURVE",
"1169 22 OFFCURVE",
"1142 12 CURVE SMOOTH",
"1081 -11 OFFCURVE",
"1017 -27 OFFCURVE",
"948 -35 CURVE SMOOTH",
"917 -39 OFFCURVE",
"901 -56 OFFCURVE",
"900 -87 CURVE SMOOTH",
"897 -274 LINE SMOOTH",
"896 -306 OFFCURVE",
"878 -324 OFFCURVE",
"846 -323 CURVE SMOOTH",
"844 -323 LINE SMOOTH",
"811 -322 OFFCURVE",
"794 -305 OFFCURVE",
"795 -272 CURVE SMOOTH",
"798 -81 LINE SMOOTH",
"799 -50 OFFCURVE",
"783 -33 OFFCURVE",
"752 -28 CURVE SMOOTH",
"461 20 OFFCURVE",
"298 233 OFFCURVE",
"303 559 CURVE SMOOTH",
"310 886 OFFCURVE",
"479 1091 OFFCURVE",
"773 1131 CURVE SMOOTH",
"804 1135 OFFCURVE",
"820 1152 OFFCURVE",
"821 1183 CURVE SMOOTH",
"824 1373 LINE SMOOTH",
"825 1405 OFFCURVE",
"843 1423 OFFCURVE",
"875 1422 CURVE SMOOTH",
"877 1422 LINE SMOOTH",
"910 1421 OFFCURVE",
"927 1404 OFFCURVE",
"926 1371 CURVE SMOOTH",
"924 1182 LINE SMOOTH",
"923 1150 OFFCURVE",
"939 1133 OFFCURVE",
"971 1129 CURVE SMOOTH",
"1037 1121 OFFCURVE",
"1099 1104 OFFCURVE",
"1161 1078 CURVE SMOOTH",
"1187 1067 OFFCURVE",
"1199 1048 OFFCURVE",
"1198 1020 CURVE SMOOTH"
);
}
);
width = 1500;
}
);
unicode = 00A2;
},
{
glyphname = sterling;
lastChange = "2013-06-12 15:10:19 -0400";
layers = (
{
layerId = "6B6936E6-7670-4A82-900D-EAF583C971AF";
name = Regular;
paths = (
{
closed = 1;
nodes = (
"1253 1326 LINE SMOOTH",
"1252 1288 OFFCURVE",
"1228 1274 OFFCURVE",
"1193 1291 CURVE SMOOTH",
"1116 1328 OFFCURVE",
"1045 1347 OFFCURVE",
"980 1348 CURVE",
"783 1337 OFFCURVE",
"714 1268 OFFCURVE",
"706 985 CURVE SMOOTH",
"701 820 LINE SMOOTH",
"700 788 OFFCURVE",
"718 770 OFFCURVE",
"750 769 CURVE SMOOTH",
"1041 764 LINE SMOOTH",
"1073 763 OFFCURVE",
"1091 745 OFFCURVE",
"1090 713 CURVE SMOOTH",
"1089 690 LINE SMOOTH",
"1088 657 OFFCURVE",
"1071 640 OFFCURVE",
"1038 641 CURVE SMOOTH",
"747 646 LINE SMOOTH",
"714 647 OFFCURVE",
"697 630 OFFCURVE",
"696 597 CURVE SMOOTH",
"686 262 LINE SMOOTH",
"685 230 OFFCURVE",
"703 212 OFFCURVE",
"735 211 CURVE SMOOTH",
"1192 204 LINE SMOOTH",
"1224 203 OFFCURVE",
"1241 185 OFFCURVE",
"1241 153 CURVE SMOOTH",
"1237 33 LINE SMOOTH",
"1236 0 OFFCURVE",
"1219 -17 OFFCURVE",
"1186 -16 CURVE SMOOTH",
"293 -1 LINE SMOOTH",
"261 0 OFFCURVE",
"244 18 OFFCURVE",
"244 50 CURVE SMOOTH",
"248 170 LINE SMOOTH",
"249 203 OFFCURVE",
"266 220 OFFCURVE",
"299 219 CURVE SMOOTH",
"435 217 LINE SMOOTH",
"468 216 OFFCURVE",
"485 233 OFFCURVE",
"486 266 CURVE SMOOTH",
"496 601 LINE SMOOTH",
"497 633 OFFCURVE",
"479 651 OFFCURVE",
"447 652 CURVE SMOOTH",
"348 653 LINE SMOOTH",
"316 654 OFFCURVE",
"298 672 OFFCURVE",
"299 704 CURVE SMOOTH",
"300 727 LINE SMOOTH",
"301 760 OFFCURVE",
"318 777 OFFCURVE",
"351 776 CURVE SMOOTH",
"450 775 LINE SMOOTH",
"483 774 OFFCURVE",
"501 791 OFFCURVE",
"501 824 CURVE SMOOTH",
"507 1012 LINE SMOOTH",
"516 1360 OFFCURVE",
"656 1500 OFFCURVE",
"967 1508 CURVE",
"1037 1507 OFFCURVE",
"1125 1489 OFFCURVE",
"1215 1458 CURVE SMOOTH",
"1243 1448 OFFCURVE",
"1256 1429 OFFCURVE",
"1255 1400 CURVE SMOOTH"
);
}
);
width = 1500;
}
);
unicode = 00A3;
},
{
glyphname = currency;
lastChange = "2013-06-12 15:10:19 -0400";
layers = (
{
layerId = "6B6936E6-7670-4A82-900D-EAF583C971AF";
name = Regular;
paths = (
{
closed = 1;
nodes = (
"1160 1166 LINE SMOOTH",
"1183 1189 OFFCURVE",
"1207 1189 OFFCURVE",
"1230 1166 CURVE SMOOTH",
"1274 1122 LINE SMOOTH",
"1297 1099 OFFCURVE",
"1297 1075 OFFCURVE",
"1274 1052 CURVE SMOOTH",
"1134 912 LINE SMOOTH",
"1113 891 OFFCURVE",
"1111 869 OFFCURVE",
"1125 842 CURVE SMOOTH",
"1159 776 OFFCURVE",
"1176 710 OFFCURVE",
"1176 641 CURVE SMOOTH",
"1176 571 OFFCURVE",
"1159 507 OFFCURVE",
"1122 444 CURVE SMOOTH",
"1107 418 OFFCURVE",
"1109 396 OFFCURVE",
"1130 374 CURVE SMOOTH",
"1271 234 LINE SMOOTH",
"1294 211 OFFCURVE",
"1294 187 OFFCURVE",
"1271 164 CURVE SMOOTH",
"1228 121 LINE SMOOTH",
"1205 98 OFFCURVE",
"1181 98 OFFCURVE",
"1158 121 CURVE SMOOTH",
"1018 261 LINE SMOOTH",
"996 283 OFFCURVE",
"974 284 OFFCURVE",
"948 269 CURVE SMOOTH",
"882 233 OFFCURVE",
"818 215 OFFCURVE",
"750 215 CURVE SMOOTH",
"685 215 OFFCURVE",
"618 233 OFFCURVE",
"550 267 CURVE SMOOTH",
"523 281 OFFCURVE",
"501 279 OFFCURVE",
"480 258 CURVE SMOOTH",
"339 117 LINE SMOOTH",
"316 94 OFFCURVE",
"292 95 OFFCURVE",
"269 118 CURVE SMOOTH",
"226 161 LINE SMOOTH",
"203 185 OFFCURVE",
"203 209 OFFCURVE",
"226 232 CURVE SMOOTH",
"367 372 LINE SMOOTH",
"388 393 OFFCURVE",
"390 415 OFFCURVE",
"377 442 CURVE SMOOTH",
"342 510 OFFCURVE",
"324 576 OFFCURVE",
"324 641 CURVE SMOOTH",
"324 712 OFFCURVE",
"341 776 OFFCURVE",
"376 839 CURVE SMOOTH",
"391 865 OFFCURVE",
"390 887 OFFCURVE",
"368 909 CURVE SMOOTH",
"229 1048 LINE SMOOTH",
"205 1071 OFFCURVE",
"205 1095 OFFCURVE",
"228 1118 CURVE SMOOTH",
"273 1163 LINE SMOOTH",
"296 1186 OFFCURVE",
"320 1186 OFFCURVE",
"343 1163 CURVE SMOOTH",
"483 1023 LINE SMOOTH",
"504 1002 OFFCURVE",
"527 1000 OFFCURVE",
"553 1015 CURVE SMOOTH",
"615 1051 OFFCURVE",
"680 1067 OFFCURVE",
"750 1067 CURVE SMOOTH",
"817 1067 OFFCURVE",
"882 1051 OFFCURVE",
"949 1015 CURVE SMOOTH",
"976 1001 OFFCURVE",
"998 1003 OFFCURVE",
"1019 1025 CURVE SMOOTH"
);
},
{
closed = 1;
nodes = (
"1019 792 OFFCURVE",
"902 909 OFFCURVE",
"750 909 CURVE SMOOTH",
"601 909 OFFCURVE",
"480 792 OFFCURVE",
"480 643 CURVE SMOOTH",
"480 491 OFFCURVE",
"599 449 OFFCURVE",
"750 449 CURVE SMOOTH",
"901 449 OFFCURVE",
"1019 492 OFFCURVE",
"1019 643 CURVE SMOOTH"
);
}
);
width = 1500;
}
);
unicode = 00A4;
},
{
glyphname = yen;
lastChange = "2013-06-12 15:10:19 -0400";
layers = (
{
layerId = "6B6936E6-7670-4A82-900D-EAF583C971AF";
name = Regular;
paths = (
{
closed = 1;
nodes = (
"1275 465 LINE SMOOTH",
"1275 432 OFFCURVE",
"1258 415 OFFCURVE",
"1225 415 CURVE SMOOTH",
"913 415 LINE SMOOTH",
"880 415 OFFCURVE",
"863 397 OFFCURVE",
"864 364 CURVE SMOOTH",
"879 51 LINE SMOOTH",
"881 18 OFFCURVE",
"864 0 OFFCURVE",
"831 0 CURVE SMOOTH",
"673 0 LINE SMOOTH",
"640 0 OFFCURVE",
"622 19 OFFCURVE",
"625 52 CURVE SMOOTH",
"647 363 LINE SMOOTH",
"650 396 OFFCURVE",
"632 415 OFFCURVE",
"599 415 CURVE SMOOTH",
"285 415 LINE SMOOTH",
"253 415 OFFCURVE",
"235 433 OFFCURVE",
"235 465 CURVE SMOOTH",
"235 528 LINE SMOOTH",
"235 561 OFFCURVE",
"253 578 OFFCURVE",
"285 578 CURVE SMOOTH",
"601 578 LINE SMOOTH",
"634 578 OFFCURVE",
"651 584 OFFCURVE",
"651 595 CURVE SMOOTH",
"651 620 OFFCURVE",
"646 637 OFFCURVE",
"632 657 CURVE SMOOTH",
"569 752 LINE SMOOTH",
"553 774 OFFCURVE",
"535 784 OFFCURVE",
"508 784 CURVE SMOOTH",
"265 784 LINE SMOOTH",
"233 784 OFFCURVE",
"215 802 OFFCURVE",
"215 834 CURVE SMOOTH",
"215 857 LINE SMOOTH",
"215 890 OFFCURVE",
"232 907 OFFCURVE",
"265 907 CURVE SMOOTH",
"412 907 LINE SMOOTH",
"451 907 OFFCURVE",
"466 932 OFFCURVE",
"448 966 CURVE SMOOTH",
"203 1434 LINE SMOOTH",
"185 1468 OFFCURVE",
"200 1493 OFFCURVE",
"239 1493 CURVE SMOOTH",
"342 1493 LINE SMOOTH",
"370 1493 OFFCURVE",
"388 1482 OFFCURVE",
"401 1457 CURVE SMOOTH",
"717 858 LINE SMOOTH",
"736 822 OFFCURVE",
"766 822 OFFCURVE",
"785 858 CURVE SMOOTH",
"1099 1457 LINE SMOOTH",
"1112 1482 OFFCURVE",
"1130 1493 OFFCURVE",
"1158 1493 CURVE SMOOTH",
"1261 1493 LINE SMOOTH",
"1301 1493 OFFCURVE",
"1315 1468 OFFCURVE",
"1297 1433 CURVE SMOOTH",
"1043 967 LINE SMOOTH",
"1025 932 OFFCURVE",
"1039 907 OFFCURVE",
"1079 907 CURVE SMOOTH",
"1225 907 LINE SMOOTH",
"1258 907 OFFCURVE",
"1275 889 OFFCURVE",
"1275 857 CURVE SMOOTH",
"1275 834 LINE SMOOTH",
"1275 802 OFFCURVE",
"1257 784 OFFCURVE",
"1225 784 CURVE SMOOTH",
"984 784 LINE SMOOTH",
"956 784 OFFCURVE",
"938 773 OFFCURVE",
"925 749 CURVE SMOOTH",
"876 659 LINE SMOOTH",
"864 637 OFFCURVE",
"860 629 OFFCURVE",
"860 628 CURVE SMOOTH",
"860 596 OFFCURVE",
"878 578 OFFCURVE",
"910 578 CURVE SMOOTH",
"1225 578 LINE SMOOTH",
"1258 578 OFFCURVE",
"1275 560 OFFCURVE",
"1275 528 CURVE SMOOTH"
);
}
);
width = 1500;
}
);
unicode = 00A5;
},
{
glyphname = brokenbar;
lastChange = "2013-06-12 15:10:19 -0400";
layers = (
{
layerId = "6B6936E6-7670-4A82-900D-EAF583C971AF";
name = Regular;
paths = (
{
closed = 1;
nodes = (
"783 -771 LINE SMOOTH",
"782 -803 OFFCURVE",
"764 -820 OFFCURVE",
"732 -820 CURVE SMOOTH",
"642 -820 LINE SMOOTH",
"609 -820 OFFCURVE",
"592 -802 OFFCURVE",
"594 -769 CURVE SMOOTH",
"664 477 LINE SMOOTH",
"666 509 OFFCURVE",
"684 526 OFFCURVE",
"716 526 CURVE SMOOTH",
"786 526 LINE SMOOTH",
"819 526 OFFCURVE",
"836 508 OFFCURVE",
"835 475 CURVE SMOOTH"
);
},
{
closed = 1;
nodes = (
"729 829 LINE SMOOTH",
"696 829 OFFCURVE",
"679 847 OFFCURVE",
"680 880 CURVE SMOOTH",
"737 2067 LINE SMOOTH",
"738 2099 OFFCURVE",
"756 2116 OFFCURVE",
"788 2116 CURVE SMOOTH",
"858 2116 LINE SMOOTH",
"891 2116 OFFCURVE",
"908 2098 OFFCURVE",
"907 2065 CURVE SMOOTH",
"850 878 LINE SMOOTH",
"849 846 OFFCURVE",
"831 829 OFFCURVE",
"799 829 CURVE SMOOTH"
);
}
);
width = 1500;
}
);
unicode = 00A6;
},
{
glyphname = section;
lastChange = "2013-06-12 15:10:19 -0400";
layers = (
{
layerId = "6B6936E6-7670-4A82-900D-EAF583C971AF";
name = Regular;
paths = (
{
closed = 1;
nodes = (
"523 912 OFFCURVE",
"493 860 OFFCURVE",
"493 808 CURVE SMOOTH",
"493 757 OFFCURVE",
"516 710 OFFCURVE",
"563 666 CURVE SMOOTH",
"605 624 OFFCURVE",
"699 564 OFFCURVE",
"845 484 CURVE SMOOTH",
"870 470 OFFCURVE",
"893 471 OFFCURVE",
"915 490 CURVE SMOOTH",
"977 541 OFFCURVE",
"1007 594 OFFCURVE",
"1007 646 CURVE SMOOTH",
"1007 696 OFFCURVE",
"983 744 OFFCURVE",
"936 789 CURVE SMOOTH",
"892 830 OFFCURVE",
"798 891 OFFCURVE",
"655 970 CURVE SMOOTH",
"630 984 OFFCURVE",
"607 983 OFFCURVE",
"585 964 CURVE SMOOTH"
);
},
{
closed = 1;
nodes = (
"1068 1361 LINE SMOOTH",
"1068 1324 OFFCURVE",
"1045 1309 OFFCURVE",
"1009 1324 CURVE SMOOTH",
"923 1359 OFFCURVE",
"847 1376 OFFCURVE",
"786 1376 CURVE SMOOTH",
"657 1376 OFFCURVE",
"581 1320 OFFCURVE",
"581 1225 CURVE SMOOTH",
"581 1165 OFFCURVE",
"650 1097 OFFCURVE",
"787 1020 CURVE SMOOTH",
"827 997 LINE SMOOTH",
"968 918 OFFCURVE",
"1060 852 OFFCURVE",
"1104 801 CURVE SMOOTH",
"1147 750 OFFCURVE",
"1169 690 OFFCURVE",
"1169 623 CURVE SMOOTH",
"1169 519 OFFCURVE",
"1123 436 OFFCURVE",
"1031 370 CURVE SMOOTH",
"1002 349 OFFCURVE",
"1001 328 OFFCURVE",
"1025 302 CURVE SMOOTH",
"1079 245 OFFCURVE",
"1103 185 OFFCURVE",
"1103 115 CURVE SMOOTH",
"1103 -74 OFFCURVE",
"957 -195 OFFCURVE",
"726 -195 CURVE SMOOTH",
"641 -195 OFFCURVE",
"552 -180 OFFCURVE",
"453 -150 CURVE SMOOTH",
"424 -142 OFFCURVE",
"418 -123 OFFCURVE",
"411 -94 CURVE SMOOTH",
"369 84 LINE SMOOTH",
"360 121 OFFCURVE",
"392 136 OFFCURVE",
"428 122 CURVE SMOOTH",
"519 87 OFFCURVE",
"598 69 OFFCURVE",
"662 69 CURVE SMOOTH",
"798 69 OFFCURVE",
"877 98 OFFCURVE",
"877 199 CURVE SMOOTH",
"877 254 OFFCURVE",
"783 286 OFFCURVE",
"698 334 CURVE SMOOTH",
"673 348 LINE SMOOTH",
"530 428 OFFCURVE",
"438 494 OFFCURVE",
"395 545 CURVE SMOOTH",
"352 596 OFFCURVE",
"331 655 OFFCURVE",
"331 723 CURVE SMOOTH",
"331 827 OFFCURVE",
"378 914 OFFCURVE",
"468 977 CURVE SMOOTH",
"497 997 OFFCURVE",
"498 1017 OFFCURVE",
"474 1042 CURVE SMOOTH",
"422 1094 OFFCURVE",
"397 1157 OFFCURVE",
"397 1231 CURVE SMOOTH",
"397 1404 OFFCURVE",
"542 1520 OFFCURVE",
"763 1520 CURVE SMOOTH",
"847 1520 OFFCURVE",
"937 1506 OFFCURVE",
"1027 1476 CURVE SMOOTH",
"1055 1467 OFFCURVE",
"1068 1448 OFFCURVE",
"1068 1419 CURVE SMOOTH"
);
}
);
width = 1500;
}
);
unicode = 00A7;
},
{
glyphname = dieresis;
lastChange = "2013-06-12 15:10:19 -0400";
layers = (
{
anchors = (
{
name = _top;
position = "{751, 1120}";
}
);
layerId = "6B6936E6-7670-4A82-900D-EAF583C971AF";
name = Regular;
paths = (
{
closed = 1;
nodes = (
"851 1517 LINE SMOOTH",
"851 1550 OFFCURVE",
"868 1567 OFFCURVE",
"901 1567 CURVE SMOOTH",
"1019 1567 LINE SMOOTH",
"1052 1567 OFFCURVE",
"1069 1550 OFFCURVE",
"1069 1517 CURVE SMOOTH",
"1069 1400 LINE SMOOTH",
"1069 1368 OFFCURVE",
"1052 1350 OFFCURVE",
"1019 1350 CURVE SMOOTH",
"901 1350 LINE SMOOTH",
"869 1350 OFFCURVE",
"851 1368 OFFCURVE",
"851 1400 CURVE SMOOTH"
);
},
{
closed = 1;
nodes = (
"432 1517 LINE SMOOTH",
"432 1550 OFFCURVE",
"449 1567 OFFCURVE",
"482 1567 CURVE SMOOTH",
"600 1567 LINE SMOOTH",
"633 1567 OFFCURVE",
"650 1550 OFFCURVE",
"650 1517 CURVE SMOOTH",
"650 1400 LINE SMOOTH",
"650 1368 OFFCURVE",
"633 1350 OFFCURVE",
"600 1350 CURVE SMOOTH",
"482 1350 LINE SMOOTH",
"450 1350 OFFCURVE",
"432 1368 OFFCURVE",
"432 1400 CURVE SMOOTH"
);
}
);
width = 1500;
}
);
unicode = 00A8;
},
{
glyphname = copyright;
lastChange = "2013-06-12 15:10:19 -0400";
layers = (
{
layerId = "6B6936E6-7670-4A82-900D-EAF583C971AF";
name = Regular;
paths = (
{
closed = 1;
nodes = (
"953 1485 OFFCURVE",
"1129 1411 OFFCURVE",
"1274 1266 CURVE SMOOTH",
"1419 1121 OFFCURVE",
"1491 946 OFFCURVE",
"1491 741 CURVE SMOOTH",
"1491 538 OFFCURVE",
"1419 364 OFFCURVE",
"1274 219 CURVE SMOOTH",
"1129 74 OFFCURVE",
"953 0 OFFCURVE",
"750 0 CURVE SMOOTH",
"547 0 OFFCURVE",
"371 74 OFFCURVE",
"226 219 CURVE SMOOTH",
"81 364 OFFCURVE",
"9 538 OFFCURVE",
"9 741 CURVE SMOOTH",
"9 946 OFFCURVE",
"81 1121 OFFCURVE",
"226 1266 CURVE SMOOTH",
"371 1411 OFFCURVE",
"547 1485 OFFCURVE",
"750 1485 CURVE SMOOTH"
);
},
{
closed = 1;
nodes = (
"575 1382 OFFCURVE",
"424 1319 OFFCURVE",
"299 1194 CURVE SMOOTH",
"174 1069 OFFCURVE",
"109 914 OFFCURVE",
"109 741 CURVE SMOOTH",
"109 569 OFFCURVE",
"174 433 OFFCURVE",
"299 321 CURVE",
"424 236 OFFCURVE",
"575 182 OFFCURVE",
"750 182 CURVE SMOOTH",
"926 182 OFFCURVE",
"1078 236 OFFCURVE",
"1203 321 CURVE",
"1327 418 OFFCURVE",
"1389 566 OFFCURVE",
"1389 741 CURVE SMOOTH",
"1389 918 OFFCURVE",
"1326 1070 OFFCURVE",
"1203 1194 CURVE SMOOTH",
"1078 1319 OFFCURVE",
"926 1382 OFFCURVE",
"750 1382 CURVE SMOOTH"
);
},
{
closed = 1;
nodes = (
"1049 1061 OFFCURVE",
"1026 1050 OFFCURVE",
"991 1064 CURVE SMOOTH",
"923 1090 OFFCURVE",
"856 1103 OFFCURVE",
"787 1103 CURVE SMOOTH",
"588 1103 OFFCURVE",
"471 950 OFFCURVE",
"471 741 CURVE SMOOTH",
"471 609 OFFCURVE",
"590 468 OFFCURVE",
"797 468 CURVE SMOOTH",
"863 468 OFFCURVE",
"925 480 OFFCURVE",
"991 506 CURVE SMOOTH",
"1026 521 OFFCURVE",
"1049 507 OFFCURVE",
"1049 469 CURVE SMOOTH",
"1049 388 LINE SMOOTH",
"1049 359 OFFCURVE",
"1037 340 OFFCURVE",
"1010 330 CURVE SMOOTH",
"933 302 OFFCURVE",
"855 289 OFFCURVE",
"775 289 CURVE SMOOTH",
"487 289 OFFCURVE",
"308 464 OFFCURVE",
"308 741 CURVE SMOOTH",
"308 1020 OFFCURVE",
"487 1192 OFFCURVE",
"775 1192 CURVE SMOOTH",
"857 1192 OFFCURVE",
"935 1178 OFFCURVE",
"1010 1152 CURVE SMOOTH",
"1037 1142 OFFCURVE",
"1049 1124 OFFCURVE",
"1049 1095 CURVE SMOOTH"
);
}
);
width = 1500;
}
);
unicode = 00A9;
},
{
glyphname = ordfeminine;
lastChange = "2013-06-12 15:10:19 -0400";
layers = (
{
layerId = "6B6936E6-7670-4A82-900D-EAF583C971AF";
name = Regular;
paths = (
{
closed = 1;
nodes = (
"418 542 LINE SMOOTH",
"418 574 OFFCURVE",
"436 592 OFFCURVE",
"468 592 CURVE SMOOTH",
"1056 592 LINE SMOOTH",
"1089 592 OFFCURVE",
"1106 574 OFFCURVE",
"1106 542 CURVE SMOOTH",
"1106 519 LINE SMOOTH",
"1106 487 OFFCURVE",
"1088 469 OFFCURVE",
"1056 469 CURVE SMOOTH",
"468 469 LINE SMOOTH",
"436 469 OFFCURVE",
"418 486 OFFCURVE",
"418 519 CURVE SMOOTH"
);
},
{
closed = 1;
nodes = (
"1104 767 LINE SMOOTH",
"1104 735 OFFCURVE",
"1087 717 OFFCURVE",
"1054 717 CURVE SMOOTH",
"1005 717 LINE SMOOTH",
"973 717 OFFCURVE",
"955 729 OFFCURVE",
"955 750 CURVE SMOOTH",
"955 793 OFFCURVE",
"935 799 OFFCURVE",
"901 771 CURVE SMOOTH",
"843 724 OFFCURVE",
"766 698 OFFCURVE",
"674 698 CURVE SMOOTH",
"503 698 OFFCURVE",
"394 795 OFFCURVE",
"394 946 CURVE SMOOTH",
"394 1126 OFFCURVE",
"522 1219 OFFCURVE",
"773 1219 CURVE SMOOTH",
"905 1219 LINE SMOOTH",
"938 1219 OFFCURVE",
"955 1220 OFFCURVE",
"955 1223 CURVE SMOOTH",
"955 1344 OFFCURVE",
"877 1405 OFFCURVE",
"721 1405 CURVE SMOOTH",
"656 1405 OFFCURVE",
"585 1391 OFFCURVE",
"513 1363 CURVE SMOOTH",
"478 1349 OFFCURVE",
"455 1363 OFFCURVE",
"455 1400 CURVE SMOOTH",
"455 1421 LINE SMOOTH",
"455 1450 OFFCURVE",
"468 1469 OFFCURVE",
"495 1478 CURVE SMOOTH",
"579 1506 OFFCURVE",
"663 1520 OFFCURVE",
"742 1520 CURVE SMOOTH",
"986 1520 OFFCURVE",
"1104 1404 OFFCURVE",
"1104 1165 CURVE SMOOTH"
);
},
{
closed = 1;
nodes = (
"818 1169 LINE SMOOTH",
"711 1169 OFFCURVE",
"636 1158 OFFCURVE",
"594 1136 CURVE SMOOTH",
"552 1113 OFFCURVE",
"531 1076 OFFCURVE",
"531 1023 CURVE SMOOTH",
"531 938 OFFCURVE",
"602 882 OFFCURVE",
"711 882 CURVE SMOOTH",
"850 882 OFFCURVE",
"945 988 OFFCURVE",
"945 1140 CURVE SMOOTH",
"945 1119 LINE SMOOTH",
"945 1152 OFFCURVE",
"928 1169 OFFCURVE",
"895 1169 CURVE SMOOTH"
);
}
);
width = 1500;
}
);
unicode = 00AA;
},
{
glyphname = guillemotleft;
lastChange = "2013-06-12 15:10:19 -0400";
layers = (
{
layerId = "6B6936E6-7670-4A82-900D-EAF583C971AF";
name = Regular;
paths = (
{
closed = 1;
nodes = (
"1164 973 LINE SMOOTH",
"1197 1001 OFFCURVE",
"1226 987 OFFCURVE",
"1224 944 CURVE SMOOTH",
"1222 872 LINE SMOOTH",
"1221 846 OFFCURVE",
"1213 828 OFFCURVE",
"1193 811 CURVE SMOOTH",
"951 611 LINE SMOOTH",
"925 589 OFFCURVE",
"924 564 OFFCURVE",
"949 540 CURVE SMOOTH",
"1174 326 LINE SMOOTH",
"1193 307 OFFCURVE",
"1200 287 OFFCURVE",
"1194 261 CURVE SMOOTH",
"1169 139 LINE SMOOTH",
"1160 100 OFFCURVE",
"1132 91 OFFCURVE",
"1103 119 CURVE SMOOTH",
"730 475 LINE SMOOTH",
"709 495 OFFCURVE",
"705 516 OFFCURVE",
"714 543 CURVE SMOOTH",
"733 593 LINE SMOOTH",
"741 615 OFFCURVE",
"751 630 OFFCURVE",
"770 645 CURVE SMOOTH"
);
},
{
closed = 1;
nodes = (
"730 988 LINE SMOOTH",
"764 1016 OFFCURVE",
"792 1002 OFFCURVE",
"791 958 CURVE SMOOTH",
"788 887 LINE SMOOTH",
"787 861 OFFCURVE",
"779 843 OFFCURVE",
"759 826 CURVE SMOOTH",
"518 627 LINE SMOOTH",
"492 605 OFFCURVE",
"491 580 OFFCURVE",
"515 556 CURVE SMOOTH",
"740 341 LINE SMOOTH",
"759 322 OFFCURVE",
"766 302 OFFCURVE",
"760 276 CURVE SMOOTH",
"735 154 LINE SMOOTH",
"726 115 OFFCURVE",
"698 106 OFFCURVE",
"669 134 CURVE SMOOTH",
"296 490 LINE SMOOTH",
"275 510 OFFCURVE",
"271 531 OFFCURVE",
"280 558 CURVE SMOOTH",
"299 608 LINE SMOOTH",
"307 630 OFFCURVE",
"317 645 OFFCURVE",
"336 660 CURVE SMOOTH"
);
}
);
width = 1500;
}
);
unicode = 00AB;
},
{
glyphname = logicalnot;
lastChange = "2013-06-12 15:10:19 -0400";
layers = (
{
layerId = "6B6936E6-7670-4A82-900D-EAF583C971AF";
name = Regular;
paths = (
{
closed = 1;
nodes = (
"95 812 LINE SMOOTH",
"95 845 OFFCURVE",
"113 862 OFFCURVE",
"145 862 CURVE SMOOTH",
"1328 862 LINE SMOOTH",
"1360 862 OFFCURVE",
"1378 845 OFFCURVE",
"1380 813 CURVE SMOOTH",
"1404 338 LINE SMOOTH",
"1406 305 OFFCURVE",
"1389 287 OFFCURVE",
"1356 287 CURVE SMOOTH",
"1212 287 LINE SMOOTH",
"1178 287 OFFCURVE",
"1161 306 OFFCURVE",
"1165 340 CURVE SMOOTH",
"1202 639 LINE SMOOTH",
"1207 672 OFFCURVE",
"1189 692 OFFCURVE",
"1155 691 CURVE SMOOTH",
"145 673 LINE SMOOTH",
"113 672 OFFCURVE",
"95 690 OFFCURVE",
"95 722 CURVE SMOOTH"
);
}
);
width = 1500;
}
);
unicode = 00AC;
},
{
glyphname = registered;
lastChange = "2013-06-12 15:10:19 -0400";
layers = (
{
layerId = "6B6936E6-7670-4A82-900D-EAF583C971AF";
name = Regular;
paths = (
{
closed = 1;
nodes = (
"575 1382 OFFCURVE",
"424 1324 OFFCURVE",
"299 1208 CURVE SMOOTH",
"174 1092 OFFCURVE",
"109 950 OFFCURVE",
"109 790 CURVE SMOOTH",
"109 630 OFFCURVE",
"174 490 OFFCURVE",
"299 374 CURVE SMOOTH",
"424 258 OFFCURVE",
"575 199 OFFCURVE",
"750 199 CURVE SMOOTH",
"926 199 OFFCURVE",
"1078 258 OFFCURVE",
"1203 374 CURVE SMOOTH",
"1327 489 OFFCURVE",
"1389 629 OFFCURVE",
"1389 790 CURVE SMOOTH",
"1389 953 OFFCURVE",
"1326 1093 OFFCURVE",
"1203 1208 CURVE SMOOTH",
"1078 1324 OFFCURVE",
"926 1382 OFFCURVE",
"750 1382 CURVE SMOOTH"
);
},
{
closed = 1;
nodes = (
"953 1485 OFFCURVE",
"1129 1411 OFFCURVE",
"1274 1266 CURVE SMOOTH",
"1419 1121 OFFCURVE",
"1491 946 OFFCURVE",
"1491 741 CURVE SMOOTH",
"1491 538 OFFCURVE",
"1419 364 OFFCURVE",
"1274 219 CURVE SMOOTH",
"1129 74 OFFCURVE",
"953 0 OFFCURVE",
"750 0 CURVE SMOOTH",
"547 0 OFFCURVE",
"371 74 OFFCURVE",
"226 219 CURVE SMOOTH",
"81 364 OFFCURVE",
"9 538 OFFCURVE",
"9 741 CURVE SMOOTH",
"9 946 OFFCURVE",
"81 1121 OFFCURVE",
"226 1266 CURVE SMOOTH",
"371 1411 OFFCURVE",
"547 1485 OFFCURVE",
"750 1485 CURVE SMOOTH"
);
},
{
closed = 1;
nodes = (
"700 1121 LINE SMOOTH",
"668 1121 OFFCURVE",
"650 1103 OFFCURVE",
"650 1071 CURVE SMOOTH",
"650 895 LINE SMOOTH",
"650 863 OFFCURVE",
"667 845 OFFCURVE",
"700 845 CURVE SMOOTH",
"773 845 LINE SMOOTH",
"920 845 OFFCURVE",
"970 882 OFFCURVE",
"970 982 CURVE SMOOTH",
"970 1083 OFFCURVE",
"918 1121 OFFCURVE",
"773 1121 CURVE SMOOTH"
);
},
{
closed = 1;
nodes = (
"730 1174 LINE SMOOTH",
"965 1174 OFFCURVE",
"1080 1095 OFFCURVE",
"1080 934 CURVE SMOOTH",
"1080 838 OFFCURVE",
"1030 769 OFFCURVE",
"939 735 CURVE SMOOTH",
"904 722 OFFCURVE",
"902 709 OFFCURVE",
"928 682 CURVE SMOOTH",
"937 673 LINE",
"959 647 OFFCURVE",
"985 610 OFFCURVE",
"1016 561 CURVE SMOOTH",
"1116 398 LINE SMOOTH",
"1137 364 OFFCURVE",
"1123 338 OFFCURVE",
"1082 338 CURVE SMOOTH",
"1020 338 LINE SMOOTH",
"993 338 OFFCURVE",
"975 348 OFFCURVE",
"960 371 CURVE SMOOTH",
"852 547 LINE SMOOTH",
"813 611 OFFCURVE",
"781 652 OFFCURVE",
"757 669 CURVE SMOOTH",
"732 686 OFFCURVE",
"715 694 OFFCURVE",
"706 694 CURVE SMOOTH",
"700 694 LINE SMOOTH",
"668 694 OFFCURVE",
"650 677 OFFCURVE",
"650 644 CURVE SMOOTH",
"650 388 LINE SMOOTH",
"650 356 OFFCURVE",
"633 338 OFFCURVE",
"600 338 CURVE SMOOTH",
"495 338 LINE SMOOTH",
"463 338 OFFCURVE",
"445 355 OFFCURVE",
"445 388 CURVE SMOOTH",
"445 1124 LINE SMOOTH",
"445 1157 OFFCURVE",
"463 1174 OFFCURVE",
"495 1174 CURVE SMOOTH"
);
}
);
width = 1500;
}
);
unicode = 00AE;
},
{
glyphname = macron;
lastChange = "2013-06-12 15:10:19 -0400";
layers = (
{
anchors = (
{
name = _top;
position = "{750, 832}";
}
);
layerId = "6B6936E6-7670-4A82-900D-EAF583C971AF";
name = Regular;
paths = (
{
closed = 1;
nodes = (
"451 1476 LINE SMOOTH",
"451 1509 OFFCURVE",
"468 1526 OFFCURVE",
"501 1526 CURVE SMOOTH",
"999 1526 LINE SMOOTH",
"1032 1526 OFFCURVE",
"1049 1509 OFFCURVE",
"1049 1476 CURVE SMOOTH",
"1049 1428 LINE SMOOTH",
"1049 1396 OFFCURVE",
"1032 1378 OFFCURVE",
"999 1378 CURVE SMOOTH",
"501 1378 LINE SMOOTH",
"469 1378 OFFCURVE",
"451 1396 OFFCURVE",
"451 1428 CURVE SMOOTH"
);
}
);
width = 1500;
}
);
unicode = 00AF;
},
{
glyphname = degree;
lastChange = "2013-06-12 15:10:19 -0400";
layers = (
{
layerId = "6B6936E6-7670-4A82-900D-EAF583C971AF";
name = Regular;
paths = (
{
closed = 1;
nodes = (
"643 1441 OFFCURVE",
"560 1364 OFFCURVE",
"560 1267 CURVE SMOOTH",
"560 1171 OFFCURVE",
"643 1096 OFFCURVE",
"750 1096 CURVE SMOOTH",
"857 1096 OFFCURVE",
"940 1171 OFFCURVE",
"940 1267 CURVE SMOOTH",
"940 1363 OFFCURVE",
"855 1441 OFFCURVE",
"750 1441 CURVE SMOOTH"
);
},
{
closed = 1;
nodes = (
"835 1520 OFFCURVE",
"918 1486 OFFCURVE",
"975 1425 CURVE",
"1036 1365 OFFCURVE",
"1067 1288 OFFCURVE",
"1067 1200 CURVE SMOOTH",
"1067 1024 OFFCURVE",
"927 885 OFFCURVE",
"748 885 CURVE SMOOTH",
"568 885 OFFCURVE",
"433 1020 OFFCURVE",
"433 1200 CURVE SMOOTH",
"433 1379 OFFCURVE",
"573 1520 OFFCURVE",
"750 1520 CURVE SMOOTH"
);
}
);
width = 1500;
}
);
unicode = 00B0;
},
{
glyphname = plusminus;
lastChange = "2013-06-12 18:28:04 -0400";
layers = (
{
layerId = "6B6936E6-7670-4A82-900D-EAF583C971AF";
name = Regular;
paths = (
{
closed = 1;
nodes = (
"784 1284 LINE SMOOTH",
"816 1284 OFFCURVE",
"834 1266 OFFCURVE",
"834 1234 CURVE SMOOTH",
"834 947 LINE SMOOTH",
"834 915 OFFCURVE",
"851 897 OFFCURVE",
"884 897 CURVE SMOOTH",
"1291 897 LINE SMOOTH",
"1323 897 OFFCURVE",
"1341 880 OFFCURVE",
"1341 847 CURVE SMOOTH",
"1341 777 LINE SMOOTH",
"1341 745 OFFCURVE",
"1324 727 OFFCURVE",
"1291 727 CURVE SMOOTH",
"884 727 LINE SMOOTH",
"852 727 OFFCURVE",
"834 709 OFFCURVE",
"834 677 CURVE SMOOTH",
"834 390 LINE SMOOTH",
"834 357 OFFCURVE",
"816 340 OFFCURVE",
"784 340 CURVE SMOOTH",
"716 340 LINE SMOOTH",
"684 340 OFFCURVE",
"666 358 OFFCURVE",
"666 390 CURVE SMOOTH",
"666 677 LINE SMOOTH",
"666 710 OFFCURVE",
"649 727 OFFCURVE",
"616 727 CURVE SMOOTH",
"209 727 LINE SMOOTH",
"177 727 OFFCURVE",
"159 744 OFFCURVE",
"159 777 CURVE SMOOTH",
"159 847 LINE SMOOTH",
"159 880 OFFCURVE",
"176 897 OFFCURVE",
"209 897 CURVE SMOOTH",
"616 897 LINE SMOOTH",
"649 897 OFFCURVE",
"666 915 OFFCURVE",
"666 947 CURVE SMOOTH",
"666 1234 LINE SMOOTH",
"666 1267 OFFCURVE",
"683 1284 OFFCURVE",
"716 1284 CURVE SMOOTH"
);
},
{
closed = 1;
nodes = (
"159 140 LINE SMOOTH",
"159 173 OFFCURVE",
"176 190 OFFCURVE",
"209 190 CURVE SMOOTH",
"1291 190 LINE SMOOTH",
"1324 190 OFFCURVE",
"1341 172 OFFCURVE",
"1341 140 CURVE SMOOTH",
"1341 50 LINE SMOOTH",
"1341 18 OFFCURVE",
"1324 0 OFFCURVE",
"1291 0 CURVE SMOOTH",
"209 0 LINE SMOOTH",
"177 0 OFFCURVE",
"159 18 OFFCURVE",
"159 50 CURVE SMOOTH"
);
}
);
width = 1500;
}
);
unicode = 00B1;
},
{
glyphname = twosuperior;
lastChange = "2013-06-12 15:10:19 -0400";
layers = (
{
layerId = "6B6936E6-7670-4A82-900D-EAF583C971AF";
name = Regular;
paths = (
{
closed = 1;
nodes = (
"999 833 LINE SMOOTH",
"1032 833 OFFCURVE",
"1049 816 OFFCURVE",
"1049 783 CURVE SMOOTH",
"1049 718 LINE SMOOTH",
"1049 686 OFFCURVE",
"1032 668 OFFCURVE",
"999 668 CURVE SMOOTH",
"501 668 LINE SMOOTH",
"469 668 OFFCURVE",
"451 686 OFFCURVE",
"451 718 CURVE SMOOTH",
"451 792 LINE SMOOTH",
"451 818 OFFCURVE",
"459 836 OFFCURVE",
"478 854 CURVE SMOOTH",
"497 871 OFFCURVE",
"520 892 OFFCURVE",
"548 916 CURVE SMOOTH",
"777 1119 OFFCURVE",
"892 1201 OFFCURVE",
"892 1264 CURVE SMOOTH",
"892 1352 OFFCURVE",
"816 1411 OFFCURVE",
"703 1411 CURVE SMOOTH",
"649 1411 OFFCURVE",
"587 1397 OFFCURVE",
"516 1368 CURVE SMOOTH",
"480 1353 OFFCURVE",
"457 1367 OFFCURVE",
"457 1405 CURVE SMOOTH",
"457 1421 LINE SMOOTH",
"457 1450 OFFCURVE",
"470 1469 OFFCURVE",
"498 1478 CURVE SMOOTH",
"584 1506 OFFCURVE",
"658 1520 OFFCURVE",
"724 1520 CURVE SMOOTH",
"917 1520 OFFCURVE",
"1043 1424 OFFCURVE",
"1043 1280 CURVE SMOOTH",
"1043 1187 OFFCURVE",
"933 1097 OFFCURVE",
"712 908 CURVE SMOOTH",
"696 895 LINE SMOOTH",
"661 864 OFFCURVE",
"673 833 OFFCURVE",
"719 833 CURVE SMOOTH"
);
}
);
width = 1500;
}
);
unicode = 00B2;
},
{
glyphname = threesuperior;
lastChange = "2013-06-12 15:10:19 -0400";
layers = (
{
layerId = "6B6936E6-7670-4A82-900D-EAF583C971AF";
name = Regular;
paths = (
{
closed = 1;
nodes = (
"1006 1074 OFFCURVE",
"1058 1004 OFFCURVE",
"1058 911 CURVE SMOOTH",
"1058 746 OFFCURVE",
"927 653 OFFCURVE",
"691 653 CURVE SMOOTH",
"627 653 OFFCURVE",
"558 663 OFFCURVE",
"483 682 CURVE SMOOTH",
"453 690 OFFCURVE",
"440 709 OFFCURVE",
"442 739 CURVE SMOOTH",
"445 798 LINE SMOOTH",
"447 835 OFFCURVE",
"469 847 OFFCURVE",
"503 835 CURVE SMOOTH",
"559 815 OFFCURVE",
"620 806 OFFCURVE",
"686 806 CURVE SMOOTH",
"831 806 OFFCURVE",
"906 818 OFFCURVE",
"906 911 CURVE SMOOTH",
"906 1010 OFFCURVE",
"831 1061 OFFCURVE",
"687 1061 CURVE SMOOTH",
"644 1061 LINE SMOOTH",
"616 1061 OFFCURVE",
"601 1078 OFFCURVE",
"601 1111 CURVE SMOOTH",
"601 1119 LINE SMOOTH",
"601 1152 OFFCURVE",
"618 1169 OFFCURVE",
"651 1169 CURVE SMOOTH",
"695 1169 LINE SMOOTH",
"820 1169 OFFCURVE",
"886 1212 OFFCURVE",
"886 1292 CURVE SMOOTH",
"886 1369 OFFCURVE",
"818 1411 OFFCURVE",
"691 1411 CURVE SMOOTH",
"648 1411 OFFCURVE",
"600 1404 OFFCURVE",
"525 1386 CURVE SMOOTH",
"490 1377 OFFCURVE",
"468 1392 OFFCURVE",
"468 1428 CURVE SMOOTH",
"468 1440 LINE SMOOTH",
"468 1470 OFFCURVE",
"482 1489 OFFCURVE",
"512 1495 CURVE SMOOTH",
"591 1511 OFFCURVE",
"662 1520 OFFCURVE",
"724 1520 CURVE SMOOTH",
"916 1520 OFFCURVE",
"1037 1435 OFFCURVE",
"1037 1303 CURVE SMOOTH",
"1037 1226 OFFCURVE",
"993 1166 OFFCURVE",
"914 1135 CURVE SMOOTH",
"883 1123 OFFCURVE",
"883 1118 OFFCURVE",
"914 1107 CURVE SMOOTH"
);
}
);
width = 1500;
}
);
unicode = 00B3;
},
{
glyphname = acute;
lastChange = "2013-06-12 15:10:19 -0400";
layers = (
{
anchors = (
{
name = _top;
position = "{568, 812}";
}
);
layerId = "6B6936E6-7670-4A82-900D-EAF583C971AF";
name = Regular;
paths = (
{
closed = 1;
nodes = (
"775 1708 LINE SMOOTH",
"791 1729 OFFCURVE",
"809 1738 OFFCURVE",
"836 1738 CURVE SMOOTH",
"938 1738 LINE SMOOTH",
"981 1738 OFFCURVE",
"994 1709 OFFCURVE",
"966 1677 CURVE SMOOTH",
"680 1348 LINE SMOOTH",
"663 1328 OFFCURVE",
"645 1320 OFFCURVE",
"619 1320 CURVE SMOOTH",
"562 1320 LINE SMOOTH",
"520 1320 OFFCURVE",
"506 1347 OFFCURVE",
"532 1381 CURVE SMOOTH"
);
}
);
width = 1500;
}
);
unicode = 00B4;
},
{
glyphname = mu;
lastChange = "2013-06-12 15:10:19 -0400";
layers = (
{
layerId = "6B6936E6-7670-4A82-900D-EAF583C971AF";
name = Regular;
paths = (
{
closed = 1;
nodes = (
"279 -554 LINE SMOOTH",
"246 -554 OFFCURVE",
"229 -537 OFFCURVE",
"228 -504 CURVE SMOOTH",
"184 1096 LINE SMOOTH",
"183 1128 OFFCURVE",
"200 1146 OFFCURVE",
"232 1148 CURVE SMOOTH",
"316 1152 LINE SMOOTH",
"349 1154 OFFCURVE",
"367 1137 OFFCURVE",
"368 1104 CURVE SMOOTH",
"382 634 LINE SMOOTH",
"388 441 OFFCURVE",
"475 341 OFFCURVE",
"655 341 CURVE SMOOTH",
"852 341 OFFCURVE",
"952 453 OFFCURVE",
"952 677 CURVE SMOOTH",
"961 1071 LINE SMOOTH",
"962 1103 OFFCURVE",
"979 1120 OFFCURVE",
"1011 1120 CURVE SMOOTH",
"1096 1120 LINE SMOOTH",
"1128 1120 OFFCURVE",
"1146 1102 OFFCURVE",
"1145 1070 CURVE SMOOTH",
"1136 258 LINE SMOOTH",
"1136 224 OFFCURVE",
"1163 203 OFFCURVE",
"1218 194 CURVE SMOOTH",
"1240 191 OFFCURVE",
"1273 197 OFFCURVE",
"1273 197 CURVE",
"1279 199 OFFCURVE",
"1286 201 OFFCURVE",
"1295 205 CURVE SMOOTH",
"1308 210 OFFCURVE",
"1317 189 OFFCURVE",
"1317 152 CURVE SMOOTH",
"1317 106 LINE SMOOTH",
"1317 78 OFFCURVE",
"1306 60 OFFCURVE",
"1283 46 CURVE SMOOTH",
"1264 35 OFFCURVE",
"1243 22 OFFCURVE",
"1220 7 CURVE SMOOTH",
"1182 -17 OFFCURVE",
"1151 -29 OFFCURVE",
"1128 -29 CURVE SMOOTH",
"1052 -29 OFFCURVE",
"1003 5 OFFCURVE",
"976 77 CURVE SMOOTH",
"964 110 OFFCURVE",
"952 112 OFFCURVE",
"931 86 CURVE SMOOTH",
"866 10 OFFCURVE",
"781 -29 OFFCURVE",
"669 -29 CURVE SMOOTH",
"567 -29 OFFCURVE",
"487 0 OFFCURVE",
"431 59 CURVE SMOOTH",
"400 92 OFFCURVE",
"382 87 OFFCURVE",
"384 43 CURVE SMOOTH",
"412 -504 LINE SMOOTH",
"414 -536 OFFCURVE",
"395 -554 OFFCURVE",
"363 -554 CURVE SMOOTH"
);
}
);
width = 1500;
}
);
unicode = 00B5;
},
{
glyphname = paragraph;
lastChange = "2013-06-12 15:10:19 -0400";
layers = (
{
layerId = "6B6936E6-7670-4A82-900D-EAF583C971AF";
name = Regular;
paths = (
{
closed = 1;
nodes = (
"1053 1493 LINE SMOOTH",
"1084 1493 OFFCURVE",
"1102 1477 OFFCURVE",
"1106 1446 CURVE SMOOTH",
"1313 -144 LINE SMOOTH",
"1317 -178 OFFCURVE",
"1300 -197 OFFCURVE",
"1266 -197 CURVE SMOOTH",
"1009 -197 LINE SMOOTH",
"977 -197 OFFCURVE",
"959 -179 OFFCURVE",
"959 -147 CURVE SMOOTH",
"969 1320 LINE SMOOTH",
"969 1352 OFFCURVE",
"951 1370 OFFCURVE",
"919 1370 CURVE SMOOTH",
"829 1370 LINE SMOOTH",
"797 1370 OFFCURVE",
"779 1352 OFFCURVE",
"779 1320 CURVE SMOOTH",
"779 -147 LINE SMOOTH",
"779 -180 OFFCURVE",
"762 -197 OFFCURVE",
"729 -197 CURVE SMOOTH",
"509 -197 LINE SMOOTH",
"476 -197 OFFCURVE",
"459 -178 OFFCURVE",
"461 -145 CURVE SMOOTH",
"523 603 LINE SMOOTH",
"526 634 OFFCURVE",
"512 651 OFFCURVE",
"483 660 CURVE SMOOTH",
"348 704 OFFCURVE",
"187 851 OFFCURVE",
"187 1071 CURVE SMOOTH",
"187 1324 OFFCURVE",
"375 1493 OFFCURVE",
"662 1493 CURVE SMOOTH"
);
}
);
width = 1500;
}
);
unicode = 00B6;
},
{
glyphname = periodcentered;
lastChange = "2013-06-12 15:10:19 -0400";
layers = (
{
anchors = (
{
name = _dot;
position = "{620, 770}";
}
);
layerId = "6B6936E6-7670-4A82-900D-EAF583C971AF";
name = Regular;
paths = (
{
closed = 1;
nodes = (
"645 788 LINE SMOOTH",
"645 820 OFFCURVE",
"662 838 OFFCURVE",
"695 838 CURVE SMOOTH",
"806 838 LINE SMOOTH",
"839 838 OFFCURVE",
"856 820 OFFCURVE",
"856 788 CURVE SMOOTH",
"856 634 LINE SMOOTH",
"856 602 OFFCURVE",
"839 584 OFFCURVE",
"806 584 CURVE SMOOTH",
"695 584 LINE SMOOTH",
"663 584 OFFCURVE",
"645 601 OFFCURVE",
"645 634 CURVE SMOOTH"
);
}
);
width = 1500;
}
);
unicode = 00B7;
},
{
glyphname = cedilla;
lastChange = "2013-06-12 15:10:19 -0400";
layers = (
{
anchors = (
{
name = _bottom;
position = "{750, 0}";
}
);
layerId = "6B6936E6-7670-4A82-900D-EAF583C971AF";
name = Regular;
paths = (
{
closed = 1;
nodes = (
"811 0 LINE SMOOTH",
"837 0 OFFCURVE",
"856 -8 OFFCURVE",
"872 -29 CURVE SMOOTH",
"929 -99 OFFCURVE",
"957 -159 OFFCURVE",
"957 -215 CURVE SMOOTH",
"957 -334 OFFCURVE",
"876 -395 OFFCURVE",
"719 -395 CURVE SMOOTH",
"673 -395 OFFCURVE",
"629 -391 OFFCURVE",
"586 -382 CURVE SMOOTH",
"557 -375 OFFCURVE",
"543 -356 OFFCURVE",
"543 -326 CURVE SMOOTH",
"543 -300 LINE SMOOTH",
"543 -263 OFFCURVE",
"564 -252 OFFCURVE",
"599 -261 CURVE SMOOTH",
"628 -269 OFFCURVE",
"660 -272 OFFCURVE",
"698 -272 CURVE SMOOTH",
"777 -272 OFFCURVE",
"817 -239 OFFCURVE",
"817 -178 CURVE SMOOTH",
"817 -149 OFFCURVE",
"802 -111 OFFCURVE",
"771 -62 CURVE SMOOTH",
"749 -26 OFFCURVE",
"755 0 OFFCURVE",
"789 0 CURVE SMOOTH"
);
}
);
width = 1500;
}
);
unicode = 00B8;
},
{
glyphname = onesuperior;
lastChange = "2013-06-12 15:10:19 -0400";
layers = (
{
layerId = "6B6936E6-7670-4A82-900D-EAF583C971AF";
name = Regular;
paths = (
{
closed = 1;
nodes = (
"483 802 LINE SMOOTH",
"483 834 OFFCURVE",
"500 852 OFFCURVE",
"533 852 CURVE SMOOTH",
"637 852 LINE SMOOTH",
"670 852 OFFCURVE",
"687 870 OFFCURVE",
"687 902 CURVE SMOOTH",
"687 1334 LINE SMOOTH",
"687 1369 OFFCURVE",
"667 1385 OFFCURVE",
"633 1379 CURVE SMOOTH",
"518 1358 LINE SMOOTH",
"484 1352 OFFCURVE",
"464 1368 OFFCURVE",
"464 1403 CURVE SMOOTH",
"464 1418 LINE SMOOTH",
"464 1449 OFFCURVE",
"479 1467 OFFCURVE",
"509 1472 CURVE SMOOTH",
"664 1498 LINE SMOOTH",
"686 1502 OFFCURVE",
"702 1503 OFFCURVE",
"724 1503 CURVE SMOOTH",
"781 1503 LINE SMOOTH",
"814 1503 OFFCURVE",
"831 1486 OFFCURVE",
"831 1453 CURVE SMOOTH",
"831 902 LINE SMOOTH",
"831 870 OFFCURVE",
"849 852 OFFCURVE",
"881 852 CURVE SMOOTH",
"986 852 LINE SMOOTH",
"1019 852 OFFCURVE",
"1036 835 OFFCURVE",
"1036 802 CURVE SMOOTH",
"1036 718 LINE SMOOTH",
"1036 686 OFFCURVE",
"1019 668 OFFCURVE",
"986 668 CURVE SMOOTH",
"533 668 LINE SMOOTH",
"501 668 OFFCURVE",
"483 685 OFFCURVE",
"483 718 CURVE SMOOTH"
);
}
);
width = 1500;
}
);
unicode = 00B9;
},
{
glyphname = ordmasculine;
lastChange = "2013-06-12 15:10:19 -0400";
layers = (
{
layerId = "6B6936E6-7670-4A82-900D-EAF583C971AF";
name = Regular;
paths = (
{
closed = 1;
nodes = (
"407 592 LINE",
"1095 592 LINE",
"1095 469 LINE",
"407 469 LINE"
);
},
{
closed = 1;
nodes = (
"990 1520 OFFCURVE",
"1136 1363 OFFCURVE",
"1136 1108 CURVE SMOOTH",
"1136 853 OFFCURVE",
"990 698 OFFCURVE",
"751 698 CURVE SMOOTH",
"512 698 OFFCURVE",
"364 855 OFFCURVE",
"364 1108 CURVE SMOOTH",
"364 1363 OFFCURVE",
"512 1520 OFFCURVE",
"751 1520 CURVE SMOOTH"
);
},
{
closed = 1;
nodes = (
"611 1442 OFFCURVE",
"520 1344 OFFCURVE",
"520 1191 CURVE SMOOTH",
"520 1040 OFFCURVE",
"612 943 OFFCURVE",
"751 943 CURVE SMOOTH",
"891 943 OFFCURVE",
"981 1040 OFFCURVE",
"981 1191 CURVE SMOOTH",
"981 1346 OFFCURVE",
"892 1442 OFFCURVE",
"751 1442 CURVE SMOOTH"
);
}
);
width = 1500;
}
);
unicode = 00BA;
},
{
glyphname = guillemotright;
lastChange = "2013-06-12 15:10:19 -0400";
layers = (
{
layerId = "6B6936E6-7670-4A82-900D-EAF583C971AF";
name = Regular;
paths = (
{
closed = 1;
nodes = (
"310 1001 LINE SMOOTH",
"312 1044 OFFCURVE",
"341 1056 OFFCURVE",
"372 1025 CURVE SMOOTH",
"737 664 LINE SMOOTH",
"754 647 OFFCURVE",
"763 632 OFFCURVE",
"769 609 CURVE SMOOTH",
"783 557 LINE SMOOTH",
"791 530 OFFCURVE",
"784 509 OFFCURVE",
"762 491 CURVE SMOOTH",
"359 168 LINE SMOOTH",
"328 143 OFFCURVE",
"300 154 OFFCURVE",
"296 195 CURVE SMOOTH",
"281 318 LINE SMOOTH",
"277 345 OFFCURVE",
"285 364 OFFCURVE",
"307 382 CURVE SMOOTH",
"549 576 LINE SMOOTH",
"576 597 OFFCURVE",
"577 623 OFFCURVE",
"553 646 CURVE SMOOTH",
"330 866 LINE SMOOTH",
"312 884 OFFCURVE",
"305 903 OFFCURVE",
"306 929 CURVE SMOOTH"
);
},
{
closed = 1;
nodes = (
"743 978 LINE SMOOTH",
"745 1021 OFFCURVE",
"774 1033 OFFCURVE",
"805 1002 CURVE SMOOTH",
"1170 641 LINE SMOOTH",
"1187 624 OFFCURVE",
"1196 609 OFFCURVE",
"1202 586 CURVE SMOOTH",
"1216 534 LINE SMOOTH",
"1224 507 OFFCURVE",
"1217 486 OFFCURVE",
"1195 468 CURVE SMOOTH",
"792 145 LINE SMOOTH",
"761 120 OFFCURVE",
"733 131 OFFCURVE",
"729 172 CURVE SMOOTH",
"714 295 LINE SMOOTH",
"710 322 OFFCURVE",
"718 341 OFFCURVE",
"740 359 CURVE SMOOTH",
"982 553 LINE SMOOTH",
"1009 574 OFFCURVE",
"1010 600 OFFCURVE",
"986 623 CURVE SMOOTH",
"763 843 LINE SMOOTH",
"745 861 OFFCURVE",
"738 880 OFFCURVE",
"739 906 CURVE SMOOTH"
);
}
);
width = 1500;
}
);
unicode = 00BB;
},
{
glyphname = onequarter;
lastChange = "2013-06-12 15:10:19 -0400";
layers = (
{
layerId = "6B6936E6-7670-4A82-900D-EAF583C971AF";
name = Regular;
paths = (
{
closed = 1;
nodes = (
"-67 728 LINE SMOOTH",
"-67 761 OFFCURVE",
"-50 778 OFFCURVE",
"-17 778 CURVE SMOOTH",
"87 778 LINE SMOOTH",
"120 778 OFFCURVE",
"137 796 OFFCURVE",
"137 828 CURVE SMOOTH",
"137 1334 LINE SMOOTH",
"137 1369 OFFCURVE",
"117 1385 OFFCURVE",
"83 1379 CURVE SMOOTH",
"-32 1358 LINE SMOOTH",
"-66 1352 OFFCURVE",
"-86 1368 OFFCURVE",
"-86 1403 CURVE SMOOTH",
"-86 1418 LINE SMOOTH",
"-86 1449 OFFCURVE",
"-71 1467 OFFCURVE",
"-41 1472 CURVE SMOOTH",
"114 1498 LINE SMOOTH",
"136 1502 OFFCURVE",
"152 1503 OFFCURVE",
"174 1503 CURVE SMOOTH",
"231 1503 LINE SMOOTH",
"264 1503 OFFCURVE",
"281 1485 OFFCURVE",
"281 1453 CURVE SMOOTH",
"281 828 LINE SMOOTH",
"281 796 OFFCURVE",
"299 778 OFFCURVE",
"331 778 CURVE SMOOTH",
"436 778 LINE SMOOTH",
"469 778 OFFCURVE",
"486 761 OFFCURVE",
"486 728 CURVE SMOOTH",
"486 718 LINE SMOOTH",
"486 686 OFFCURVE",
"469 668 OFFCURVE",
"436 668 CURVE SMOOTH",
"-17 668 LINE SMOOTH",
"-49 668 OFFCURVE",
"-67 686 OFFCURVE",
"-67 718 CURVE SMOOTH"
);
},
{
closed = 1;
nodes = (
"1175 1486 LINE SMOOTH",
"1189 1510 OFFCURVE",
"1207 1520 OFFCURVE",
"1234 1520 CURVE SMOOTH",
"1285 1520 LINE SMOOTH",
"1325 1520 OFFCURVE",
"1340 1494 OFFCURVE",
"1319 1460 CURVE SMOOTH",
"443 5 LINE SMOOTH",
"429 -19 OFFCURVE",
"411 -29 OFFCURVE",
"384 -29 CURVE SMOOTH",
"333 -29 LINE SMOOTH",
"293 -29 OFFCURVE",
"278 -3 OFFCURVE",
"299 31 CURVE SMOOTH"
);
},
{
closed = 1;
nodes = (
"1307 613 LINE SMOOTH",
"1307 661 OFFCURVE",
"1274 672 OFFCURVE",
"1246 633 CURVE SMOOTH",
"1043 358 LINE SMOOTH",
"1018 324 OFFCURVE",
"1032 297 OFFCURVE",
"1074 297 CURVE SMOOTH",
"1257 297 LINE SMOOTH",
"1290 297 OFFCURVE",
"1307 314 OFFCURVE",
"1307 347 CURVE SMOOTH"
);
},
{
closed = 1;
nodes = (
"1262 806 LINE SMOOTH",
"1278 828 OFFCURVE",
"1296 837 OFFCURVE",
"1323 837 CURVE SMOOTH",
"1401 837 LINE SMOOTH",
"1434 837 OFFCURVE",
"1451 819 OFFCURVE",
"1451 787 CURVE SMOOTH",
"1451 347 LINE SMOOTH",
"1451 315 OFFCURVE",
"1468 297 OFFCURVE",
"1501 297 CURVE SMOOTH",
"1543 297 LINE SMOOTH",
"1571 297 OFFCURVE",
"1586 279 OFFCURVE",
"1586 247 CURVE SMOOTH",
"1586 238 LINE SMOOTH",
"1586 206 OFFCURVE",
"1568 188 OFFCURVE",
"1536 188 CURVE SMOOTH",
"1501 188 LINE SMOOTH",
"1469 188 OFFCURVE",
"1451 170 OFFCURVE",
"1451 138 CURVE SMOOTH",
"1451 52 LINE SMOOTH",
"1451 19 OFFCURVE",
"1434 2 OFFCURVE",
"1401 2 CURVE SMOOTH",
"1357 2 LINE SMOOTH",
"1325 2 OFFCURVE",
"1307 19 OFFCURVE",
"1307 52 CURVE SMOOTH",
"1307 138 LINE SMOOTH",
"1307 171 OFFCURVE",
"1289 188 OFFCURVE",
"1257 188 CURVE SMOOTH",
"943 188 LINE SMOOTH",
"910 188 OFFCURVE",
"893 205 OFFCURVE",
"893 238 CURVE SMOOTH",
"893 275 LINE SMOOTH",
"893 299 OFFCURVE",
"899 317 OFFCURVE",
"914 337 CURVE SMOOTH"
);
}
);
width = 1500;
}
);
unicode = 00BC;
},
{
glyphname = onehalf;
lastChange = "2013-06-12 15:10:19 -0400";
layers = (
{
layerId = "6B6936E6-7670-4A82-900D-EAF583C971AF";
name = Regular;
paths = (
{
closed = 1;
nodes = (
"-72 728 LINE SMOOTH",
"-72 761 OFFCURVE",
"-55 778 OFFCURVE",
"-22 778 CURVE SMOOTH",
"82 778 LINE SMOOTH",
"115 778 OFFCURVE",
"132 796 OFFCURVE",
"132 828 CURVE SMOOTH",
"132 1334 LINE SMOOTH",
"132 1369 OFFCURVE",
"112 1385 OFFCURVE",
"78 1379 CURVE SMOOTH",
"-37 1358 LINE SMOOTH",
"-71 1352 OFFCURVE",
"-91 1368 OFFCURVE",
"-91 1403 CURVE SMOOTH",
"-91 1418 LINE SMOOTH",
"-91 1449 OFFCURVE",
"-76 1467 OFFCURVE",
"-46 1472 CURVE SMOOTH",
"109 1498 LINE SMOOTH",
"131 1502 OFFCURVE",
"147 1503 OFFCURVE",
"170 1503 CURVE SMOOTH",
"226 1503 LINE SMOOTH",
"260 1503 OFFCURVE",
"277 1485 OFFCURVE",
"277 1453 CURVE SMOOTH",
"277 828 LINE SMOOTH",
"277 796 OFFCURVE",
"295 778 OFFCURVE",
"327 778 CURVE SMOOTH",
"432 778 LINE SMOOTH",
"465 778 OFFCURVE",
"482 761 OFFCURVE",
"482 728 CURVE SMOOTH",
"482 718 LINE SMOOTH",
"482 686 OFFCURVE",
"465 668 OFFCURVE",
"432 668 CURVE SMOOTH",
"-22 668 LINE SMOOTH",
"-54 668 OFFCURVE",
"-72 686 OFFCURVE",
"-72 718 CURVE SMOOTH"
);
},
{
closed = 1;
nodes = (
"1121 1486 LINE SMOOTH",
"1135 1510 OFFCURVE",
"1153 1520 OFFCURVE",
"1180 1520 CURVE SMOOTH",
"1231 1520 LINE SMOOTH",
"1271 1520 OFFCURVE",
"1286 1494 OFFCURVE",
"1265 1460 CURVE SMOOTH",
"389 5 LINE SMOOTH",
"375 -19 OFFCURVE",
"357 -29 OFFCURVE",
"330 -29 CURVE SMOOTH",
"279 -29 LINE SMOOTH",
"239 -29 OFFCURVE",
"223 -3 OFFCURVE",
"245 31 CURVE SMOOTH"
);
},
{
closed = 1;
nodes = (
"1541 116 LINE SMOOTH",
"1574 116 OFFCURVE",
"1591 99 OFFCURVE",
"1591 66 CURVE SMOOTH",
"1591 52 LINE SMOOTH",
"1591 20 OFFCURVE",
"1574 2 OFFCURVE",
"1541 2 CURVE SMOOTH",
"1043 2 LINE SMOOTH",
"1011 2 OFFCURVE",
"993 20 OFFCURVE",
"993 52 CURVE SMOOTH",
"993 75 LINE SMOOTH",
"993 101 OFFCURVE",
"1001 119 OFFCURVE",
"1020 137 CURVE SMOOTH",
"1039 154 OFFCURVE",
"1062 175 OFFCURVE",
"1090 199 CURVE SMOOTH",
"1319 402 OFFCURVE",
"1434 535 OFFCURVE",
"1434 598 CURVE SMOOTH",
"1434 686 OFFCURVE",
"1358 745 OFFCURVE",
"1245 745 CURVE SMOOTH",
"1191 745 OFFCURVE",
"1129 731 OFFCURVE",
"1058 702 CURVE SMOOTH",
"1022 687 OFFCURVE",
"999 701 OFFCURVE",
"999 739 CURVE SMOOTH",
"999 755 LINE SMOOTH",
"999 784 OFFCURVE",
"1012 803 OFFCURVE",
"1040 812 CURVE SMOOTH",
"1126 840 OFFCURVE",
"1200 854 OFFCURVE",
"1266 854 CURVE SMOOTH",
"1459 854 OFFCURVE",
"1585 758 OFFCURVE",
"1585 614 CURVE SMOOTH",
"1585 521 OFFCURVE",
"1475 380 OFFCURVE",
"1254 191 CURVE SMOOTH",
"1238 178 LINE SMOOTH",
"1203 147 OFFCURVE",
"1215 116 OFFCURVE",
"1261 116 CURVE SMOOTH"
);
}
);
width = 1500;
}
);
unicode = 00BD;
},
{
glyphname = threequarters;
lastChange = "2013-06-12 15:10:19 -0400";
layers = (
{
layerId = "6B6936E6-7670-4A82-900D-EAF583C971AF";
name = Regular;
paths = (
{
closed = 1;
nodes = (
"487 1074 OFFCURVE",
"539 1004 OFFCURVE",
"539 911 CURVE SMOOTH",
"539 746 OFFCURVE",
"408 653 OFFCURVE",
"172 653 CURVE SMOOTH",
"108 653 OFFCURVE",
"39 663 OFFCURVE",
"-37 682 CURVE SMOOTH",
"-66 690 OFFCURVE",
"-80 708 OFFCURVE",
"-80 738 CURVE SMOOTH",
"-80 755 LINE SMOOTH",
"-80 791 OFFCURVE",
"-58 803 OFFCURVE",
"-23 790 CURVE SMOOTH",
"32 771 OFFCURVE",
"93 762 OFFCURVE",
"158 762 CURVE SMOOTH",
"303 762 OFFCURVE",
"387 818 OFFCURVE",
"387 911 CURVE SMOOTH",
"387 1010 OFFCURVE",
"312 1061 OFFCURVE",
"168 1061 CURVE SMOOTH",
"125 1061 LINE SMOOTH",
"97 1061 OFFCURVE",
"82 1078 OFFCURVE",
"82 1111 CURVE SMOOTH",
"82 1119 LINE SMOOTH",
"82 1152 OFFCURVE",
"99 1169 OFFCURVE",
"132 1169 CURVE SMOOTH",
"176 1169 LINE SMOOTH",
"301 1169 OFFCURVE",
"367 1212 OFFCURVE",
"367 1292 CURVE SMOOTH",
"367 1369 OFFCURVE",
"299 1411 OFFCURVE",
"172 1411 CURVE SMOOTH",
"129 1411 OFFCURVE",
"81 1404 OFFCURVE",
"6 1386 CURVE SMOOTH",
"-29 1377 OFFCURVE",
"-51 1392 OFFCURVE",
"-51 1428 CURVE SMOOTH",
"-51 1440 LINE SMOOTH",
"-51 1470 OFFCURVE",
"-37 1489 OFFCURVE",
"-7 1495 CURVE SMOOTH",
"72 1511 OFFCURVE",
"143 1520 OFFCURVE",
"205 1520 CURVE SMOOTH",
"397 1520 OFFCURVE",
"518 1435 OFFCURVE",
"518 1303 CURVE SMOOTH",
"518 1226 OFFCURVE",
"474 1166 OFFCURVE",
"395 1135 CURVE SMOOTH",
"364 1123 OFFCURVE",
"364 1118 OFFCURVE",
"395 1107 CURVE SMOOTH"
);
},
{
closed = 1;
nodes = (
"1209 1486 LINE SMOOTH",
"1223 1510 OFFCURVE",
"1241 1520 OFFCURVE",
"1268 1520 CURVE SMOOTH",
"1319 1520 LINE SMOOTH",
"1359 1520 OFFCURVE",
"1374 1494 OFFCURVE",
"1353 1460 CURVE SMOOTH",
"477 5 LINE SMOOTH",
"463 -19 OFFCURVE",
"445 -29 OFFCURVE",
"418 -29 CURVE SMOOTH",
"367 -29 LINE SMOOTH",
"327 -29 OFFCURVE",
"312 -3 OFFCURVE",
"333 31 CURVE SMOOTH"
);
},
{
closed = 1;
nodes = (
"1301 613 LINE SMOOTH",
"1301 661 OFFCURVE",
"1268 672 OFFCURVE",
"1240 633 CURVE SMOOTH",
"1037 358 LINE SMOOTH",
"1012 324 OFFCURVE",
"1026 297 OFFCURVE",
"1068 297 CURVE SMOOTH",
"1251 297 LINE SMOOTH",
"1284 297 OFFCURVE",
"1301 314 OFFCURVE",
"1301 347 CURVE SMOOTH"
);
},
{
closed = 1;
nodes = (
"1256 806 LINE SMOOTH",
"1272 828 OFFCURVE",
"1290 837 OFFCURVE",
"1317 837 CURVE SMOOTH",
"1395 837 LINE SMOOTH",
"1428 837 OFFCURVE",
"1445 819 OFFCURVE",
"1445 787 CURVE SMOOTH",
"1445 347 LINE SMOOTH",
"1445 315 OFFCURVE",
"1462 297 OFFCURVE",
"1495 297 CURVE SMOOTH",
"1537 297 LINE SMOOTH",
"1565 297 OFFCURVE",
"1580 279 OFFCURVE",
"1580 247 CURVE SMOOTH",
"1580 238 LINE SMOOTH",
"1580 206 OFFCURVE",
"1562 188 OFFCURVE",
"1530 188 CURVE SMOOTH",
"1495 188 LINE SMOOTH",
"1463 188 OFFCURVE",
"1445 170 OFFCURVE",
"1445 138 CURVE SMOOTH",
"1445 52 LINE SMOOTH",
"1445 19 OFFCURVE",
"1428 2 OFFCURVE",
"1395 2 CURVE SMOOTH",
"1351 2 LINE SMOOTH",
"1319 2 OFFCURVE",
"1301 19 OFFCURVE",
"1301 52 CURVE SMOOTH",
"1301 138 LINE SMOOTH",
"1301 171 OFFCURVE",
"1283 188 OFFCURVE",
"1251 188 CURVE SMOOTH",
"937 188 LINE SMOOTH",
"904 188 OFFCURVE",
"887 205 OFFCURVE",
"887 238 CURVE SMOOTH",
"887 275 LINE SMOOTH",
"887 299 OFFCURVE",
"893 317 OFFCURVE",
"908 337 CURVE SMOOTH"
);
}
);
width = 1500;
}
);
unicode = 00BE;
},
{
glyphname = questiondown;
lastChange = "2013-06-12 15:10:19 -0400";
layers = (
{
layerId = "6B6936E6-7670-4A82-900D-EAF583C971AF";
name = Regular;
paths = (
{
closed = 1;
nodes = (
"709 1042 LINE SMOOTH",
"709 1075 OFFCURVE",
"727 1092 OFFCURVE",
"759 1092 CURVE SMOOTH",
"819 1092 LINE SMOOTH",
"852 1092 OFFCURVE",
"869 1074 OFFCURVE",
"869 1042 CURVE SMOOTH",
"869 936 LINE SMOOTH",
"869 801 OFFCURVE",
"847 781 OFFCURVE",
"754 678 CURVE",
"664 590 LINE SMOOTH",
"587 519 OFFCURVE",
"555 459 OFFCURVE",
"555 394 CURVE SMOOTH",
"555 275 OFFCURVE",
"650 195 OFFCURVE",
"795 195 CURVE SMOOTH",
"882 195 OFFCURVE",
"983 229 OFFCURVE",
"1088 293 CURVE SMOOTH",
"1124 314 OFFCURVE",
"1149 301 OFFCURVE",
"1149 261 CURVE SMOOTH",
"1149 124 LINE SMOOTH",
"1149 96 OFFCURVE",
"1139 78 OFFCURVE",
"1115 64 CURVE SMOOTH",
"1001 2 OFFCURVE",
"884 -29 OFFCURVE",
"760 -29 CURVE SMOOTH",
"515 -29 OFFCURVE",
"352 112 OFFCURVE",
"352 324 CURVE SMOOTH",
"352 425 OFFCURVE",
"395 508 OFFCURVE",
"514 623 CURVE SMOOTH",
"602 709 LINE SMOOTH",
"666 772 OFFCURVE",
"685 801 OFFCURVE",
"696 834 CURVE SMOOTH",
"705 862 OFFCURVE",
"709 897 OFFCURVE",
"709 969 CURVE SMOOTH"
);
},
{
closed = 1;
nodes = (
"905 1289 LINE SMOOTH",
"905 1257 OFFCURVE",
"888 1239 OFFCURVE",
"855 1239 CURVE SMOOTH",
"753 1239 LINE SMOOTH",
"721 1239 OFFCURVE",
"703 1257 OFFCURVE",
"703 1289 CURVE SMOOTH",
"703 1443 LINE SMOOTH",
"703 1476 OFFCURVE",
"720 1493 OFFCURVE",
"753 1493 CURVE SMOOTH",
"855 1493 LINE SMOOTH",
"888 1493 OFFCURVE",
"905 1476 OFFCURVE",
"905 1443 CURVE SMOOTH"
);
}
);
width = 1500;
}
);
unicode = 00BF;
},
{
glyphname = AE;
lastChange = "2013-06-12 18:27:36 -0400";
layers = (
{
anchors = (
{
name = top;
position = "{796, 1493}";
}
);
layerId = "6B6936E6-7670-4A82-900D-EAF583C971AF";
name = Regular;
paths = (
{
closed = 1;
nodes = (
"1349 1493 LINE SMOOTH",
"1382 1493 OFFCURVE",
"1399 1476 OFFCURVE",
"1399 1443 CURVE SMOOTH",
"1399 1373 LINE SMOOTH",
"1399 1341 OFFCURVE",
"1382 1323 OFFCURVE",
"1349 1323 CURVE SMOOTH",
"958 1323 LINE SMOOTH",
"926 1323 OFFCURVE",
"908 1306 OFFCURVE",
"908 1273 CURVE SMOOTH",
"908 761 LINE SMOOTH",
"908 729 OFFCURVE",
"926 711 OFFCURVE",
"958 711 CURVE SMOOTH",
"1319 711 LINE SMOOTH",
"1352 711 OFFCURVE",
"1369 694 OFFCURVE",
"1369 661 CURVE SMOOTH",
"1369 591 LINE SMOOTH",
"1369 559 OFFCURVE",
"1351 541 OFFCURVE",
"1319 541 CURVE SMOOTH",
"958 541 LINE SMOOTH",
"926 541 OFFCURVE",
"908 524 OFFCURVE",
"908 491 CURVE SMOOTH",
"908 310 LINE SMOOTH",
"908 278 OFFCURVE",
"926 260 OFFCURVE",
"958 260 CURVE SMOOTH",
"1368 260 LINE SMOOTH",
"1401 260 OFFCURVE",
"1418 242 OFFCURVE",
"1418 210 CURVE SMOOTH",
"1418 50 LINE SMOOTH",
"1418 18 OFFCURVE",
"1400 0 OFFCURVE",
"1368 0 CURVE SMOOTH",
"765 0 LINE SMOOTH",
"733 0 OFFCURVE",
"715 17 OFFCURVE",
"715 50 CURVE SMOOTH",
"715 213 LINE SMOOTH",
"715 246 OFFCURVE",
"698 263 OFFCURVE",
"665 263 CURVE SMOOTH",
"448 263 LINE SMOOTH",
"415 263 OFFCURVE",
"398 245 OFFCURVE",
"399 212 CURVE SMOOTH",
"405 51 LINE SMOOTH",
"406 18 OFFCURVE",
"389 0 OFFCURVE",
"356 0 CURVE SMOOTH",
"125 0 LINE SMOOTH",
"87 0 OFFCURVE",
"77 23 OFFCURVE",
"86 58 CURVE SMOOTH",
"431 1454 LINE SMOOTH",
"438 1481 OFFCURVE",
"460 1493 OFFCURVE",
"489 1493 CURVE SMOOTH"
);
},
{
closed = 1;
nodes = (
"629 1335 LINE SMOOTH",
"600 1335 OFFCURVE",
"576 1322 OFFCURVE",
"571 1295 CURVE SMOOTH",
"427 488 LINE SMOOTH",
"421 454 OFFCURVE",
"430 431 OFFCURVE",
"467 431 CURVE SMOOTH",
"665 431 LINE SMOOTH",
"698 431 OFFCURVE",
"715 449 OFFCURVE",
"715 481 CURVE SMOOTH",
"715 1285 LINE SMOOTH",
"715 1318 OFFCURVE",
"697 1335 OFFCURVE",
"665 1335 CURVE SMOOTH"
);
}
);
width = 1500;
}
);
unicode = 00C6;
},
{
glyphname = Eth;
lastChange = "2013-06-12 15:31:21 -0400";
layers = (
{
layerId = "6B6936E6-7670-4A82-900D-EAF583C971AF";
name = Regular;
paths = (
{
closed = 1;
nodes = (
"302 1443 LINE SMOOTH",
"302 1476 OFFCURVE",
"319 1493 OFFCURVE",
"352 1493 CURVE SMOOTH",
"688 1493 LINE SMOOTH",
"1137 1493 OFFCURVE",
"1399 1260 OFFCURVE",
"1399 748 CURVE SMOOTH",
"1399 233 OFFCURVE",
"1136 0 OFFCURVE",
"688 0 CURVE SMOOTH",
"352 0 LINE SMOOTH",
"320 0 OFFCURVE",
"302 18 OFFCURVE",
"302 50 CURVE SMOOTH",
"302 650 LINE SMOOTH",
"302 683 OFFCURVE",
"285 700 OFFCURVE",
"252 700 CURVE SMOOTH",
"151 700 LINE SMOOTH",
"119 700 OFFCURVE",
"101 717 OFFCURVE",
"101 750 CURVE SMOOTH",
"101 794 LINE SMOOTH",
"101 827 OFFCURVE",
"118 844 OFFCURVE",
"151 844 CURVE SMOOTH",
"252 844 LINE SMOOTH",
"285 844 OFFCURVE",
"302 862 OFFCURVE",
"302 894 CURVE SMOOTH"
);
},
{
closed = 1;
nodes = (
"555 1327 LINE SMOOTH",
"523 1327 OFFCURVE",
"505 1309 OFFCURVE",
"505 1277 CURVE SMOOTH",
"505 894 LINE SMOOTH",
"505 862 OFFCURVE",
"522 844 OFFCURVE",
"555 844 CURVE SMOOTH",
"761 844 LINE SMOOTH",
"793 844 OFFCURVE",
"811 827 OFFCURVE",
"811 794 CURVE SMOOTH",
"811 750 LINE SMOOTH",
"811 718 OFFCURVE",
"793 700 OFFCURVE",
"761 700 CURVE SMOOTH",
"555 700 LINE SMOOTH",
"523 700 OFFCURVE",
"505 683 OFFCURVE",
"505 650 CURVE SMOOTH",
"505 356 LINE SMOOTH",
"505 324 OFFCURVE",
"522 306 OFFCURVE",
"555 306 CURVE SMOOTH",
"718 306 LINE SMOOTH",
"1002 306 OFFCURVE",
"1186 345 OFFCURVE",
"1186 748 CURVE SMOOTH",
"1186 1148 OFFCURVE",
"1002 1327 OFFCURVE",
"718 1327 CURVE SMOOTH"
);
}
);
width = 1500;
}
);
unicode = 00D0;
},
{
glyphname = multiply;
lastChange = "2013-06-12 15:10:19 -0400";
layers = (
{
layerId = "6B6936E6-7670-4A82-900D-EAF583C971AF";
name = Regular;
paths = (
{
closed = 1;
nodes = (
"1278 1085 LINE SMOOTH",
"1301 1062 OFFCURVE",
"1301 1038 OFFCURVE",
"1278 1015 CURVE SMOOTH",
"961 696 LINE SMOOTH",
"938 673 OFFCURVE",
"940 651 OFFCURVE",
"961 626 CURVE SMOOTH",
"1251 290 LINE SMOOTH",
"1272 266 OFFCURVE",
"1271 242 OFFCURVE",
"1249 220 CURVE SMOOTH",
"1149 119 LINE SMOOTH",
"1126 96 OFFCURVE",
"1102 95 OFFCURVE",
"1079 118 CURVE SMOOTH",
"770 427 LINE SMOOTH",
"747 450 OFFCURVE",
"723 450 OFFCURVE",
"700 427 CURVE SMOOTH",
"392 119 LINE SMOOTH",
"368 95 OFFCURVE",
"344 96 OFFCURVE",
"321 119 CURVE SMOOTH",
"223 219 LINE SMOOTH",
"200 242 OFFCURVE",
"200 266 OFFCURVE",
"222 289 CURVE SMOOTH",
"549 626 LINE SMOOTH",
"572 649 OFFCURVE",
"572 673 OFFCURVE",
"549 696 CURVE SMOOTH",
"263 985 LINE SMOOTH",
"240 1008 OFFCURVE",
"240 1032 OFFCURVE",
"263 1055 CURVE SMOOTH",
"361 1155 LINE SMOOTH",
"384 1178 OFFCURVE",
"408 1179 OFFCURVE",
"432 1155 CURVE SMOOTH",
"720 867 LINE SMOOTH",
"743 844 OFFCURVE",
"767 844 OFFCURVE",
"790 867 CURVE SMOOTH",
"1109 1186 LINE SMOOTH",
"1132 1209 OFFCURVE",
"1156 1208 OFFCURVE",
"1179 1185 CURVE SMOOTH"
);
}
);
width = 1500;
}
);
unicode = 00D7;
},
{
glyphname = Thorn;
lastChange = "2013-06-12 15:10:19 -0400";
layers = (
{
layerId = "6B6936E6-7670-4A82-900D-EAF583C971AF";
name = Regular;
paths = (
{
closed = 1;
nodes = (
"268 1493 LINE",
"470 1493 LINE",
"470 1279 LINE SMOOTH",
"470 1247 OFFCURVE",
"487 1229 OFFCURVE",
"520 1229 CURVE SMOOTH",
"724 1229 LINE SMOOTH",
"1059 1229 OFFCURVE",
"1232 1077 OFFCURVE",
"1232 784 CURVE SMOOTH",
"1232 491 OFFCURVE",
"1059 338 OFFCURVE",
"724 338 CURVE SMOOTH",
"520 338 LINE SMOOTH",
"488 338 OFFCURVE",
"470 320 OFFCURVE",
"470 288 CURVE SMOOTH",
"470 0 LINE",
"268 0 LINE"
);
},
{
closed = 1;
nodes = (
"520 1063 LINE SMOOTH",
"488 1063 OFFCURVE",
"470 1045 OFFCURVE",
"470 1013 CURVE SMOOTH",
"470 554 LINE SMOOTH",
"470 522 OFFCURVE",
"487 504 OFFCURVE",
"520 504 CURVE SMOOTH",
"724 504 LINE SMOOTH",
"912 504 OFFCURVE",
"1019 605 OFFCURVE",
"1019 784 CURVE SMOOTH",
"1019 963 OFFCURVE",
"913 1063 OFFCURVE",
"724 1063 CURVE SMOOTH"
);
}
);
width = 1500;
}
);
unicode = 00DE;
},
{
glyphname = germandbls;
lastChange = "2013-06-12 15:10:19 -0400";
layers = (
{
layerId = "6B6936E6-7670-4A82-900D-EAF583C971AF";
name = Regular;
paths = (
{
closed = 1;
nodes = (
"275 1137 LINE",
"275 1404 OFFCURVE",
"441 1556 OFFCURVE",
"732 1556 CURVE SMOOTH",
"1009 1556 OFFCURVE",
"1158 1399 OFFCURVE",
"1162 1100 CURVE",
"961 1089 OFFCURVE",
"843 1009 OFFCURVE",
"843 881 CURVE SMOOTH",
"843 818 OFFCURVE",
"879 767 OFFCURVE",
"966 711 CURVE SMOOTH",
"1023 674 LINE SMOOTH",
"1244 533 OFFCURVE",
"1285 459 OFFCURVE",
"1285 326 CURVE SMOOTH",
"1285 97 OFFCURVE",
"1130 -29 OFFCURVE",
"849 -29 CURVE SMOOTH",
"764 -29 OFFCURVE",
"673 -12 OFFCURVE",
"576 20 CURVE",
"576 264 LINE",
"683 224 OFFCURVE",
"774 205 OFFCURVE",
"861 205 CURVE SMOOTH",
"1016 205 OFFCURVE",
"1097 250 OFFCURVE",
"1097 331 CURVE SMOOTH",
"1097 360 OFFCURVE",
"1087 388 OFFCURVE",
"1068 416 CURVE SMOOTH",
"1048 444 OFFCURVE",
"1004 479 OFFCURVE",
"937 520 CURVE",
"855 575 LINE",
"794 654 OFFCURVE",
"722 739 OFFCURVE",
"722 860 CURVE SMOOTH",
"722 1016 OFFCURVE",
"773 1130 OFFCURVE",
"991 1178 CURVE SMOOTH",
"1028 1185 OFFCURVE",
"1041 1209 OFFCURVE",
"1025 1243 CURVE SMOOTH",
"935 1434 OFFCURVE",
"867 1443 OFFCURVE",
"728 1443 CURVE SMOOTH",
"563 1443 OFFCURVE",
"477 1368 OFFCURVE",
"446 1164 CURVE SMOOTH",
"443 1141 OFFCURVE",
"442 1125 OFFCURVE",
"443 1103 CURVE SMOOTH",
"492 0 LINE",
"215 0 LINE"
);
}
);
width = 1500;
}
);
unicode = 00DF;
},
{
glyphname = ae;
lastChange = "2013-06-12 15:10:19 -0400";
layers = (
{
anchors = (
{
name = top;
position = "{745, 1120}";
}
);
layerId = "6B6936E6-7670-4A82-900D-EAF583C971AF";
name = Regular;
paths = (
{
closed = 1;
nodes = (
"1403 720 LINE SMOOTH",
"1436 720 OFFCURVE",
"1456 739 OFFCURVE",
"1450 772 CURVE SMOOTH",
"1425 905 OFFCURVE",
"1314 1045 OFFCURVE",
"1152 1045 CURVE SMOOTH",
"972 1045 OFFCURVE",
"850 912 OFFCURVE",
"811 773 CURVE SMOOTH",
"802 740 OFFCURVE",
"821 719 OFFCURVE",
"856 719 CURVE SMOOTH"
);
},
{
closed = 1;
nodes = (
"864 1097 OFFCURVE",
"994 1147 OFFCURVE",
"1150 1147 CURVE SMOOTH",
"1451 1147 OFFCURVE",
"1640 919 OFFCURVE",
"1640 666 CURVE SMOOTH",
"1640 576 LINE",
"849 576 LINE SMOOTH",
"814 576 OFFCURVE",
"795 556 OFFCURVE",
"803 522 CURVE SMOOTH",
"840 370 OFFCURVE",
"974 245 OFFCURVE",
"1193 245 CURVE SMOOTH",
"1332 245 OFFCURVE",
"1464 280 OFFCURVE",
"1597 351 CURVE",
"1597 87 LINE",
"1464 31 OFFCURVE",
"1324 -29 OFFCURVE",
"1183 -29 CURVE SMOOTH",
"983 -29 OFFCURVE",
"829 36 OFFCURVE",
"725 164 CURVE SMOOTH",
"702 192 OFFCURVE",
"680 192 OFFCURVE",
"658 163 CURVE SMOOTH",
"563 35 OFFCURVE",
"430 -29 OFFCURVE",
"259 -29 CURVE SMOOTH",
"7 -29 OFFCURVE",
"-140 102 OFFCURVE",
"-140 326 CURVE SMOOTH",
"-140 658 OFFCURVE",
"29 767 OFFCURVE",
"364 767 CURVE SMOOTH",
"572 767 LINE SMOOTH",
"605 767 OFFCURVE",
"622 773 OFFCURVE",
"622 785 CURVE SMOOTH",
"622 874 OFFCURVE",
"505 1031 OFFCURVE",
"304 1031 CURVE SMOOTH",
"176 1031 OFFCURVE",
"54 1000 OFFCURVE",
"-58 939 CURVE",
"-58 1069 LINE",
"77 1121 OFFCURVE",
"203 1147 OFFCURVE",
"323 1147 CURVE SMOOTH",
"488 1147 OFFCURVE",
"621 1096 OFFCURVE",
"701 1006 CURVE SMOOTH",
"723 980 OFFCURVE",
"744 978 OFFCURVE",
"768 1002 CURVE SMOOTH"
);
},
{
closed = 1;
nodes = (
"439 623 LINE SMOOTH",
"142 623 OFFCURVE",
"44 590 OFFCURVE",
"44 395 CURVE SMOOTH",
"44 291 OFFCURVE",
"136 225 OFFCURVE",
"284 225 CURVE SMOOTH",
"488 225 OFFCURVE",
"622 334 OFFCURVE",
"622 590 CURVE SMOOTH",
"622 573 LINE SMOOTH",
"622 606 OFFCURVE",
"604 623 OFFCURVE",
"572 623 CURVE SMOOTH"
);
}
);
width = 1500;
}
);
unicode = 00E6;
},
{
glyphname = igrave;
lastChange = "2013-06-12 15:10:19 -0400";
layers = (
{
layerId = "6B6936E6-7670-4A82-900D-EAF583C971AF";
name = Regular;
paths = (
{
closed = 1;
nodes = (
"796 1070 LINE SMOOTH",
"798 1103 OFFCURVE",
"813 1120 OFFCURVE",
"846 1120 CURVE SMOOTH",
"930 1120 LINE SMOOTH",
"963 1120 OFFCURVE",
"980 1102 OFFCURVE",
"980 1070 CURVE SMOOTH",
"980 50 LINE SMOOTH",
"980 18 OFFCURVE",
"962 0 OFFCURVE",
"930 0 CURVE SMOOTH",
"773 0 LINE SMOOTH",
"741 0 OFFCURVE",
"721 18 OFFCURVE",
"723 50 CURVE SMOOTH"
);
},
{
closed = 1;
nodes = (
"654 1638 LINE SMOOTH",
"681 1638 OFFCURVE",
"699 1629 OFFCURVE",
"715 1608 CURVE SMOOTH",
"928 1325 LINE SMOOTH",
"953 1291 OFFCURVE",
"940 1264 OFFCURVE",
"898 1264 CURVE SMOOTH",
"741 1264 LINE SMOOTH",
"713 1264 OFFCURVE",
"695 1275 OFFCURVE",
"682 1299 CURVE SMOOTH",
"528 1578 LINE SMOOTH",
"509 1613 OFFCURVE",
"524 1638 OFFCURVE",
"563 1638 CURVE SMOOTH"
);
}
);
width = 1500;
}
);
unicode = 00EC;
},
{
glyphname = iacute;
lastChange = "2013-06-12 15:10:19 -0400";
layers = (
{
layerId = "6B6936E6-7670-4A82-900D-EAF583C971AF";
name = Regular;
paths = (
{
closed = 1;
nodes = (
"595 1070 LINE SMOOTH",
"595 1103 OFFCURVE",
"612 1120 OFFCURVE",
"645 1120 CURVE SMOOTH",
"729 1120 LINE SMOOTH",
"762 1120 OFFCURVE",
"777 1102 OFFCURVE",
"779 1070 CURVE SMOOTH",
"847 50 LINE SMOOTH",
"849 18 OFFCURVE",
"830 0 OFFCURVE",
"797 0 CURVE SMOOTH",
"645 0 LINE SMOOTH",
"613 0 OFFCURVE",
"595 18 OFFCURVE",
"595 50 CURVE SMOOTH"
);
},
{
closed = 1;
nodes = (
"775 1608 LINE SMOOTH",
"791 1629 OFFCURVE",
"809 1638 OFFCURVE",
"836 1638 CURVE SMOOTH",
"938 1638 LINE SMOOTH",
"981 1638 OFFCURVE",
"994 1609 OFFCURVE",
"966 1577 CURVE SMOOTH",
"680 1248 LINE SMOOTH",
"663 1228 OFFCURVE",
"645 1220 OFFCURVE",
"619 1220 CURVE SMOOTH",
"562 1220 LINE SMOOTH",
"520 1220 OFFCURVE",
"506 1247 OFFCURVE",
"532 1281 CURVE SMOOTH"
);
}
);
width = 1500;
}
);
unicode = 00ED;
},
{
glyphname = icircumflex;
lastChange = "2013-06-12 15:10:19 -0400";
layers = (
{
layerId = "6B6936E6-7670-4A82-900D-EAF583C971AF";
name = Regular;
paths = (
{
closed = 1;
nodes = (
"683 1070 LINE SMOOTH",
"684 1103 OFFCURVE",
"700 1120 OFFCURVE",
"733 1120 CURVE SMOOTH",
"817 1120 LINE SMOOTH",
"850 1120 OFFCURVE",
"866 1102 OFFCURVE",
"867 1070 CURVE SMOOTH",
"887 50 LINE SMOOTH",
"888 18 OFFCURVE",
"870 0 OFFCURVE",
"837 0 CURVE SMOOTH",
"713 0 LINE SMOOTH",
"681 0 OFFCURVE",
"662 18 OFFCURVE",
"663 50 CURVE SMOOTH"
);
},
{
closed = 1;
nodes = (
"655 1605 LINE SMOOTH",
"670 1628 OFFCURVE",
"688 1638 OFFCURVE",
"715 1638 CURVE SMOOTH",
"785 1638 LINE SMOOTH",
"812 1638 OFFCURVE",
"830 1628 OFFCURVE",
"845 1605 CURVE SMOOTH",
"1030 1322 LINE SMOOTH",
"1052 1288 OFFCURVE",
"1038 1262 OFFCURVE",
"997 1262 CURVE SMOOTH",
"968 1262 LINE SMOOTH",
"941 1262 OFFCURVE",
"923 1271 OFFCURVE",
"907 1293 CURVE SMOOTH",
"785 1459 LINE SMOOTH",
"764 1488 OFFCURVE",
"736 1488 OFFCURVE",
"715 1459 CURVE SMOOTH",
"593 1293 LINE SMOOTH",
"577 1271 OFFCURVE",
"559 1262 OFFCURVE",
"532 1262 CURVE SMOOTH",
"501 1262 LINE SMOOTH",
"461 1262 OFFCURVE",
"448 1288 OFFCURVE",
"470 1322 CURVE SMOOTH"
);
}
);
width = 1500;
}
);
unicode = 00EE;
},
{
glyphname = idieresis;
lastChange = "2013-06-12 15:10:19 -0400";
layers = (
{
layerId = "6B6936E6-7670-4A82-900D-EAF583C971AF";
name = Regular;
paths = (
{
closed = 1;
nodes = (
"657 1070 LINE SMOOTH",
"658 1103 OFFCURVE",
"674 1120 OFFCURVE",
"707 1120 CURVE SMOOTH",
"791 1120 LINE SMOOTH",
"824 1120 OFFCURVE",
"841 1102 OFFCURVE",
"841 1070 CURVE SMOOTH",
"841 50 LINE SMOOTH",
"841 18 OFFCURVE",
"824 0 OFFCURVE",
"791 0 CURVE SMOOTH",
"687 0 LINE SMOOTH",
"655 0 OFFCURVE",
"636 18 OFFCURVE",
"637 50 CURVE SMOOTH"
);
},
{
closed = 1;
nodes = (
"851 1517 LINE SMOOTH",
"851 1550 OFFCURVE",
"868 1567 OFFCURVE",
"901 1567 CURVE SMOOTH",
"1019 1567 LINE SMOOTH",
"1052 1567 OFFCURVE",
"1069 1550 OFFCURVE",
"1069 1517 CURVE SMOOTH",
"1069 1400 LINE SMOOTH",
"1069 1368 OFFCURVE",
"1052 1350 OFFCURVE",
"1019 1350 CURVE SMOOTH",
"901 1350 LINE SMOOTH",
"869 1350 OFFCURVE",
"851 1368 OFFCURVE",
"851 1400 CURVE SMOOTH"
);
},
{
closed = 1;
nodes = (
"432 1517 LINE SMOOTH",
"432 1550 OFFCURVE",
"449 1567 OFFCURVE",
"482 1567 CURVE SMOOTH",
"600 1567 LINE SMOOTH",
"633 1567 OFFCURVE",
"650 1550 OFFCURVE",
"650 1517 CURVE SMOOTH",
"650 1400 LINE SMOOTH",
"650 1368 OFFCURVE",
"633 1350 OFFCURVE",
"600 1350 CURVE SMOOTH",
"482 1350 LINE SMOOTH",
"450 1350 OFFCURVE",
"432 1368 OFFCURVE",
"432 1400 CURVE SMOOTH"
);
}
);
width = 1500;
}
);
unicode = 00EF;
},
{
glyphname = eth;
lastChange = "2013-06-12 15:10:19 -0400";
layers = (
{
layerId = "6B6936E6-7670-4A82-900D-EAF583C971AF";
name = Regular;
paths = (
{
closed = 1;
nodes = (
"875 941 OFFCURVE",
"828 948 OFFCURVE",
"782 948 CURVE SMOOTH",
"559 948 OFFCURVE",
"430 797 OFFCURVE",
"430 537 CURVE SMOOTH",
"430 286 OFFCURVE",
"555 275 OFFCURVE",
"750 275 CURVE SMOOTH",
"943 275 OFFCURVE",
"1069 286 OFFCURVE",
"1069 537 CURVE SMOOTH",
"1069 684 OFFCURVE",
"1040 800 OFFCURVE",
"981 888 CURVE SMOOTH",
"967 908 OFFCURVE",
"952 918 OFFCURVE",
"928 925 CURVE SMOOTH"
);
},
{
closed = 1;
nodes = (
"1024 1141 LINE SMOOTH",
"1192 950 OFFCURVE",
"1264 768 OFFCURVE",
"1264 537 CURVE SMOOTH",
"1264 197 OFFCURVE",
"1057 -29 OFFCURVE",
"750 -29 CURVE SMOOTH",
"442 -29 OFFCURVE",
"236 197 OFFCURVE",
"236 537 CURVE SMOOTH",
"236 870 OFFCURVE",
"438 1098 OFFCURVE",
"733 1098 CURVE SMOOTH",
"747 1098 OFFCURVE",
"764 1097 OFFCURVE",
"788 1095 CURVE SMOOTH",
"817 1092 OFFCURVE",
"816 1121 OFFCURVE",
"786 1155 CURVE SMOOTH",
"714 1237 LINE SMOOTH",
"695 1258 OFFCURVE",
"674 1264 OFFCURVE",
"646 1255 CURVE SMOOTH",
"414 1177 LINE SMOOTH",
"384 1167 OFFCURVE",
"361 1178 OFFCURVE",
"351 1209 CURVE SMOOTH",
"350 1212 LINE SMOOTH",
"340 1243 OFFCURVE",
"351 1265 OFFCURVE",
"382 1276 CURVE SMOOTH",
"555 1332 LINE SMOOTH",
"591 1344 OFFCURVE",
"598 1371 OFFCURVE",
"573 1400 CURVE SMOOTH",
"489 1495 LINE SMOOTH",
"460 1527 OFFCURVE",
"473 1556 OFFCURVE",
"516 1556 CURVE SMOOTH",
"625 1556 LINE SMOOTH",
"651 1556 OFFCURVE",
"669 1548 OFFCURVE",
"686 1528 CURVE SMOOTH",
"761 1442 LINE SMOOTH",
"780 1421 OFFCURVE",
"801 1415 OFFCURVE",
"829 1424 CURVE SMOOTH",
"1075 1506 LINE SMOOTH",
"1106 1516 OFFCURVE",
"1128 1506 OFFCURVE",
"1138 1475 CURVE SMOOTH",
"1139 1473 LINE SMOOTH",
"1149 1442 OFFCURVE",
"1138 1419 OFFCURVE",
"1107 1409 CURVE SMOOTH",
"920 1347 LINE SMOOTH",
"884 1335 OFFCURVE",
"877 1308 OFFCURVE",
"902 1279 CURVE SMOOTH"
);
}
);
width = 1500;
}
);
unicode = 00F0;
},
{
glyphname = divide;
lastChange = "2013-06-12 15:10:19 -0400";
layers = (
{
layerId = "6B6936E6-7670-4A82-900D-EAF583C971AF";
name = Regular;
paths = (
{
closed = 1;
nodes = (
"602 1145 LINE SMOOTH",
"602 1178 OFFCURVE",
"619 1185 OFFCURVE",
"652 1185 CURVE SMOOTH",
"848 1185 LINE SMOOTH",
"881 1185 OFFCURVE",
"898 1178 OFFCURVE",
"898 1145 CURVE SMOOTH",
"898 949 LINE SMOOTH",
"898 917 OFFCURVE",
"881 899 OFFCURVE",
"848 899 CURVE SMOOTH",
"652 899 LINE SMOOTH",
"620 899 OFFCURVE",
"602 917 OFFCURVE",
"602 949 CURVE SMOOTH"
);
},
{
closed = 1;
nodes = (
"602 295 LINE SMOOTH",
"602 328 OFFCURVE",
"619 345 OFFCURVE",
"652 345 CURVE SMOOTH",
"848 345 LINE SMOOTH",
"881 345 OFFCURVE",
"898 327 OFFCURVE",
"898 295 CURVE SMOOTH",
"898 100 LINE SMOOTH",
"898 68 OFFCURVE",
"881 50 OFFCURVE",
"848 50 CURVE SMOOTH",
"652 50 LINE SMOOTH",
"620 50 OFFCURVE",
"602 68 OFFCURVE",
"602 100 CURVE SMOOTH"
);
},
{
closed = 1;
nodes = (
"84 687 LINE SMOOTH",
"84 720 OFFCURVE",
"102 737 OFFCURVE",
"134 737 CURVE SMOOTH",
"1366 737 LINE SMOOTH",
"1399 737 OFFCURVE",
"1416 719 OFFCURVE",
"1416 687 CURVE SMOOTH",
"1416 567 LINE SMOOTH",
"1416 535 OFFCURVE",
"1398 517 OFFCURVE",
"1366 517 CURVE SMOOTH",
"134 517 LINE SMOOTH",
"102 517 OFFCURVE",
"84 535 OFFCURVE",
"84 567 CURVE SMOOTH"
);
}
);
width = 1500;
}
);
unicode = 00F7;
},
{
glyphname = thorn;
lastChange = "2013-06-12 15:10:19 -0400";
layers = (
{
layerId = "6B6936E6-7670-4A82-900D-EAF583C971AF";
name = Regular;
paths = (
{
closed = 1;
nodes = (
"444 -466 LINE SMOOTH",
"445 -499 OFFCURVE",
"427 -516 OFFCURVE",
"394 -516 CURVE SMOOTH",
"309 -516 LINE SMOOTH",
"277 -516 OFFCURVE",
"259 -498 OFFCURVE",
"259 -466 CURVE SMOOTH",
"249 1506 LINE SMOOTH",
"249 1539 OFFCURVE",
"266 1556 OFFCURVE",
"299 1556 CURVE SMOOTH",
"384 1556 LINE SMOOTH",
"417 1556 OFFCURVE",
"434 1539 OFFCURVE",
"434 1506 CURVE SMOOTH",
"434 1041 LINE SMOOTH",
"434 995 OFFCURVE",
"456 989 OFFCURVE",
"487 1024 CURVE SMOOTH",
"561 1107 OFFCURVE",
"662 1147 OFFCURVE",
"792 1147 CURVE SMOOTH",
"1064 1147 OFFCURVE",
"1251 911 OFFCURVE",
"1251 559 CURVE SMOOTH",
"1251 207 OFFCURVE",
"1064 -29 OFFCURVE",
"792 -29 CURVE SMOOTH",
"662 -29 OFFCURVE",
"561 11 OFFCURVE",
"487 94 CURVE SMOOTH",
"456 129 OFFCURVE",
"433 123 OFFCURVE",
"434 77 CURVE SMOOTH"
);
},
{
closed = 1;
nodes = (
"1060 830 OFFCURVE",
"942 993 OFFCURVE",
"747 993 CURVE SMOOTH",
"552 993 OFFCURVE",
"434 830 OFFCURVE",
"434 559 CURVE SMOOTH",
"434 288 OFFCURVE",
"552 240 OFFCURVE",
"747 240 CURVE SMOOTH",
"942 240 OFFCURVE",
"1060 288 OFFCURVE",
"1060 559 CURVE SMOOTH"
);
}
);
width = 1500;
}
);
unicode = 00FE;
},
{
glyphname = dotlessi;
lastChange = "2013-06-12 15:10:19 -0400";
layers = (
{
anchors = (
{
name = ogonek;
position = "{754, 31}";
},
{
name = top;
position = "{723, 1120}";
}
);
layerId = "6B6936E6-7670-4A82-900D-EAF583C971AF";
name = Regular;
paths = (
{
closed = 1;
nodes = (
"661 409 OFFCURVE",
"667 751 OFFCURVE",
"664 1075 CURVE SMOOTH",
"664 1104 OFFCURVE",
"682 1120 OFFCURVE",
"714 1120 CURVE SMOOTH",
"777 1120 LINE SMOOTH",
"810 1120 OFFCURVE",
"827 1102 OFFCURVE",
"826 1070 CURVE SMOOTH",
"818 762 OFFCURVE",
"827 421 OFFCURVE",
"863 53 CURVE SMOOTH",
"866 19 OFFCURVE",
"849 0 OFFCURVE",
"815 0 CURVE SMOOTH",
"686 0 LINE SMOOTH",
"652 0 OFFCURVE",
"635 18 OFFCURVE",
"637 52 CURVE SMOOTH"
);
}
);
width = 1500;
}
);
unicode = 0131;
},
{
glyphname = Lslash;
lastChange = "2013-06-12 15:10:19 -0400";
layers = (
{
layerId = "6B6936E6-7670-4A82-900D-EAF583C971AF";
name = Regular;
paths = (
{
closed = 1;
nodes = (
"389 1443 LINE SMOOTH",
"389 1476 OFFCURVE",
"407 1493 OFFCURVE",
"439 1493 CURVE SMOOTH",
"542 1493 LINE SMOOTH",
"575 1493 OFFCURVE",
"592 1476 OFFCURVE",
"592 1443 CURVE SMOOTH",
"592 951 LINE SMOOTH",
"592 910 OFFCURVE",
"619 896 OFFCURVE",
"653 919 CURVE SMOOTH",
"864 1068 LINE SMOOTH",
"891 1086 OFFCURVE",
"915 1082 OFFCURVE",
"934 1056 CURVE SMOOTH",
"956 1026 LINE SMOOTH",
"975 999 OFFCURVE",
"970 975 OFFCURVE",
"944 956 CURVE SMOOTH",
"624 733 LINE SMOOTH",
"601 718 OFFCURVE",
"592 699 OFFCURVE",
"592 673 CURVE SMOOTH",
"592 220 LINE SMOOTH",
"592 188 OFFCURVE",
"609 170 OFFCURVE",
"642 170 CURVE SMOOTH",
"1269 170 LINE SMOOTH",
"1301 170 OFFCURVE",
"1319 153 OFFCURVE",
"1319 120 CURVE SMOOTH",
"1319 50 LINE SMOOTH",
"1319 18 OFFCURVE",
"1301 0 OFFCURVE",
"1269 0 CURVE SMOOTH",
"439 0 LINE SMOOTH",
"407 0 OFFCURVE",
"389 18 OFFCURVE",
"389 50 CURVE SMOOTH",
"389 496 LINE SMOOTH",
"389 538 OFFCURVE",
"362 552 OFFCURVE",
"328 527 CURVE SMOOTH",
"282 494 LINE SMOOTH",
"255 475 OFFCURVE",
"231 479 OFFCURVE",
"212 506 CURVE SMOOTH",
"193 534 LINE SMOOTH",
"174 561 OFFCURVE",
"178 585 OFFCURVE",
"205 604 CURVE SMOOTH",
"358 711 LINE SMOOTH",
"380 726 OFFCURVE",
"389 745 OFFCURVE",
"389 771 CURVE SMOOTH"
);
}
);
width = 1500;
}
);
unicode = 0141;
},
{
glyphname = lslash;
lastChange = "2013-06-12 15:10:19 -0400";
layers = (
{
layerId = "6B6936E6-7670-4A82-900D-EAF583C971AF";
name = Regular;
paths = (
{
closed = 1;
nodes = (
"656 1506 LINE SMOOTH",
"656 1539 OFFCURVE",
"673 1556 OFFCURVE",
"706 1556 CURVE SMOOTH",
"790 1556 LINE SMOOTH",
"823 1556 OFFCURVE",
"840 1538 OFFCURVE",
"840 1506 CURVE SMOOTH",
"840 1029 LINE SMOOTH",
"840 987 OFFCURVE",
"867 973 OFFCURVE",
"901 998 CURVE SMOOTH",
"933 1021 LINE SMOOTH",
"954 1036 OFFCURVE",
"975 1030 OFFCURVE",
"994 1004 CURVE SMOOTH",
"1012 979 LINE SMOOTH",
"1031 952 OFFCURVE",
"1027 928 OFFCURVE",
"1000 909 CURVE SMOOTH",
"871 819 LINE SMOOTH",
"849 804 OFFCURVE",
"840 785 OFFCURVE",
"840 759 CURVE SMOOTH",
"840 50 LINE SMOOTH",
"840 18 OFFCURVE",
"823 0 OFFCURVE",
"790 0 CURVE SMOOTH",
"706 0 LINE SMOOTH",
"674 0 OFFCURVE",
"656 18 OFFCURVE",
"656 50 CURVE SMOOTH",
"656 591 LINE SMOOTH",
"656 633 OFFCURVE",
"629 647 OFFCURVE",
"595 622 CURVE SMOOTH",
"564 600 LINE SMOOTH",
"544 586 OFFCURVE",
"523 592 OFFCURVE",
"504 619 CURVE SMOOTH",
"487 643 LINE SMOOTH",
"469 670 OFFCURVE",
"473 694 OFFCURVE",
"499 713 CURVE SMOOTH",
"625 803 LINE SMOOTH",
"647 818 OFFCURVE",
"656 836 OFFCURVE",
"656 863 CURVE SMOOTH"
);
}
);
width = 1500;
}
);
unicode = 0142;
},
{
glyphname = OE;
lastChange = "2013-06-12 15:10:19 -0400";
layers = (
{
anchors = (
{
name = top;
position = "{869, 1493}";
}
);
layerId = "6B6936E6-7670-4A82-900D-EAF583C971AF";
name = Regular;
paths = (
{
closed = 1;
nodes = (
"1537 1493 LINE SMOOTH",
"1570 1493 OFFCURVE",
"1587 1476 OFFCURVE",
"1587 1443 CURVE SMOOTH",
"1587 1413 LINE SMOOTH",
"1587 1381 OFFCURVE",
"1569 1363 OFFCURVE",
"1537 1363 CURVE SMOOTH",
"1131 1363 LINE SMOOTH",
"1099 1363 OFFCURVE",
"1081 1346 OFFCURVE",
"1081 1313 CURVE SMOOTH",
"1081 1001 LINE SMOOTH",
"1081 969 OFFCURVE",
"1098 951 OFFCURVE",
"1131 951 CURVE SMOOTH",
"1526 951 LINE SMOOTH",
"1558 951 OFFCURVE",
"1576 934 OFFCURVE",
"1576 901 CURVE SMOOTH",
"1576 831 LINE SMOOTH",
"1576 799 OFFCURVE",
"1558 781 OFFCURVE",
"1526 781 CURVE SMOOTH",
"1131 781 LINE SMOOTH",
"1099 781 OFFCURVE",
"1081 764 OFFCURVE",
"1081 731 CURVE SMOOTH",
"1081 330 LINE SMOOTH",
"1081 298 OFFCURVE",
"1099 280 OFFCURVE",
"1131 280 CURVE SMOOTH",
"1555 280 LINE SMOOTH",
"1588 280 OFFCURVE",
"1605 263 OFFCURVE",
"1605 230 CURVE SMOOTH",
"1605 50 LINE SMOOTH",
"1605 18 OFFCURVE",
"1587 0 OFFCURVE",
"1555 0 CURVE SMOOTH",
"776 0 LINE SMOOTH",
"198 0 OFFCURVE",
"-105 257 OFFCURVE",
"-105 748 CURVE SMOOTH",
"-105 1235 OFFCURVE",
"198 1493 OFFCURVE",
"776 1493 CURVE SMOOTH"
);
},
{
closed = 1;
nodes = (
"879 1313 LINE SMOOTH",
"879 1345 OFFCURVE",
"861 1363 OFFCURVE",
"829 1363 CURVE SMOOTH",
"750 1363 LINE SMOOTH",
"321 1363 OFFCURVE",
"108 1185 OFFCURVE",
"108 748 CURVE SMOOTH",
"108 509 OFFCURVE",
"321 280 OFFCURVE",
"750 280 CURVE SMOOTH",
"829 280 LINE SMOOTH",
"862 280 OFFCURVE",
"879 297 OFFCURVE",
"879 330 CURVE SMOOTH"
);
}
);
width = 1500;
}
);
unicode = 0152;
},
{
glyphname = oe;
lastChange = "2013-06-12 18:38:23 -0400";
layers = (
{
anchors = (
{
name = top;
position = "{796, 1120}";
}
);
layerId = "6B6936E6-7670-4A82-900D-EAF583C971AF";
name = Regular;
paths = (
{
closed = 1;
nodes = (
"1315 800 LINE SMOOTH",
"1351 800 OFFCURVE",
"1372 822 OFFCURVE",
"1358 854 CURVE SMOOTH",
"1322 938 OFFCURVE",
"1217 1041 OFFCURVE",
"1139 1041 CURVE SMOOTH",
"984 1041 OFFCURVE",
"928 942 OFFCURVE",
"880 856 CURVE SMOOTH",
"861 823 OFFCURVE",
"882 799 OFFCURVE",
"919 799 CURVE SMOOTH"
);
},
{
closed = 1;
nodes = (
"1497 716 LINE SMOOTH",
"1497 684 OFFCURVE",
"1479 666 OFFCURVE",
"1447 666 CURVE SMOOTH",
"912 666 LINE SMOOTH",
"879 666 OFFCURVE",
"861 647 OFFCURVE",
"864 612 CURVE SMOOTH",
"889 320 OFFCURVE",
"976 257 OFFCURVE",
"1180 257 CURVE SMOOTH",
"1290 257 OFFCURVE",
"1323 277 OFFCURVE",
"1435 327 CURVE SMOOTH",
"1470 343 OFFCURVE",
"1494 329 OFFCURVE",
"1494 291 CURVE SMOOTH",
"1494 94 LINE SMOOTH",
"1494 65 OFFCURVE",
"1482 47 OFFCURVE",
"1455 36 CURVE SMOOTH",
"1334 -10 OFFCURVE",
"1287 -29 OFFCURVE",
"1170 -29 CURVE SMOOTH",
"1059 -29 OFFCURVE",
"899 30 OFFCURVE",
"812 147 CURVE SMOOTH",
"791 175 OFFCURVE",
"760 175 OFFCURVE",
"744 145 CURVE SMOOTH",
"681 28 OFFCURVE",
"554 -29 OFFCURVE",
"417 -29 CURVE SMOOTH",
"196 -29 OFFCURVE",
"3 192 OFFCURVE",
"3 559 CURVE SMOOTH",
"3 927 OFFCURVE",
"226 1147 OFFCURVE",
"417 1147 CURVE SMOOTH",
"553 1147 OFFCURVE",
"683 1088 OFFCURVE",
"742 974 CURVE SMOOTH",
"758 943 OFFCURVE",
"789 944 OFFCURVE",
"809 972 CURVE SMOOTH",
"892 1086 OFFCURVE",
"977 1147 OFFCURVE",
"1137 1147 CURVE SMOOTH",
"1368 1147 OFFCURVE",
"1497 889 OFFCURVE",
"1497 756 CURVE SMOOTH"
);
},
{
closed = 1;
nodes = (
"313 1016 OFFCURVE",
"194 870 OFFCURVE",
"194 623 CURVE SMOOTH",
"194 376 OFFCURVE",
"318 265 OFFCURVE",
"417 265 CURVE SMOOTH",
"583 265 OFFCURVE",
"706 378 OFFCURVE",
"706 623 CURVE SMOOTH",
"706 867 OFFCURVE",
"583 1016 OFFCURVE",
"417 1016 CURVE SMOOTH"
);
}
);
width = 1500;
}
);
unicode = 0153;
},
{
glyphname = florin;
lastChange = "2013-06-12 15:10:19 -0400";
layers = (
{
layerId = "6B6936E6-7670-4A82-900D-EAF583C971AF";
name = Regular;
paths = (
{
closed = 1;
nodes = (
"1372 1443 LINE SMOOTH",
"1372 1404 OFFCURVE",
"1350 1394 OFFCURVE",
"1315 1411 CURVE SMOOTH",
"1282 1426 OFFCURVE",
"1247 1433 OFFCURVE",
"1210 1433 CURVE SMOOTH",
"1082 1433 OFFCURVE",
"1008 1355 OFFCURVE",
"975 1179 CURVE SMOOTH",
"925 904 LINE SMOOTH",
"919 869 OFFCURVE",
"937 850 OFFCURVE",
"972 852 CURVE SMOOTH",
"1150 864 LINE SMOOTH",
"1184 867 OFFCURVE",
"1202 849 OFFCURVE",
"1202 816 CURVE SMOOTH",
"1202 773 LINE SMOOTH",
"1202 742 OFFCURVE",
"1185 724 OFFCURVE",
"1154 722 CURVE SMOOTH",
"930 708 LINE SMOOTH",
"900 706 OFFCURVE",
"883 690 OFFCURVE",
"879 660 CURVE SMOOTH",
"818 220 LINE SMOOTH",
"730 -414 OFFCURVE",
"574 -426 OFFCURVE",
"326 -426 CURVE SMOOTH",
"266 -426 OFFCURVE",
"213 -417 OFFCURVE",
"163 -400 CURVE SMOOTH",
"134 -390 OFFCURVE",
"124 -368 OFFCURVE",
"129 -338 CURVE SMOOTH",
"170 -126 LINE SMOOTH",
"177 -90 OFFCURVE",
"200 -80 OFFCURVE",
"233 -97 CURVE SMOOTH",
"283 -121 OFFCURVE",
"330 -133 OFFCURVE",
"377 -133 CURVE SMOOTH",
"506 -133 OFFCURVE",
"572 -51 OFFCURVE",
"617 170 CURVE",
"686 649 LINE SMOOTH",
"691 684 OFFCURVE",
"673 703 OFFCURVE",
"638 700 CURVE SMOOTH",
"498 689 LINE SMOOTH",
"465 686 OFFCURVE",
"446 704 OFFCURVE",
"446 737 CURVE SMOOTH",
"446 780 LINE SMOOTH",
"446 811 OFFCURVE",
"462 829 OFFCURVE",
"494 831 CURVE SMOOTH",
"681 845 LINE SMOOTH",
"711 847 OFFCURVE",
"728 862 OFFCURVE",
"733 891 CURVE SMOOTH",
"788 1178 LINE SMOOTH",
"836 1422 OFFCURVE",
"972 1556 OFFCURVE",
"1173 1556 CURVE SMOOTH",
"1229 1556 OFFCURVE",
"1282 1549 OFFCURVE",
"1332 1534 CURVE SMOOTH",
"1360 1526 OFFCURVE",
"1372 1506 OFFCURVE",
"1372 1477 CURVE SMOOTH"
);
}
);
width = 1500;
}
);
unicode = 0192;
},
{
glyphname = circumflex;
lastChange = "2013-06-12 15:10:19 -0400";
layers = (
{
anchors = (
{
name = _top;
position = "{750, 1155}";
}
);
layerId = "6B6936E6-7670-4A82-900D-EAF583C971AF";
name = Regular;
paths = (
{
closed = 1;
nodes = (
"676 1638 LINE",
"824 1638 LINE",
"1069 1262 LINE",
"930 1262 LINE",
"785 1459 LINE SMOOTH",
"764 1488 OFFCURVE",
"736 1488 OFFCURVE",
"715 1459 CURVE SMOOTH",
"570 1262 LINE",
"431 1262 LINE"
);
}
);
width = 1500;
}
);
unicode = 02C6;
},
{
glyphname = caron;
lastChange = "2013-06-12 15:10:19 -0400";
layers = (
{
anchors = (
{
name = _top;
position = "{750, 1120}";
}
);
layerId = "6B6936E6-7670-4A82-900D-EAF583C971AF";
name = Regular;
paths = (
{
closed = 1;
nodes = (
"715 1262 LINE SMOOTH",
"688 1262 OFFCURVE",
"670 1272 OFFCURVE",
"655 1295 CURVE SMOOTH",
"470 1578 LINE SMOOTH",
"448 1612 OFFCURVE",
"462 1638 OFFCURVE",
"503 1638 CURVE SMOOTH",
"532 1638 LINE SMOOTH",
"559 1638 OFFCURVE",
"577 1629 OFFCURVE",
"593 1607 CURVE SMOOTH",
"715 1441 LINE SMOOTH",
"736 1412 OFFCURVE",
"764 1412 OFFCURVE",
"785 1441 CURVE SMOOTH",
"907 1607 LINE SMOOTH",
"923 1629 OFFCURVE",
"941 1638 OFFCURVE",
"968 1638 CURVE SMOOTH",
"1000 1638 LINE SMOOTH",
"1039 1638 OFFCURVE",
"1052 1612 OFFCURVE",
"1030 1578 CURVE SMOOTH",
"845 1295 LINE SMOOTH",
"830 1272 OFFCURVE",
"812 1262 OFFCURVE",
"785 1262 CURVE SMOOTH"
);
}
);
width = 1500;
}
);
unicode = 02C7;
},
{
glyphname = breve;
lastChange = "2013-06-12 15:10:19 -0400";
layers = (
{
anchors = (
{
name = _top;
position = "{750, 1175}";
}
);
layerId = "6B6936E6-7670-4A82-900D-EAF583C971AF";
name = Regular;
paths = (
{
closed = 1;
nodes = (
"510 1608 LINE SMOOTH",
"540 1608 OFFCURVE",
"555 1593 OFFCURVE",
"566 1565 CURVE SMOOTH",
"591 1494 OFFCURVE",
"652 1458 OFFCURVE",
"750 1458 CURVE SMOOTH",
"847 1458 OFFCURVE",
"907 1493 OFFCURVE",
"934 1565 CURVE SMOOTH",
"944 1593 OFFCURVE",
"960 1608 OFFCURVE",
"989 1608 CURVE SMOOTH",
"1010 1608 LINE SMOOTH",
"1044 1608 OFFCURVE",
"1063 1588 OFFCURVE",
"1056 1555 CURVE SMOOTH",
"1028 1399 OFFCURVE",
"924 1321 OFFCURVE",
"750 1321 CURVE SMOOTH",
"576 1321 OFFCURVE",
"472 1399 OFFCURVE",
"444 1555 CURVE SMOOTH",
"437 1588 OFFCURVE",
"456 1608 OFFCURVE",
"490 1608 CURVE SMOOTH"
);
}
);
width = 1500;
}
);
unicode = 02D8;
},
{
glyphname = dotaccent;
lastChange = "2013-06-12 15:10:19 -0400";
layers = (
{
anchors = (
{
name = _top;
position = "{750, 1120}";
}
);
layerId = "6B6936E6-7670-4A82-900D-EAF583C971AF";
name = Regular;
paths = (
{
closed = 1;
nodes = (
"648 1502 LINE SMOOTH",
"648 1535 OFFCURVE",
"665 1552 OFFCURVE",
"698 1552 CURVE SMOOTH",
"802 1552 LINE SMOOTH",
"835 1552 OFFCURVE",
"852 1535 OFFCURVE",
"852 1502 CURVE SMOOTH",
"852 1398 LINE SMOOTH",
"852 1366 OFFCURVE",
"835 1348 OFFCURVE",
"802 1348 CURVE SMOOTH",
"698 1348 LINE SMOOTH",
"666 1348 OFFCURVE",
"648 1366 OFFCURVE",
"648 1398 CURVE SMOOTH"
);
}
);
width = 1500;
}
);
unicode = 02D9;
},
